<?xml version="1.0" encoding="UTF-8" standalone="no"?>
<!-- Created with Inkscape (http://www.inkscape.org/) -->

<svg
   xmlns:dc="http://purl.org/dc/elements/1.1/"
   xmlns:cc="http://creativecommons.org/ns#"
   xmlns:rdf="http://www.w3.org/1999/02/22-rdf-syntax-ns#"
   xmlns:svg="http://www.w3.org/2000/svg"
   xmlns="http://www.w3.org/2000/svg"
   xmlns:xlink="http://www.w3.org/1999/xlink"
   xmlns:sodipodi="http://sodipodi.sourceforge.net/DTD/sodipodi-0.dtd"
   xmlns:inkscape="http://www.inkscape.org/namespaces/inkscape"
   width="48"
   height="48"
   id="svg2"
   version="1.1"
   inkscape:version="0.48.5 r10040"
   sodipodi:docname="html.svg"
   inkscape:export-filename="/home/andrea/Documenti/MeliaeSVG/48/mimetypes/png/writer.png"
   inkscape:export-xdpi="240"
   inkscape:export-ydpi="240">
  <defs
     id="defs4">
    <linearGradient
       id="linearGradient4203">
      <stop
         style="stop-color:#f0f0f0;stop-opacity:1;"
         offset="0"
         id="stop4205" />
      <stop
         style="stop-color:#ffffff;stop-opacity:1;"
         offset="1"
         id="stop4207" />
    </linearGradient>
    <linearGradient
       inkscape:collect="always"
       xlink:href="#linearGradient4203"
       id="linearGradient4209"
       x1="31.687183"
       y1="1045.266"
       x2="15.481234"
       y2="1013.3396"
       gradientUnits="userSpaceOnUse" />
  </defs>
  <sodipodi:namedview
     id="base"
     pagecolor="#ffffff"
     bordercolor="#666666"
     borderopacity="1.0"
     inkscape:pageopacity="0.0"
     inkscape:pageshadow="2"
     inkscape:zoom="7.9999999"
     inkscape:cx="44.820327"
     inkscape:cy="19.598758"
     inkscape:document-units="px"
     inkscape:current-layer="layer1"
     showgrid="false"
     inkscape:window-width="963"
     inkscape:window-height="622"
     inkscape:window-x="701"
     inkscape:window-y="180"
     inkscape:window-maximized="0"
     showguides="true"
     inkscape:guide-bbox="true" />
  <metadata
     id="metadata7">
    <rdf:RDF>
      <cc:Work
         rdf:about="">
        <dc:format>image/svg+xml</dc:format>
        <dc:type
           rdf:resource="http://purl.org/dc/dcmitype/StillImage" />
        <dc:title />
      </cc:Work>
    </rdf:RDF>
  </metadata>
  <g
     inkscape:label="Livello 1"
     inkscape:groupmode="layer"
     id="layer1"
     transform="translate(0,-1004.3622)">
    <rect
       ry="1.0238096"
       rx="1.03125"
       y="1006.8622"
       x="7.5"
       height="43"
       width="33"
       id="rect4211"
       style="fill:#646464;fill-opacity:0.47058824;stroke:none" />
    <rect
       style="fill:url(#linearGradient4209);fill-opacity:1;stroke:none"
       id="rect3429"
       width="32"
       height="42"
       x="8"
       y="1007.3622"
       rx="1"
       ry="1" />
    <g
       transform="matrix(0.08913128,0,0,0.09898775,0.36645303,946.68057)"
       id="g3164">
      <path
         inkscape:connector-curvature="0"
         d="m 155.35132,719.14794 0,-79.98958 7.39969,0 0,32.84701 29.0648,0 0,-32.84701 7.3997,0 0,79.98958 -7.3997,0 0,-37.70314 -29.0648,0 0,37.70314 z"
         id="path2912"
         style="font-size:87.02021027px;font-style:normal;font-weight:normal;fill:#800000;fill-opacity:1;stroke:none;font-family:Bitstream Vera Sans" />
      <path
         inkscape:connector-curvature="0"
         d="m 225.80103,719.14794 0,-70.55016 -18.42296,0 0,-9.43942 44.32191,0 0,9.43942 -18.49925,0 0,70.55016 z"
         id="path2915"
         style="font-size:87.02021027px;font-style:normal;font-weight:normal;fill:#800000;fill-opacity:1;stroke:none;font-family:Bitstream Vera Sans" />
      <path
         inkscape:connector-curvature="0"
         d="m 259.09966,719.14794 0,-79.98958 11.1377,0 13.23554,56.63656 c 1.22053,5.27445 2.11053,9.22119 2.66999,11.8402 0.63568,-2.91002 1.62739,-7.18413 2.97514,-12.82235 l 13.38811,-55.65441 9.95527,0 0,79.98958 -7.1327,0 0,-66.94899 -16.24882,66.94899 -6.67499,0 -16.17254,-68.09482 0,68.09482 z"
         id="path2918"
         style="font-size:87.02021027px;font-style:normal;font-weight:normal;fill:#800000;fill-opacity:1;stroke:none;font-family:Bitstream Vera Sans" />
      <path
         inkscape:connector-curvature="0"
         d="m 324.17124,719.14794 0,-79.98958 7.39971,0 0,70.55015 27.53908,0 0,9.43943 z"
         id="path2920"
         style="font-size:87.02021027px;font-style:normal;font-weight:normal;fill:#800000;fill-opacity:1;stroke:none;font-family:Bitstream Vera Sans" />
      <path
         inkscape:connector-curvature="0"
         d="m 98.402779,679.67819 0,-8.9986 49.822451,-21.96087 0,9.5878 -39.50905,16.92593 39.50905,17.08663 0,9.5878 z"
         id="path3020"
         style="font-size:100px;font-style:normal;font-weight:normal;fill:#000080;fill-opacity:1;stroke:none;font-family:Bitstream Vera Sans" />
      <path
         inkscape:connector-curvature="0"
         d="m 411.60459,681.25596 0,-8.9986 -49.82244,-21.96088 0,9.5878 39.50904,16.92595 -39.50904,17.08662 0,9.58779 z"
         id="path3023"
         style="font-size:100px;font-style:normal;font-weight:normal;fill:#000080;fill-opacity:1;stroke:none;font-family:Bitstream Vera Sans" />
    </g>
    <g
       transform="matrix(0.13791066,0,0,0.14337253,-10.831696,912.82422)"
       id="text2924"
       style="font-size:40px;font-style:normal;font-weight:normal;fill:#000000;fill-opacity:1;stroke:none;font-family:Bitstream Vera Sans">
      <path
         inkscape:connector-curvature="0"
         d="m 151.3125,776.63617 0,-1.96875 11.37891,-4.80469 0,2.09766 -9.02344,3.70312 9.02344,3.73828 0,2.09766 z"
         id="path3037"
         style="fill:#000080" />
      <path
         inkscape:connector-curvature="0"
         d="m 165.59766,784.14789 0,-17.17969 2.10937,0 0,6.16406 c 0.98437,-1.14061 2.22656,-1.71092 3.72656,-1.71093 0.92187,10e-6 1.72265,0.18165 2.40235,0.54492 0.67967,0.36329 1.166,0.86524 1.45898,1.50586 0.29296,0.64063 0.43944,1.57032 0.43945,2.78906 l 0,7.88672 -2.10937,0 0,-7.88672 c -1e-5,-1.05468 -0.22853,-1.82226 -0.68555,-2.30273 -0.45704,-0.48046 -1.10352,-0.7207 -1.93945,-0.72071 -0.62501,10e-6 -1.2129,0.16212 -1.76367,0.48633 -0.55079,0.32423 -0.94337,0.76368 -1.17774,1.31836 -0.23438,0.5547 -0.35156,1.32032 -0.35156,2.29687 l 0,6.8086 z"
         id="path3039"
         style="fill:#800000" />
      <path
         inkscape:connector-curvature="0"
         d="m 183.5625,782.26117 0.30469,1.86328 c -0.59376,0.125 -1.12501,0.1875 -1.59375,0.1875 -0.76563,0 -1.35938,-0.12109 -1.78125,-0.36328 -0.42188,-0.24219 -0.71875,-0.56055 -0.89063,-0.95508 -0.17187,-0.39453 -0.25781,-1.22461 -0.25781,-2.49023 l 0,-7.16016 -1.54688,0 0,-1.64062 1.54688,0 0,-3.08204 2.09766,-1.26562 0,4.34766 2.12109,0 0,1.64062 -2.12109,0 0,7.27734 c -1e-5,0.60157 0.0371,0.98829 0.11132,1.16016 0.0742,0.17188 0.19531,0.3086 0.36329,0.41016 0.16796,0.10156 0.40819,0.15234 0.7207,0.15234 0.23437,0 0.54296,-0.0273 0.92578,-0.082 z"
         id="path3041"
         style="fill:#800000" />
      <path
         inkscape:connector-curvature="0"
         d="m 185.61328,784.14789 0,-12.44531 1.88672,0 0,1.74609 c 0.39062,-0.60936 0.91015,-1.0996 1.55859,-1.4707 0.64844,-0.37108 1.38672,-0.55663 2.21485,-0.55664 0.92186,10e-6 1.67772,0.19141 2.26758,0.57421 0.58983,0.38283 1.00584,0.91798 1.24804,1.60547 0.98437,-1.45311 2.26561,-2.17967 3.84375,-2.17968 1.23436,10e-6 2.18358,0.3418 2.84766,1.02539 0.66404,0.6836 0.99607,1.73633 0.99609,3.1582 l 0,8.54297 -2.09765,0 0,-7.83985 c -2e-5,-0.84374 -0.0684,-1.45116 -0.20508,-1.82226 -0.13674,-0.37108 -0.38478,-0.66991 -0.74414,-0.89649 -0.35939,-0.22655 -0.78127,-0.33983 -1.26563,-0.33984 -0.87501,10e-6 -1.60157,0.29103 -2.17969,0.87305 -0.57813,0.58204 -0.86719,1.51368 -0.86718,2.79492 l 0,7.23047 -2.10938,0 0,-8.08594 c -1e-5,-0.93749 -0.17188,-1.64061 -0.51562,-2.10937 -0.34376,-0.46874 -0.90626,-0.70312 -1.6875,-0.70313 -0.59376,10e-6 -1.14259,0.15626 -1.64649,0.46875 -0.50391,0.31251 -0.86914,0.76954 -1.0957,1.37109 -0.22657,0.60158 -0.33985,1.46876 -0.33984,2.60157 l 0,6.45703 z"
         id="path3043"
         style="fill:#800000" />
      <path
         inkscape:connector-curvature="0"
         d="m 205.58203,784.14789 0,-17.17969 2.10938,0 0,17.17969 z"
         id="path3045"
         style="fill:#800000" />
      <path
         inkscape:connector-curvature="0"
         d="m 222.08203,776.63617 -11.37891,4.86328 0,-2.09766 9.01172,-3.73828 -9.01172,-3.70312 0,-2.09766 11.37891,4.80469 z"
         id="path3047"
         style="fill:#000080" />
      <path
         inkscape:connector-curvature="0"
         d="m 151.3125,806.63617 0,-1.96875 11.37891,-4.80469 0,2.09766 -9.02344,3.70312 9.02344,3.73828 0,2.09766 z"
         id="path3049"
         style="fill:#000080" />
      <path
         inkscape:connector-curvature="0"
         d="m 170.20312,812.26117 0.30469,1.86328 c -0.59375,0.125 -1.125,0.1875 -1.59375,0.1875 -0.76563,0 -1.35938,-0.12109 -1.78125,-0.36328 -0.42188,-0.24219 -0.71875,-0.56055 -0.89062,-0.95508 -0.17188,-0.39453 -0.25782,-1.22461 -0.25782,-2.49023 l 0,-7.16016 -1.54687,0 0,-1.64062 1.54687,0 0,-3.08204 2.09766,-1.26562 0,4.34766 2.12109,0 0,1.64062 -2.12109,0 0,7.27734 c 0,0.60157 0.0371,0.98829 0.11133,1.16016 0.0742,0.17188 0.19531,0.3086 0.36328,0.41016 0.16796,0.10156 0.4082,0.15234 0.7207,0.15234 0.23437,0 0.54297,-0.0273 0.92578,-0.082 z"
         id="path3051"
         style="fill:#800000" />
      <path
         inkscape:connector-curvature="0"
         d="m 172.26562,799.39398 0,-2.42578 2.10938,0 0,2.42578 z m 0,14.75391 0,-12.44531 2.10938,0 0,12.44531 z"
         id="path3053"
         style="fill:#800000" />
      <path
         inkscape:connector-curvature="0"
         d="m 182.20312,812.26117 0.30469,1.86328 c -0.59375,0.125 -1.125,0.1875 -1.59375,0.1875 -0.76563,0 -1.35938,-0.12109 -1.78125,-0.36328 -0.42188,-0.24219 -0.71875,-0.56055 -0.89062,-0.95508 -0.17188,-0.39453 -0.25782,-1.22461 -0.25782,-2.49023 l 0,-7.16016 -1.54687,0 0,-1.64062 1.54687,0 0,-3.08204 2.09766,-1.26562 0,4.34766 2.12109,0 0,1.64062 -2.12109,0 0,7.27734 c 0,0.60157 0.0371,0.98829 0.11133,1.16016 0.0742,0.17188 0.19531,0.3086 0.36328,0.41016 0.16796,0.10156 0.4082,0.15234 0.7207,0.15234 0.23437,0 0.54297,-0.0273 0.92578,-0.082 z"
         id="path3055"
         style="fill:#800000" />
      <path
         inkscape:connector-curvature="0"
         d="m 184.20703,814.14789 0,-17.17969 2.10938,0 0,17.17969 z"
         id="path3057"
         style="fill:#800000" />
      <path
         inkscape:connector-curvature="0"
         d="m 198.11719,810.14008 2.17968,0.26953 c -0.34376,1.27344 -0.98048,2.26172 -1.91015,2.96484 -0.9297,0.70313 -2.1172,1.05469 -3.5625,1.05469 -1.82032,0 -3.26368,-0.56055 -4.33008,-1.68164 -1.06641,-1.12109 -1.59961,-2.69336 -1.59961,-4.7168 0,-2.09374 0.53906,-3.71874 1.61719,-4.875 1.07812,-1.15624 2.47656,-1.73436 4.19531,-1.73437 1.66406,10e-6 3.02343,0.56641 4.07813,1.69921 1.05467,1.13283 1.58202,2.72658 1.58203,4.78125 -1e-5,0.12501 -0.004,0.31251 -0.0117,0.5625 l -9.28125,0 c 0.0781,1.3672 0.46484,2.41407 1.16015,3.14063 0.69531,0.72656 1.5625,1.08984 2.60157,1.08984 0.77343,0 1.43358,-0.20312 1.98047,-0.60937 0.54686,-0.40625 0.98046,-1.05469 1.30078,-1.94531 z m -6.92578,-3.41016 6.94921,0 c -0.0938,-1.04687 -0.35938,-1.83202 -0.79687,-2.35547 -0.67188,-0.81249 -1.54298,-1.21874 -2.61328,-1.21875 -0.96876,10e-6 -1.78321,0.32423 -2.44336,0.97266 -0.66016,0.64844 -1.02539,1.51563 -1.0957,2.60156 z"
         id="path3059"
         style="fill:#800000" />
      <path
         inkscape:connector-curvature="0"
         d="m 214.06641,806.63617 -11.37891,4.86328 0,-2.09766 9.01172,-3.73828 -9.01172,-3.70312 0,-2.09766 11.37891,4.80469 z"
         id="path3061"
         style="fill:#000080" />
      <path
         inkscape:connector-curvature="0"
         d="m 217.3125,814.14789 0,-17.17969 2.27344,0 0,7.05469 8.92968,0 0,-7.05469 2.27344,0 0,17.17969 -2.27344,0 0,-8.09766 -8.92968,0 0,8.09766 z"
         id="path3063"
         style="font-size:24px" />
      <path
         inkscape:connector-curvature="0"
         d="m 238.95703,814.14789 0,-15.15235 -5.66016,0 0,-2.02734 13.61719,0 0,2.02734 -5.68359,0 0,15.15235 z"
         id="path3065"
         style="font-size:24px" />
      <path
         inkscape:connector-curvature="0"
         d="m 249.1875,814.14789 0,-17.17969 3.42187,0 4.06641,12.16406 c 0.37499,1.13282 0.64843,1.98047 0.82031,2.54297 0.19531,-0.62499 0.49999,-1.54296 0.91407,-2.7539 l 4.11328,-11.95313 3.05859,0 0,17.17969 -2.19141,0 0,-14.37891 -4.99218,14.37891 -2.05078,0 -4.96875,-14.625 0,14.625 z"
         id="path3067"
         style="font-size:24px" />
      <path
         inkscape:connector-curvature="0"
         d="m 269.17969,814.14789 0,-17.17969 2.27343,0 0,15.15234 8.46094,0 0,2.02735 z"
         id="path3069"
         style="font-size:24px" />
      <path
         inkscape:connector-curvature="0"
         d="m 282.09375,806.63617 0,-1.96875 11.37891,-4.80469 0,2.09766 -9.02344,3.70312 9.02344,3.73828 0,2.09766 z"
         id="path3071"
         style="fill:#000080" />
      <path
         inkscape:connector-curvature="0"
         d="m 294.79687,814.44086 4.98047,-17.76563 1.6875,0 -4.96875,17.76563 z"
         id="path3073"
         style="fill:#000080" />
      <path
         inkscape:connector-curvature="0"
         d="m 307.64062,812.26117 0.30469,1.86328 c -0.59375,0.125 -1.125,0.1875 -1.59375,0.1875 -0.76563,0 -1.35938,-0.12109 -1.78125,-0.36328 -0.42188,-0.24219 -0.71875,-0.56055 -0.89062,-0.95508 -0.17188,-0.39453 -0.25782,-1.22461 -0.25782,-2.49023 l 0,-7.16016 -1.54687,0 0,-1.64062 1.54687,0 0,-3.08204 2.09766,-1.26562 0,4.34766 2.12109,0 0,1.64062 -2.12109,0 0,7.27734 c 0,0.60157 0.0371,0.98829 0.11133,1.16016 0.0742,0.17188 0.19531,0.3086 0.36328,0.41016 0.16796,0.10156 0.4082,0.15234 0.7207,0.15234 0.23437,0 0.54297,-0.0273 0.92578,-0.082 z"
         id="path3075"
         style="fill:#800000" />
      <path
         inkscape:connector-curvature="0"
         d="m 309.70312,799.39398 0,-2.42578 2.10938,0 0,2.42578 z m 0,14.75391 0,-12.44531 2.10938,0 0,12.44531 z"
         id="path3077"
         style="fill:#800000" />
      <path
         inkscape:connector-curvature="0"
         d="m 319.64062,812.26117 0.30469,1.86328 c -0.59375,0.125 -1.125,0.1875 -1.59375,0.1875 -0.76563,0 -1.35938,-0.12109 -1.78125,-0.36328 -0.42188,-0.24219 -0.71875,-0.56055 -0.89062,-0.95508 -0.17188,-0.39453 -0.25782,-1.22461 -0.25782,-2.49023 l 0,-7.16016 -1.54687,0 0,-1.64062 1.54687,0 0,-3.08204 2.09766,-1.26562 0,4.34766 2.12109,0 0,1.64062 -2.12109,0 0,7.27734 c 0,0.60157 0.0371,0.98829 0.11133,1.16016 0.0742,0.17188 0.19531,0.3086 0.36328,0.41016 0.16796,0.10156 0.4082,0.15234 0.7207,0.15234 0.23437,0 0.54297,-0.0273 0.92578,-0.082 z"
         id="path3079"
         style="fill:#800000" />
      <path
         inkscape:connector-curvature="0"
         d="m 321.64453,814.14789 0,-17.17969 2.10938,0 0,17.17969 z"
         id="path3081"
         style="fill:#800000" />
      <path
         inkscape:connector-curvature="0"
         d="m 335.55469,810.14008 2.17968,0.26953 c -0.34376,1.27344 -0.98048,2.26172 -1.91015,2.96484 -0.9297,0.70313 -2.1172,1.05469 -3.5625,1.05469 -1.82032,0 -3.26368,-0.56055 -4.33008,-1.68164 -1.06641,-1.12109 -1.59961,-2.69336 -1.59961,-4.7168 0,-2.09374 0.53906,-3.71874 1.61719,-4.875 1.07812,-1.15624 2.47656,-1.73436 4.19531,-1.73437 1.66406,10e-6 3.02343,0.56641 4.07813,1.69921 1.05467,1.13283 1.58202,2.72658 1.58203,4.78125 -10e-6,0.12501 -0.004,0.31251 -0.0117,0.5625 l -9.28125,0 c 0.0781,1.3672 0.46484,2.41407 1.16015,3.14063 0.69531,0.72656 1.5625,1.08984 2.60157,1.08984 0.77343,0 1.43358,-0.20312 1.98047,-0.60937 0.54686,-0.40625 0.98046,-1.05469 1.30078,-1.94531 z m -6.92578,-3.41016 6.94921,0 c -0.0938,-1.04687 -0.35938,-1.83202 -0.79687,-2.35547 -0.67188,-0.81249 -1.54298,-1.21874 -2.61328,-1.21875 -0.96876,10e-6 -1.78321,0.32423 -2.44336,0.97266 -0.66016,0.64844 -1.02539,1.51563 -1.0957,2.60156 z"
         id="path3083"
         style="fill:#800000" />
      <path
         inkscape:connector-curvature="0"
         d="m 351.50391,806.63617 -11.37891,4.86328 0,-2.09766 9.01172,-3.73828 -9.01172,-3.70312 0,-2.09766 11.37891,4.80469 z"
         id="path3085"
         style="fill:#000080" />
      <path
         inkscape:connector-curvature="0"
         d="m 151.3125,836.63617 0,-1.96875 11.37891,-4.80469 0,2.09766 -9.02344,3.70312 9.02344,3.73828 0,2.09766 z"
         id="path3087"
         style="fill:#000080" />
      <path
         inkscape:connector-curvature="0"
         d="m 167.54297,844.14789 -1.95703,0 0,-17.17969 2.10937,0 0,6.12891 c 0.89062,-1.11718 2.02734,-1.67577 3.41016,-1.67578 0.76562,10e-6 1.49022,0.15431 2.17383,0.46289 0.68358,0.3086 1.24608,0.7422 1.6875,1.30078 0.44139,0.5586 0.78709,1.23243 1.03711,2.02148 0.24998,0.78907 0.37498,1.63282 0.375,2.53125 -2e-5,2.13282 -0.52736,3.78125 -1.58204,4.94531 -1.05469,1.16407 -2.32032,1.7461 -3.79687,1.7461 -1.46876,0 -2.6211,-0.61328 -3.45703,-1.83985 z m -0.0234,-6.31641 c 0,1.49219 0.20312,2.57032 0.60938,3.23438 0.66405,1.08594 1.56249,1.6289 2.69531,1.6289 0.92187,0 1.71874,-0.40039 2.39062,-1.20117 0.67187,-0.80078 1.00781,-1.99413 1.00782,-3.58008 -1e-5,-1.62499 -0.32228,-2.82421 -0.9668,-3.59765 -0.64454,-0.77343 -1.42384,-1.16015 -2.33789,-1.16016 -0.92188,10e-6 -1.71876,0.4004 -2.39063,1.20117 -0.67188,0.80079 -1.00781,1.95899 -1.00781,3.47461 z"
         id="path3089"
         style="fill:#800000" />
      <path
         inkscape:connector-curvature="0"
         d="m 178.17187,837.92523 c 0,-2.30468 0.64063,-4.01171 1.92188,-5.12109 1.07031,-0.92186 2.37499,-1.3828 3.91406,-1.38281 1.71093,10e-6 3.10937,0.56055 4.19531,1.68164 1.08593,1.1211 1.6289,2.66993 1.62891,4.64648 -1e-5,1.60157 -0.24025,2.86133 -0.7207,3.7793 -0.48048,0.91797 -1.1797,1.63086 -2.09766,2.13867 -0.91798,0.50781 -1.91993,0.76172 -3.00586,0.76172 -1.74219,0 -3.15039,-0.5586 -4.22461,-1.67578 -1.07422,-1.11719 -1.61133,-2.72656 -1.61133,-4.82813 z m 2.16797,0 c 0,1.59376 0.34766,2.78711 1.04297,3.58008 0.69531,0.79297 1.57031,1.18945 2.625,1.18945 1.04687,0 1.91796,-0.39843 2.61328,-1.19531 0.69531,-0.79687 1.04296,-2.01171 1.04297,-3.64453 -1e-5,-1.53906 -0.34962,-2.70507 -1.04883,-3.49805 -0.69922,-0.79296 -1.56836,-1.18944 -2.60742,-1.18945 -1.05469,10e-6 -1.92969,0.39454 -2.625,1.18359 -0.69531,0.78907 -1.04297,1.98048 -1.04297,3.57422 z"
         id="path3091"
         style="fill:#800000" />
      <path
         inkscape:connector-curvature="0"
         d="m 200.39062,844.14789 0,-1.57031 c -0.78907,1.23437 -1.94922,1.85156 -3.48046,1.85156 -0.9922,0 -1.9043,-0.27344 -2.73633,-0.82031 -0.83204,-0.54688 -1.47657,-1.31055 -1.9336,-2.29102 -0.45703,-0.98046 -0.68554,-2.10742 -0.68554,-3.38086 0,-1.24218 0.20703,-2.36913 0.62109,-3.38086 0.41406,-1.01171 1.03516,-1.7871 1.86328,-2.32617 0.82812,-0.53905 1.7539,-0.80858 2.77735,-0.80859 0.74999,10e-6 1.41796,0.15821 2.0039,0.47461 0.58593,0.31641 1.06249,0.72852 1.42969,1.23632 l 0,-6.16406 2.09766,0 0,17.17969 z m -6.66796,-6.21094 c -1e-5,1.59376 0.33593,2.78516 1.00781,3.57422 0.67187,0.78906 1.46484,1.18359 2.3789,1.18359 0.92187,0 1.70508,-0.37695 2.34961,-1.13086 0.64453,-0.7539 0.96679,-1.90429 0.9668,-3.45117 -1e-5,-1.70312 -0.32813,-2.95311 -0.98437,-3.75 -0.65626,-0.79686 -1.46485,-1.1953 -2.42579,-1.19531 -0.9375,10e-6 -1.7207,0.38282 -2.3496,1.14844 -0.62891,0.76563 -0.94337,1.97266 -0.94336,3.62109 z"
         id="path3093"
         style="fill:#800000" />
      <path
         inkscape:connector-curvature="0"
         d="m 205.58203,848.94086 -0.23437,-1.98047 c 0.46093,0.125 0.86328,0.1875 1.20703,0.1875 0.46874,0 0.84374,-0.0781 1.125,-0.23438 0.28124,-0.15625 0.51171,-0.375 0.6914,-0.65625 0.13281,-0.21094 0.34766,-0.73437 0.64453,-1.57031 0.0391,-0.11719 0.10156,-0.28906 0.1875,-0.51562 l -4.72265,-12.46875 2.27344,0 2.58984,7.20703 c 0.33593,0.91406 0.63671,1.875 0.90234,2.88281 0.24218,-0.96875 0.53125,-1.91406 0.86719,-2.83594 l 2.66016,-7.2539 2.10937,0 -4.73437,12.65625 c -0.50782,1.36718 -0.90235,2.30859 -1.1836,2.82421 -0.375,0.69531 -0.80469,1.20508 -1.28906,1.5293 -0.48438,0.32422 -1.0625,0.48632 -1.73437,0.48633 -0.40626,-10e-6 -0.85938,-0.0859 -1.35938,-0.25781 z"
         id="path3095"
         style="fill:#800000" />
      <path
         inkscape:connector-curvature="0"
         d="m 228.78516,836.63617 -11.37891,4.86328 0,-2.09766 9.01172,-3.73828 -9.01172,-3.70312 0,-2.09766 11.37891,4.80469 z"
         id="path3097"
         style="fill:#000080" />
      <path
         inkscape:connector-curvature="0"
         d="m 156.22266,874.14789 0,-15.15235 -5.66016,0 0,-2.02734 13.61719,0 0,2.02734 -5.6836,0 0,15.15235 z"
         id="path3099"
         style="font-size:24px" />
      <path
         inkscape:connector-curvature="0"
         d="m 166.25391,874.14789 0,-17.17969 2.10937,0 0,6.16406 c 0.98437,-1.14061 2.22656,-1.71092 3.72656,-1.71093 0.92187,10e-6 1.72265,0.18165 2.40235,0.54492 0.67967,0.36329 1.166,0.86524 1.45898,1.50586 0.29296,0.64063 0.43944,1.57032 0.43945,2.78906 l 0,7.88672 -2.10937,0 0,-7.88672 c -1e-5,-1.05468 -0.22853,-1.82226 -0.68555,-2.30273 -0.45704,-0.48046 -1.10352,-0.7207 -1.93945,-0.72071 -0.62501,10e-6 -1.2129,0.16212 -1.76367,0.48633 -0.55079,0.32423 -0.94337,0.76368 -1.17774,1.31836 -0.23438,0.5547 -0.35156,1.32032 -0.35156,2.29687 l 0,6.8086 z"
         id="path3101"
         style="font-size:24px" />
      <path
         inkscape:connector-curvature="0"
         d="m 179.625,859.39398 0,-2.42578 2.10937,0 0,2.42578 z m 0,14.75391 0,-12.44531 2.10937,0 0,12.44531 z"
         id="path3103"
         style="font-size:24px" />
      <path
         inkscape:connector-curvature="0"
         d="m 184.11328,870.43304 2.08594,-0.32812 c 0.11718,0.83594 0.44335,1.47656 0.97851,1.92187 0.53516,0.44532 1.2832,0.66797 2.24414,0.66797 0.96875,0 1.6875,-0.19726 2.15625,-0.59179 0.46875,-0.39453 0.70312,-0.85742 0.70313,-1.38868 -1e-5,-0.47655 -0.20704,-0.85155 -0.62109,-1.125 -0.28907,-0.18749 -1.00782,-0.42577 -2.15625,-0.71484 -1.54688,-0.39062 -2.61915,-0.72851 -3.2168,-1.01367 -0.59766,-0.28515 -1.05078,-0.67968 -1.35938,-1.18359 -0.30859,-0.5039 -0.46289,-1.06054 -0.46289,-1.66993 0,-0.55467 0.12696,-1.06835 0.38086,-1.54101 0.25391,-0.47265 0.59961,-0.86523 1.03711,-1.17774 0.32812,-0.24217 0.77539,-0.44725 1.3418,-0.61523 0.5664,-0.16796 1.17382,-0.25194 1.82226,-0.25195 0.97656,10e-6 1.83398,0.14063 2.57227,0.42187 0.73827,0.28126 1.28319,0.66212 1.63477,1.14258 0.35155,0.48048 0.59374,1.12306 0.72656,1.92773 l -2.0625,0.28125 c -0.0938,-0.64061 -0.36524,-1.14061 -0.81445,-1.5 -0.44923,-0.35936 -1.084,-0.53905 -1.9043,-0.53906 -0.96876,10e-6 -1.66016,0.16017 -2.07422,0.48047 -0.41407,0.32032 -0.6211,0.69532 -0.62109,1.125 -1e-5,0.27345 0.0859,0.51954 0.25781,0.73828 0.17187,0.22657 0.4414,0.41407 0.80859,0.5625 0.21094,0.0781 0.83203,0.25782 1.86328,0.53906 1.49218,0.39845 2.5332,0.72462 3.12305,0.97852 0.58983,0.25391 1.05272,0.62305 1.38867,1.10742 0.33593,0.48438 0.5039,1.08594 0.50391,1.80469 -1e-5,0.70313 -0.20509,1.36523 -0.61524,1.98633 -0.41016,0.62109 -1.00196,1.10156 -1.77539,1.4414 -0.77344,0.33985 -1.64844,0.50977 -2.625,0.50977 -1.61719,0 -2.84961,-0.33594 -3.69726,-1.00781 -0.84766,-0.67188 -1.38867,-1.66797 -1.62305,-2.98829 z"
         id="path3105"
         style="font-size:24px" />
      <path
         inkscape:connector-curvature="0"
         d="m 203.625,859.39398 0,-2.42578 2.10937,0 0,2.42578 z m 0,14.75391 0,-12.44531 2.10937,0 0,12.44531 z"
         id="path3107"
         style="font-size:24px" />
      <path
         inkscape:connector-curvature="0"
         d="m 208.11328,870.43304 2.08594,-0.32812 c 0.11718,0.83594 0.44335,1.47656 0.97851,1.92187 0.53516,0.44532 1.2832,0.66797 2.24414,0.66797 0.96875,0 1.6875,-0.19726 2.15625,-0.59179 0.46875,-0.39453 0.70312,-0.85742 0.70313,-1.38868 -1e-5,-0.47655 -0.20704,-0.85155 -0.62109,-1.125 -0.28907,-0.18749 -1.00782,-0.42577 -2.15625,-0.71484 -1.54688,-0.39062 -2.61915,-0.72851 -3.2168,-1.01367 -0.59766,-0.28515 -1.05078,-0.67968 -1.35938,-1.18359 -0.30859,-0.5039 -0.46289,-1.06054 -0.46289,-1.66993 0,-0.55467 0.12696,-1.06835 0.38086,-1.54101 0.25391,-0.47265 0.59961,-0.86523 1.03711,-1.17774 0.32812,-0.24217 0.77539,-0.44725 1.3418,-0.61523 0.5664,-0.16796 1.17382,-0.25194 1.82226,-0.25195 0.97656,10e-6 1.83398,0.14063 2.57227,0.42187 0.73827,0.28126 1.28319,0.66212 1.63477,1.14258 0.35155,0.48048 0.59374,1.12306 0.72656,1.92773 l -2.0625,0.28125 c -0.0938,-0.64061 -0.36524,-1.14061 -0.81445,-1.5 -0.44923,-0.35936 -1.084,-0.53905 -1.9043,-0.53906 -0.96876,10e-6 -1.66016,0.16017 -2.07422,0.48047 -0.41407,0.32032 -0.6211,0.69532 -0.62109,1.125 -1e-5,0.27345 0.0859,0.51954 0.25781,0.73828 0.17187,0.22657 0.4414,0.41407 0.80859,0.5625 0.21094,0.0781 0.83203,0.25782 1.86328,0.53906 1.49218,0.39845 2.5332,0.72462 3.12305,0.97852 0.58983,0.25391 1.05272,0.62305 1.38867,1.10742 0.33593,0.48438 0.5039,1.08594 0.50391,1.80469 -1e-5,0.70313 -0.20509,1.36523 -0.61524,1.98633 -0.41016,0.62109 -1.00196,1.10156 -1.77539,1.4414 -0.77344,0.33985 -1.64844,0.50977 -2.625,0.50977 -1.61719,0 -2.84961,-0.33594 -3.69726,-1.00781 -0.84766,-0.67188 -1.38867,-1.66797 -1.62305,-2.98829 z"
         id="path3109"
         style="font-size:24px" />
      <path
         inkscape:connector-curvature="0"
         d="m 227.95312,874.14789 0,-17.17969 2.27344,0 0,7.05469 8.92969,0 0,-7.05469 2.27344,0 0,17.17969 -2.27344,0 0,-8.09766 -8.92969,0 0,8.09766 z"
         id="path3111"
         style="font-size:24px" />
      <path
         inkscape:connector-curvature="0"
         d="m 249.59766,874.14789 0,-15.15235 -5.66016,0 0,-2.02734 13.61719,0 0,2.02734 -5.6836,0 0,15.15235 z"
         id="path3113"
         style="font-size:24px" />
      <path
         inkscape:connector-curvature="0"
         d="m 259.82812,874.14789 0,-17.17969 3.42188,0 4.06641,12.16406 c 0.37499,1.13282 0.64842,1.98047 0.82031,2.54297 0.1953,-0.62499 0.49999,-1.54296 0.91406,-2.7539 l 4.11328,-11.95313 3.0586,0 0,17.17969 -2.19141,0 0,-14.37891 -4.99219,14.37891 -2.05078,0 -4.96875,-14.625 0,14.625 z"
         id="path3115"
         style="font-size:24px" />
      <path
         inkscape:connector-curvature="0"
         d="m 279.82031,874.14789 0,-17.17969 2.27344,0 0,15.15234 8.46094,0 0,2.02735 z"
         id="path3117"
         style="font-size:24px" />
      <path
         inkscape:connector-curvature="0"
         d="m 294.12891,869.88226 -0.64454,-9.10547 0,-3.80859 2.61329,0 0,3.80859 -0.60938,9.10547 z m -0.55079,4.26563 0,-2.40235 2.42579,0 0,2.40235 z"
         id="path3119"
         style="font-size:24px" />
      <path
         inkscape:connector-curvature="0"
         d="m 151.3125,896.63617 0,-1.96875 11.37891,-4.80469 0,2.09766 -9.02344,3.70312 9.02344,3.73828 0,2.09766 z"
         id="path3121"
         style="fill:#000080" />
      <path
         inkscape:connector-curvature="0"
         d="m 164.01562,904.44086 4.98047,-17.76563 1.6875,0 -4.96875,17.76563 z"
         id="path3123"
         style="fill:#000080" />
      <path
         inkscape:connector-curvature="0"
         d="m 174.19922,904.14789 -1.95703,0 0,-17.17969 2.10937,0 0,6.12891 c 0.89062,-1.11718 2.02734,-1.67577 3.41016,-1.67578 0.76562,10e-6 1.49022,0.15431 2.17383,0.46289 0.68358,0.3086 1.24608,0.7422 1.6875,1.30078 0.44139,0.5586 0.78709,1.23243 1.03711,2.02148 0.24998,0.78907 0.37498,1.63282 0.375,2.53125 -2e-5,2.13282 -0.52736,3.78125 -1.58204,4.94531 -1.05469,1.16407 -2.32032,1.7461 -3.79687,1.7461 -1.46876,0 -2.6211,-0.61328 -3.45703,-1.83985 z m -0.0234,-6.31641 c 0,1.49219 0.20312,2.57032 0.60938,3.23438 0.66405,1.08594 1.56249,1.6289 2.69531,1.6289 0.92187,0 1.71874,-0.40039 2.39062,-1.20117 0.67187,-0.80078 1.00781,-1.99413 1.00782,-3.58008 -1e-5,-1.62499 -0.32228,-2.82421 -0.9668,-3.59765 -0.64454,-0.77343 -1.42384,-1.16015 -2.33789,-1.16016 -0.92188,10e-6 -1.71876,0.4004 -2.39063,1.20117 -0.67188,0.80079 -1.00781,1.95899 -1.00781,3.47461 z"
         id="path3125"
         style="fill:#800000" />
      <path
         inkscape:connector-curvature="0"
         d="m 184.82812,897.92523 c 0,-2.30468 0.64063,-4.01171 1.92188,-5.12109 1.07031,-0.92186 2.37499,-1.3828 3.91406,-1.38281 1.71093,10e-6 3.10937,0.56055 4.19531,1.68164 1.08593,1.1211 1.6289,2.66993 1.62891,4.64648 -1e-5,1.60157 -0.24025,2.86133 -0.7207,3.7793 -0.48048,0.91797 -1.1797,1.63086 -2.09766,2.13867 -0.91798,0.50781 -1.91993,0.76172 -3.00586,0.76172 -1.74219,0 -3.15039,-0.5586 -4.22461,-1.67578 -1.07422,-1.11719 -1.61133,-2.72656 -1.61133,-4.82813 z m 2.16797,0 c 0,1.59376 0.34766,2.78711 1.04297,3.58008 0.69531,0.79297 1.57031,1.18945 2.625,1.18945 1.04687,0 1.91796,-0.39843 2.61328,-1.19531 0.69531,-0.79687 1.04296,-2.01171 1.04297,-3.64453 -1e-5,-1.53906 -0.34962,-2.70507 -1.04883,-3.49805 -0.69922,-0.79296 -1.56836,-1.18944 -2.60742,-1.18945 -1.05469,10e-6 -1.92969,0.39454 -2.625,1.18359 -0.69531,0.78907 -1.04297,1.98048 -1.04297,3.57422 z"
         id="path3127"
         style="fill:#800000" />
      <path
         inkscape:connector-curvature="0"
         d="m 207.04687,904.14789 0,-1.57031 c -0.78907,1.23437 -1.94922,1.85156 -3.48046,1.85156 -0.9922,0 -1.9043,-0.27344 -2.73633,-0.82031 -0.83204,-0.54688 -1.47657,-1.31055 -1.9336,-2.29102 -0.45703,-0.98046 -0.68554,-2.10742 -0.68554,-3.38086 0,-1.24218 0.20703,-2.36913 0.62109,-3.38086 0.41406,-1.01171 1.03516,-1.7871 1.86328,-2.32617 0.82812,-0.53905 1.7539,-0.80858 2.77735,-0.80859 0.74999,10e-6 1.41796,0.15821 2.0039,0.47461 0.58593,0.31641 1.06249,0.72852 1.42969,1.23632 l 0,-6.16406 2.09766,0 0,17.17969 z m -6.66796,-6.21094 c -1e-5,1.59376 0.33593,2.78516 1.00781,3.57422 0.67187,0.78906 1.46484,1.18359 2.3789,1.18359 0.92187,0 1.70508,-0.37695 2.34961,-1.13086 0.64453,-0.7539 0.96679,-1.90429 0.9668,-3.45117 -1e-5,-1.70312 -0.32813,-2.95311 -0.98437,-3.75 -0.65626,-0.79686 -1.46485,-1.1953 -2.42579,-1.19531 -0.9375,10e-6 -1.7207,0.38282 -2.3496,1.14844 -0.62891,0.76563 -0.94337,1.97266 -0.94336,3.62109 z"
         id="path3129"
         style="fill:#800000" />
      <path
         inkscape:connector-curvature="0"
         d="m 212.23828,908.94086 -0.23437,-1.98047 c 0.46093,0.125 0.86328,0.1875 1.20703,0.1875 0.46874,0 0.84374,-0.0781 1.125,-0.23438 0.28124,-0.15625 0.51171,-0.375 0.6914,-0.65625 0.13281,-0.21094 0.34766,-0.73437 0.64453,-1.57031 0.0391,-0.11719 0.10156,-0.28906 0.1875,-0.51562 l -4.72265,-12.46875 2.27344,0 2.58984,7.20703 c 0.33593,0.91406 0.63671,1.875 0.90234,2.88281 0.24218,-0.96875 0.53125,-1.91406 0.86719,-2.83594 l 2.66016,-7.2539 2.10937,0 -4.73437,12.65625 c -0.50782,1.36718 -0.90235,2.30859 -1.1836,2.82421 -0.375,0.69531 -0.80469,1.20508 -1.28906,1.5293 -0.48438,0.32422 -1.0625,0.48632 -1.73437,0.48633 -0.40626,-10e-6 -0.85938,-0.0859 -1.35938,-0.25781 z"
         id="path3131"
         style="fill:#800000" />
      <path
         inkscape:connector-curvature="0"
         d="m 235.44141,896.63617 -11.37891,4.86328 0,-2.09766 9.01172,-3.73828 -9.01172,-3.70312 0,-2.09766 11.37891,4.80469 z"
         id="path3133"
         style="fill:#000080" />
      <path
         inkscape:connector-curvature="0"
         d="m 151.3125,926.63617 0,-1.96875 11.37891,-4.80469 0,2.09766 -9.02344,3.70312 9.02344,3.73828 0,2.09766 z"
         id="path3135"
         style="fill:#000080" />
      <path
         inkscape:connector-curvature="0"
         d="m 164.01562,934.44086 4.98047,-17.76563 1.6875,0 -4.96875,17.76563 z"
         id="path3137"
         style="fill:#000080" />
      <path
         inkscape:connector-curvature="0"
         d="m 172.25391,934.14789 0,-17.17969 2.10937,0 0,6.16406 c 0.98437,-1.14061 2.22656,-1.71092 3.72656,-1.71093 0.92187,10e-6 1.72265,0.18165 2.40235,0.54492 0.67967,0.36329 1.166,0.86524 1.45898,1.50586 0.29296,0.64063 0.43944,1.57032 0.43945,2.78906 l 0,7.88672 -2.10937,0 0,-7.88672 c -1e-5,-1.05468 -0.22853,-1.82226 -0.68555,-2.30273 -0.45704,-0.48046 -1.10352,-0.7207 -1.93945,-0.72071 -0.62501,10e-6 -1.2129,0.16212 -1.76367,0.48633 -0.55079,0.32423 -0.94337,0.76368 -1.17774,1.31836 -0.23438,0.5547 -0.35156,1.32032 -0.35156,2.29687 l 0,6.8086 z"
         id="path3139"
         style="font-size:24px" />
      <path
         inkscape:connector-curvature="0"
         d="m 190.21875,932.26117 0.30469,1.86328 c -0.59376,0.125 -1.12501,0.1875 -1.59375,0.1875 -0.76563,0 -1.35938,-0.12109 -1.78125,-0.36328 -0.42188,-0.24219 -0.71875,-0.56055 -0.89063,-0.95508 C 186.08594,932.59906 186,931.76898 186,930.50336 l 0,-7.16016 -1.54688,0 0,-1.64062 1.54688,0 0,-3.08204 2.09766,-1.26562 0,4.34766 2.12109,0 0,1.64062 -2.12109,0 0,7.27734 c -1e-5,0.60157 0.0371,0.98829 0.11132,1.16016 0.0742,0.17188 0.19531,0.3086 0.36329,0.41016 0.16796,0.10156 0.40819,0.15234 0.7207,0.15234 0.23437,0 0.54296,-0.0273 0.92578,-0.082 z"
         id="path3141"
         style="font-size:24px" />
      <path
         inkscape:connector-curvature="0"
         d="m 192.26953,934.14789 0,-12.44531 1.88672,0 0,1.74609 c 0.39062,-0.60936 0.91015,-1.0996 1.55859,-1.4707 0.64844,-0.37108 1.38672,-0.55663 2.21485,-0.55664 0.92186,10e-6 1.67772,0.19141 2.26758,0.57421 0.58983,0.38283 1.00584,0.91798 1.24804,1.60547 0.98437,-1.45311 2.26561,-2.17967 3.84375,-2.17968 1.23436,10e-6 2.18358,0.3418 2.84766,1.02539 0.66404,0.6836 0.99607,1.73633 0.99609,3.1582 l 0,8.54297 -2.09765,0 0,-7.83985 c -2e-5,-0.84374 -0.0684,-1.45116 -0.20508,-1.82226 -0.13674,-0.37108 -0.38478,-0.66991 -0.74414,-0.89649 -0.35939,-0.22655 -0.78127,-0.33983 -1.26563,-0.33984 -0.87501,10e-6 -1.60157,0.29103 -2.17969,0.87305 -0.57813,0.58204 -0.86719,1.51368 -0.86718,2.79492 l 0,7.23047 -2.10938,0 0,-8.08594 c -1e-5,-0.93749 -0.17188,-1.64061 -0.51562,-2.10937 -0.34376,-0.46874 -0.90626,-0.70312 -1.6875,-0.70313 -0.59376,10e-6 -1.14259,0.15626 -1.64649,0.46875 -0.50391,0.31251 -0.86914,0.76954 -1.0957,1.37109 -0.22657,0.60158 -0.33985,1.46876 -0.33984,2.60157 l 0,6.45703 z"
         id="path3143"
         style="font-size:24px" />
      <path
         inkscape:connector-curvature="0"
         d="m 212.23828,934.14789 0,-17.17969 2.10938,0 0,17.17969 z"
         id="path3145"
         style="font-size:24px" />
      <path
         inkscape:connector-curvature="0"
         d="m 228.73828,926.63617 -11.37891,4.86328 0,-2.09766 9.01172,-3.73828 -9.01172,-3.70312 0,-2.09766 11.37891,4.80469 z"
         id="path3147"
         style="fill:#000080" />
    </g>
  </g>
</svg>
