<?xml version="1.0" encoding="UTF-8" standalone="no"?>
<!-- Created with Inkscape (http://www.inkscape.org/) -->

<svg
   xmlns:dc="http://purl.org/dc/elements/1.1/"
   xmlns:cc="http://creativecommons.org/ns#"
   xmlns:rdf="http://www.w3.org/1999/02/22-rdf-syntax-ns#"
   xmlns:svg="http://www.w3.org/2000/svg"
   xmlns="http://www.w3.org/2000/svg"
   xmlns:xlink="http://www.w3.org/1999/xlink"
   xmlns:sodipodi="http://sodipodi.sourceforge.net/DTD/sodipodi-0.dtd"
   xmlns:inkscape="http://www.inkscape.org/namespaces/inkscape"
   width="48"
   height="48"
   id="svg2"
   version="1.1"
   inkscape:version="0.48.5 r10040"
   sodipodi:docname="jpg.svg"
   inkscape:export-filename="/home/andrea/Documenti/MeliaeSVG/48/mimetypes/png/text-x-preview.png"
   inkscape:export-xdpi="240"
   inkscape:export-ydpi="240">
  <defs
     id="defs4">
    <linearGradient
       id="linearGradient4203">
      <stop
         style="stop-color:#f0f0f0;stop-opacity:1;"
         offset="0"
         id="stop4205" />
      <stop
         style="stop-color:#ffffff;stop-opacity:1;"
         offset="1"
         id="stop4207" />
    </linearGradient>
    <linearGradient
       inkscape:collect="always"
       xlink:href="#linearGradient4203"
       id="linearGradient4209"
       x1="31.687183"
       y1="1045.266"
       x2="15.481234"
       y2="1013.3396"
       gradientUnits="userSpaceOnUse" />
    <radialGradient
       r="5.6500001"
       fy="1040.4387"
       fx="5.8125062"
       cy="1040.4387"
       cx="5.8125062"
       gradientTransform="matrix(0.21373167,1.7386393,-1.8515491,0.2353432,1930.8033,785.77305)"
       gradientUnits="userSpaceOnUse"
       id="radialGradient3294"
       xlink:href="#linearGradient3608"
       inkscape:collect="always" />
    <linearGradient
       y2="1048.6541"
       x2="9.25"
       y1="1038.1541"
       x1="4.2053571"
       gradientUnits="userSpaceOnUse"
       id="linearGradient3292"
       xlink:href="#linearGradient3616"
       inkscape:collect="always" />
    <linearGradient
       y2="1049.7424"
       x2="9.3839283"
       y1="1039.5621"
       x1="5.2767859"
       gradientTransform="matrix(1.0068493,0,0,1.0068493,-0.05479421,-7.1531374)"
       gradientUnits="userSpaceOnUse"
       id="linearGradient3290"
       xlink:href="#linearGradient3592"
       inkscape:collect="always" />
    <radialGradient
       r="5.6500001"
       fy="1040.4387"
       fx="5.8125062"
       cy="1040.4387"
       cx="5.8125062"
       gradientTransform="matrix(0.49870722,4.056825,-4.3202812,0.54913413,4478.0245,426.06302)"
       gradientUnits="userSpaceOnUse"
       id="radialGradient3288"
       xlink:href="#linearGradient3638"
       inkscape:collect="always" />
    <linearGradient
       y2="1048.6541"
       x2="9.25"
       y1="1038.1541"
       x1="4.2053571"
       gradientTransform="matrix(2.3333333,0,0,2.3333333,-27.183171,-1407.4074)"
       gradientUnits="userSpaceOnUse"
       id="linearGradient3286"
       xlink:href="#linearGradient3616"
       inkscape:collect="always" />
    <linearGradient
       y2="1049.7424"
       x2="9.3839283"
       y1="1039.5621"
       x1="5.2767859"
       gradientTransform="matrix(2.349315,0,0,2.349315,-27.311024,-1424.0981)"
       gradientUnits="userSpaceOnUse"
       id="linearGradient3284"
       xlink:href="#linearGradient3592"
       inkscape:collect="always" />
    <linearGradient
       id="linearGradient3638">
      <stop
         style="stop-color:#9cc430;stop-opacity:1;"
         offset="0"
         id="stop3640" />
      <stop
         style="stop-color:#619508;stop-opacity:1;"
         offset="1"
         id="stop3642" />
    </linearGradient>
    <linearGradient
       id="linearGradient3616">
      <stop
         style="stop-color:#828282;stop-opacity:1;"
         offset="0"
         id="stop3618" />
      <stop
         style="stop-color:#282828;stop-opacity:1;"
         offset="1"
         id="stop3620" />
    </linearGradient>
    <linearGradient
       id="linearGradient3608">
      <stop
         id="stop3610"
         offset="0"
         style="stop-color:#5785a6;stop-opacity:1;" />
      <stop
         id="stop3612"
         offset="1"
         style="stop-color:#113f4c;stop-opacity:1;" />
    </linearGradient>
    <linearGradient
       id="linearGradient3592">
      <stop
         style="stop-color:#ffffff;stop-opacity:1;"
         offset="0"
         id="stop3594" />
      <stop
         style="stop-color:#c8c8c8;stop-opacity:1;"
         offset="1"
         id="stop3596" />
    </linearGradient>
  </defs>
  <sodipodi:namedview
     id="base"
     pagecolor="#ffffff"
     bordercolor="#666666"
     borderopacity="1.0"
     inkscape:pageopacity="0.0"
     inkscape:pageshadow="2"
     inkscape:zoom="11.2"
     inkscape:cx="19.878282"
     inkscape:cy="26.229663"
     inkscape:document-units="px"
     inkscape:current-layer="g3660"
     showgrid="false"
     inkscape:window-width="1920"
     inkscape:window-height="1056"
     inkscape:window-x="0"
     inkscape:window-y="0"
     inkscape:window-maximized="1" />
  <metadata
     id="metadata7">
    <rdf:RDF>
      <cc:Work
         rdf:about="">
        <dc:format>image/svg+xml</dc:format>
        <dc:type
           rdf:resource="http://purl.org/dc/dcmitype/StillImage" />
        <dc:title />
      </cc:Work>
    </rdf:RDF>
  </metadata>
  <g
     inkscape:label="Livello 1"
     inkscape:groupmode="layer"
     id="layer1"
     transform="translate(0,-1004.3622)">
    <rect
       ry="1.0238097"
       rx="1.03125"
       y="1006.8622"
       x="7.5"
       height="43"
       width="33"
       id="rect4211"
       style="fill:#646464;fill-opacity:0.47058824;stroke:none" />
    <rect
       style="fill:url(#linearGradient4209);fill-opacity:1;stroke:none"
       id="rect3429"
       width="32"
       height="42"
       x="8"
       y="1007.3622"
       rx="1"
       ry="1" />
    <g
       id="layer1-0"
       inkscape:label="Livello 1"
       transform="matrix(0.59574468,0,0,0.59574468,9.7021277,421.70578)">
      <g
         transform="translate(3.3609641e-7,-0.14982919)"
         id="g3254">
        <g
           id="g3230"
           transform="matrix(0.86013283,0,0,0.86013283,62.129873,133.34401)">
          <g
             transform="matrix(0.99496053,0.10026734,-0.10026734,0.99496053,59.207475,10.127774)"
             id="g3644">
            <rect
               y="1011.9377"
               x="-26.016504"
               height="35"
               width="35"
               id="rect2842"
               style="fill:#646464;fill-opacity:0.78431373;fill-rule:nonzero;stroke:none" />
            <rect
               style="fill:url(#linearGradient3284);fill-opacity:1;fill-rule:nonzero;stroke:none"
               id="rect2844"
               width="34.299999"
               height="34.299999"
               x="-25.666504"
               y="1012.2877" />
            <rect
               style="fill:url(#linearGradient3286);fill-opacity:1;fill-rule:nonzero;stroke:none"
               id="rect2846"
               width="29.166666"
               height="24.5"
               x="-23.099838"
               y="1014.952" />
            <rect
               y="1015.2098"
               x="-22.846214"
               height="23.984211"
               width="28.65942"
               id="rect2848"
               style="fill:url(#radialGradient3288);fill-opacity:1;fill-rule:nonzero;stroke:none" />
          </g>
          <g
             transform="matrix(2.3201931,-0.24728179,0.24728179,2.3201931,-313.07821,-1386.943)"
             id="g2828">
            <rect
               style="fill:#646464;fill-opacity:0.78431373;fill-rule:nonzero;stroke:none"
               id="rect2816"
               width="15"
               height="15"
               x="0.5"
               y="1036.8622" />
            <rect
               y="1037.0122"
               x="0.6500001"
               height="14.7"
               width="14.7"
               id="rect3590"
               style="fill:url(#linearGradient3290);fill-opacity:1;fill-rule:nonzero;stroke:none" />
            <rect
               y="1038.1541"
               x="1.75"
               height="10.5"
               width="12.5"
               id="rect3604"
               style="fill:url(#linearGradient3292);fill-opacity:1;fill-rule:nonzero;stroke:none" />
            <rect
               style="fill:url(#radialGradient3294);fill-opacity:1;fill-rule:nonzero;stroke:none"
               id="rect3600"
               width="12.282609"
               height="10.278948"
               x="1.8586955"
               y="1038.2645" />
          </g>
        </g>
        <g
           id="g3660"
           transform="matrix(0.85106399,0,0,0.85106399,3.574468,157.83785)" />
      </g>
    </g>
    <path
       style="fill:#fd8011;fill-opacity:1;fill-rule:nonzero;stroke:none"
       d="M 8 5.5 L 8 13.5 L 28 13.5 C 30.209139 13.5 32 11.709139 32 9.5 C 32 7.290861 30.209139 5.5 28 5.5 L 8 5.5 z M 19.8125 7.53125 C 19.97656 7.5312539 20.115232 7.5390663 20.25 7.5625 C 20.384763 7.5839882 20.525388 7.6230506 20.625 7.65625 C 20.726559 7.6875037 20.808591 7.7128943 20.875 7.75 C 20.941403 7.787113 20.974606 7.8164098 21 7.84375 C 21.02734 7.8710973 21.050778 7.9179722 21.0625 7.96875 C 21.074215 8.0175815 21.093747 8.089847 21.09375 8.1875 C 21.093747 8.2441438 21.068356 8.3027375 21.0625 8.34375 C 21.05859 8.3847686 21.072262 8.4121124 21.0625 8.4375 C 21.054684 8.4609404 21.044918 8.4902373 21.03125 8.5 C 21.019528 8.5097685 20.986325 8.5000029 20.96875 8.5 C 20.943356 8.5000029 20.900387 8.4726592 20.84375 8.4375 C 20.787106 8.4023467 20.718747 8.3847686 20.625 8.34375 C 20.531247 8.3027375 20.412107 8.2539094 20.28125 8.21875 C 20.152341 8.183597 20.015623 8.1562532 19.84375 8.15625 C 19.660154 8.1562532 19.492186 8.2168001 19.34375 8.28125 C 19.195311 8.3437531 19.074217 8.4140655 18.96875 8.53125 C 18.86328 8.6464871 18.775389 8.8046901 18.71875 8.96875 C 18.662108 9.1308617 18.624999 9.3027365 18.625 9.5 C 18.624999 9.7167986 18.662108 9.8964859 18.71875 10.0625 C 18.777343 10.226564 18.865233 10.357423 18.96875 10.46875 C 19.072264 10.580079 19.199217 10.66211 19.34375 10.71875 C 19.490233 10.775391 19.636717 10.812501 19.8125 10.8125 C 19.898435 10.812501 19.978513 10.800782 20.0625 10.78125 C 20.146482 10.761719 20.240232 10.726563 20.3125 10.6875 L 20.3125 9.8125 L 19.59375 9.8125 C 19.558592 9.8125016 19.519529 9.7929703 19.5 9.75 C 19.480467 9.7050798 19.468748 9.6367205 19.46875 9.53125 C 19.468748 9.4765644 19.464842 9.4433613 19.46875 9.40625 C 19.474608 9.3691427 19.490233 9.3339864 19.5 9.3125 C 19.509764 9.2890646 19.517576 9.2597678 19.53125 9.25 C 19.54492 9.2382834 19.57617 9.2500022 19.59375 9.25 L 20.875 9.25 C 20.906247 9.2500022 20.914059 9.2382834 20.9375 9.25 C 20.962887 9.2597678 20.982419 9.2910177 21 9.3125 C 21.019528 9.3339864 21.052731 9.343752 21.0625 9.375 C 21.072262 9.4042989 21.062497 9.4609394 21.0625 9.5 L 21.0625 11 C 21.062497 11.058594 21.052731 11.111328 21.03125 11.15625 C 21.011715 11.199219 20.9707 11.22461 20.90625 11.25 C 20.843747 11.275391 20.781247 11.316406 20.6875 11.34375 C 20.593747 11.371094 20.47656 11.386719 20.375 11.40625 C 20.275388 11.425781 20.197263 11.427734 20.09375 11.4375 C 19.992185 11.447266 19.884763 11.46875 19.78125 11.46875 C 19.478514 11.46875 19.208983 11.429687 18.96875 11.34375 C 18.730468 11.25586 18.509765 11.132813 18.34375 10.96875 C 18.177734 10.802735 18.05664 10.580079 17.96875 10.34375 C 17.880859 10.10547 17.84375 9.8320328 17.84375 9.53125 C 17.84375 9.2207053 17.875 8.9648462 17.96875 8.71875 C 18.0625 8.4707061 18.203124 8.2343781 18.375 8.0625 C 18.546874 7.8886754 18.757811 7.7793005 19 7.6875 C 19.244139 7.5957069 19.51367 7.5312539 19.8125 7.53125 z M 10.59375 7.59375 C 10.64453 7.5878944 10.70703 7.5937538 10.78125 7.59375 C 10.855467 7.5937538 10.919921 7.5878944 10.96875 7.59375 C 11.017577 7.59766 11.064452 7.6152382 11.09375 7.625 C 11.124998 7.6347694 11.14453 7.6406288 11.15625 7.65625 C 11.16992 7.6699256 11.156248 7.6992225 11.15625 7.71875 L 11.15625 10.34375 C 11.156248 10.515626 11.158202 10.673829 11.125 10.8125 C 11.093749 10.949219 11.015624 11.058594 10.9375 11.15625 C 10.861327 11.251953 10.781249 11.324219 10.65625 11.375 C 10.531249 11.425781 10.371093 11.46875 10.1875 11.46875 C 10.128906 11.46875 10.058593 11.447266 10 11.4375 C 9.943359 11.429687 9.8925778 11.419922 9.84375 11.40625 C 9.7968748 11.392578 9.7539061 11.390625 9.71875 11.375 C 9.6835936 11.359375 9.6679687 11.324219 9.65625 11.3125 C 9.6445312 11.298828 9.6328124 11.294922 9.625 11.28125 C 9.6171875 11.267578 9.6308593 11.240235 9.625 11.21875 C 9.6191406 11.195313 9.5957031 11.189453 9.59375 11.15625 C 9.5917969 11.123047 9.59375 11.082032 9.59375 11.03125 C 9.59375 10.964844 9.5917969 10.888672 9.59375 10.84375 C 9.5976562 10.796876 9.6191406 10.775391 9.625 10.75 C 9.6328125 10.722657 9.6445312 10.697266 9.65625 10.6875 C 9.6699218 10.675782 9.6679687 10.656251 9.6875 10.65625 C 9.705078 10.656251 9.7265624 10.673829 9.75 10.6875 C 9.7734373 10.699219 9.8144529 10.705079 9.84375 10.71875 C 9.8730466 10.732423 9.8984372 10.767579 9.9375 10.78125 C 9.9765621 10.792969 10.009765 10.781251 10.0625 10.78125 C 10.115234 10.781251 10.179687 10.794922 10.21875 10.78125 C 10.259765 10.765626 10.287109 10.722657 10.3125 10.6875 C 10.339843 10.650391 10.361327 10.591798 10.375 10.53125 C 10.388671 10.470704 10.406249 10.408204 10.40625 10.3125 L 10.40625 7.71875 C 10.406249 7.6992225 10.39453 7.6699256 10.40625 7.65625 C 10.419921 7.6406288 10.441405 7.6347694 10.46875 7.625 C 10.498046 7.6152382 10.542968 7.59766 10.59375 7.59375 z M 12.25 7.59375 L 13.15625 7.59375 C 13.246092 7.5937538 13.32617 7.6171913 13.40625 7.625 C 13.488279 7.6308631 13.574217 7.6328163 13.6875 7.65625 C 13.800779 7.6777381 13.916013 7.7207068 14.03125 7.78125 C 14.148435 7.8418004 14.261716 7.9062535 14.34375 8 C 14.425778 8.0918002 14.488278 8.2187532 14.53125 8.34375 C 14.574216 8.4667998 14.593747 8.5957059 14.59375 8.75 C 14.593747 8.9628931 14.566403 9.1484397 14.5 9.3125 C 14.433591 9.4765644 14.31445 9.6367205 14.1875 9.75 C 14.060544 9.8613297 13.904295 9.9414077 13.71875 10 C 13.535154 10.058595 13.343748 10.093751 13.09375 10.09375 L 12.75 10.09375 L 12.75 11.28125 C 12.749999 11.300781 12.763671 11.328125 12.75 11.34375 C 12.73828 11.359375 12.716796 11.365234 12.6875 11.375 C 12.658202 11.384766 12.611327 11.400391 12.5625 11.40625 C 12.513671 11.412109 12.451171 11.40625 12.375 11.40625 C 12.300781 11.40625 12.238281 11.412109 12.1875 11.40625 C 12.138671 11.400391 12.091796 11.384766 12.0625 11.375 C 12.033203 11.365234 12.011718 11.359375 12 11.34375 C 11.988281 11.328125 12 11.300781 12 11.28125 L 12 7.875 C 12 7.7832067 12.015625 7.7324256 12.0625 7.6875 C 12.111328 7.6406288 12.171874 7.5937538 12.25 7.59375 z M 15.40625 7.59375 L 17.3125 7.59375 C 17.330076 7.5937538 17.361326 7.6152382 17.375 7.625 C 17.388669 7.6347694 17.396482 7.6621131 17.40625 7.6875 C 17.416013 7.7109412 17.402341 7.7421912 17.40625 7.78125 C 17.412107 7.818363 17.437497 7.8476598 17.4375 7.90625 C 17.437497 7.9609409 17.412107 8.0234409 17.40625 8.0625 C 17.402341 8.0996127 17.416013 8.1328158 17.40625 8.15625 C 17.396482 8.1796907 17.388669 8.1757845 17.375 8.1875 C 17.361326 8.1972688 17.330076 8.2187532 17.3125 8.21875 L 15.96875 8.21875 L 15.96875 9.125 L 17.09375 9.125 C 17.111326 9.1250023 17.142576 9.1445335 17.15625 9.15625 C 17.171873 9.1660179 17.177732 9.1640647 17.1875 9.1875 C 17.197263 9.2089865 17.214841 9.2421896 17.21875 9.28125 C 17.224607 9.3183614 17.218748 9.3828145 17.21875 9.4375 C 17.218748 9.4941425 17.224607 9.5253925 17.21875 9.5625 C 17.214841 9.5996112 17.197263 9.6328143 17.1875 9.65625 C 17.177732 9.6777361 17.171873 9.7089861 17.15625 9.71875 C 17.142576 9.7285173 17.111326 9.7187517 17.09375 9.71875 L 15.96875 9.71875 L 15.96875 10.78125 L 17.3125 10.78125 C 17.330076 10.781251 17.361326 10.800782 17.375 10.8125 C 17.390622 10.822266 17.396482 10.851563 17.40625 10.875 C 17.416013 10.898438 17.433591 10.929688 17.4375 10.96875 C 17.443357 11.00586 17.437497 11.03711 17.4375 11.09375 C 17.437497 11.150391 17.443357 11.210938 17.4375 11.25 C 17.433591 11.287109 17.416013 11.320313 17.40625 11.34375 C 17.396482 11.367188 17.390622 11.363281 17.375 11.375 C 17.361326 11.384766 17.330076 11.40625 17.3125 11.40625 L 15.40625 11.40625 C 15.341796 11.40625 15.294921 11.380859 15.25 11.34375 C 15.207031 11.304688 15.1875 11.242188 15.1875 11.15625 L 15.1875 7.84375 C 15.1875 7.7578161 15.207031 7.6933631 15.25 7.65625 C 15.294921 7.6171913 15.341796 7.5937538 15.40625 7.59375 z M 12.75 8.1875 L 12.75 9.5 L 13.09375 9.5 C 13.216795 9.5000019 13.324217 9.4707051 13.40625 9.4375 C 13.490232 9.4042989 13.572264 9.3710958 13.625 9.3125 C 13.677732 9.2519553 13.722654 9.1757835 13.75 9.09375 C 13.777342 9.009768 13.781248 8.9101587 13.78125 8.8125 C 13.781248 8.6796902 13.765623 8.5546903 13.71875 8.46875 C 13.671873 8.3828155 13.599607 8.3222687 13.53125 8.28125 C 13.462889 8.2402375 13.38867 8.2285188 13.3125 8.21875 C 13.23828 8.2070344 13.173827 8.1875032 13.09375 8.1875 L 12.75 8.1875 z "
       transform="translate(0,1004.3622)"
       id="rect3551" />
  </g>
</svg>
