<?xml version="1.0" encoding="UTF-8" standalone="no"?>
<!-- Created with Inkscape (http://www.inkscape.org/) -->

<svg
   xmlns:dc="http://purl.org/dc/elements/1.1/"
   xmlns:cc="http://creativecommons.org/ns#"
   xmlns:rdf="http://www.w3.org/1999/02/22-rdf-syntax-ns#"
   xmlns:svg="http://www.w3.org/2000/svg"
   xmlns="http://www.w3.org/2000/svg"
   xmlns:xlink="http://www.w3.org/1999/xlink"
   xmlns:sodipodi="http://sodipodi.sourceforge.net/DTD/sodipodi-0.dtd"
   xmlns:inkscape="http://www.inkscape.org/namespaces/inkscape"
   width="48"
   height="48"
   id="svg2"
   version="1.1"
   inkscape:version="0.48.5 r10040"
   sodipodi:docname="pl.svg"
   inkscape:export-filename="/home/andrea/Documenti/MeliaeSVG/48/mimetypes/png/impress.png"
   inkscape:export-xdpi="240"
   inkscape:export-ydpi="240">
  <defs
     id="defs4">
    <linearGradient
       id="linearGradient4203">
      <stop
         style="stop-color:#f0f0f0;stop-opacity:1;"
         offset="0"
         id="stop4205" />
      <stop
         style="stop-color:#ffffff;stop-opacity:1;"
         offset="1"
         id="stop4207" />
    </linearGradient>
    <linearGradient
       inkscape:collect="always"
       xlink:href="#linearGradient4203"
       id="linearGradient4209"
       x1="31.687183"
       y1="1045.266"
       x2="15.481234"
       y2="1013.3396"
       gradientUnits="userSpaceOnUse" />
  </defs>
  <sodipodi:namedview
     id="base"
     pagecolor="#ffffff"
     bordercolor="#666666"
     borderopacity="1.0"
     inkscape:pageopacity="0.0"
     inkscape:pageshadow="2"
     inkscape:zoom="5.6568543"
     inkscape:cx="28.321546"
     inkscape:cy="31.567566"
     inkscape:document-units="px"
     inkscape:current-layer="layer1"
     showgrid="false"
     inkscape:window-width="831"
     inkscape:window-height="817"
     inkscape:window-x="72"
     inkscape:window-y="196"
     inkscape:window-maximized="0"
     inkscape:snap-to-guides="true"
     inkscape:snap-grids="true" />
  <metadata
     id="metadata7">
    <rdf:RDF>
      <cc:Work
         rdf:about="">
        <dc:format>image/svg+xml</dc:format>
        <dc:type
           rdf:resource="http://purl.org/dc/dcmitype/StillImage" />
        <dc:title />
      </cc:Work>
    </rdf:RDF>
  </metadata>
  <g
     inkscape:label="Livello 1"
     inkscape:groupmode="layer"
     id="layer1"
     transform="translate(0,-1004.3622)">
    <rect
       ry="1.0238096"
       rx="1.03125"
       y="1006.8622"
       x="7.5"
       height="43"
       width="33"
       id="rect4211"
       style="fill:#646464;fill-opacity:0.47058824;stroke:none" />
    <rect
       style="fill:url(#linearGradient4209);fill-opacity:1;stroke:none"
       id="rect3429"
       width="32"
       height="42"
       x="8"
       y="1007.3622"
       rx="1"
       ry="1" />
    <g
       transform="matrix(0.2195592,0,0,0.19197539,-53.395603,934.3769)"
       id="layer1-0">
      <g
         id="text2985"
         style="font-size:131.84837341px;font-style:normal;font-weight:normal;line-height:125%;letter-spacing:0px;word-spacing:0px;fill:#000000;fill-opacity:1;stroke:none;font-family:Sans">
        <path
           inkscape:connector-curvature="0"
           d="m 407.1836,483.69401 c -1.3e-4,11.50244 -0.72976,19.61419 -2.18889,24.3353 -0.94435,3.00438 -1.8242,4.50655 -2.63954,4.50653 -0.30056,2e-5 -0.55808,-0.0429 -0.77255,-0.12875 -0.34348,-0.72961 -0.90143,-1.75968 -1.67386,-3.0902 -0.086,0.1717 -0.12888,0.42922 -0.12876,0.77255 -1.2e-4,3.09021 0.19302,5.30056 0.57941,6.63105 1.41622,4.93573 2.12439,7.98301 2.12451,9.14183 -1.2e-4,0.38628 -0.53661,1.82407 -1.60947,4.3134 -1.11603,2.661 -1.78128,4.48507 -1.99576,5.47222 -0.25763,3.43354 -0.79412,8.5624 -1.60947,15.3866 -0.12888,0.72961 -0.45077,1.24464 -0.96569,1.5451 l -9.07745,0 c -0.38638,-2e-5 -0.92287,0.12873 -1.60948,0.38627 -0.68681,0.2575 -1.2233,0.38625 -1.60947,0.38628 -0.6439,-3e-5 -1.13747,-0.0215 -1.48072,-0.0644 -0.17178,-0.72965 -0.55806,-1.78118 -1.15883,-3.15458 -0.12886,-0.17169 -0.57951,-0.60089 -1.35196,-1.28758 -0.34345,-0.30045 -0.51513,-1.05154 -0.51503,-2.25327 -10e-5,-1.15884 0.55785,-2.03868 1.67386,-2.63954 1.02996,-0.47213 2.03856,-0.94424 3.02581,-1.41634 0.94413,-0.6438 2.4463,-3.86275 4.50654,-9.65686 2.0171,-5.62244 3.02571,-9.18475 3.02582,-10.68693 -1.1e-4,-5.45075 -0.7512,-9.35641 -2.25327,-11.717 -1.03017,-1.33048 -2.06024,-2.66098 -3.0902,-3.9915 -0.72973,-1.11588 -1.09455,-2.83265 -1.09444,-5.15033 -1.1e-4,-0.90127 0.0428,-2.23177 0.12876,-3.9915 0.12865,-1.80258 0.19303,-3.13308 0.19313,-3.9915 l -0.38627,-0.38628 c -5.32211,5.66539 -10.8587,9.03456 -16.60981,10.10752 -2.27481,0.42922 -3.58385,0.64382 -3.92712,0.64379 -1.41642,3e-5 -2.98298,-0.57938 -4.69967,-1.73824 -2.66108,-1.8455 -4.09888,-2.81118 -4.3134,-2.89705 l -0.12876,0.12875 c -8e-5,1.71681 0.96561,4.65678 2.89706,8.81994 1.97421,4.12028 2.96136,7.08171 2.96144,8.88431 -8e-5,0.98716 -0.2576,2.33912 -0.77255,4.05589 -0.64387,2.06013 -1.00869,3.43355 -1.09445,4.12026 -0.21467,1.50218 -0.32197,3.62669 -0.32189,6.37353 -8e-5,4.59237 0.68663,9.37787 2.06013,14.35653 0.42911,1.54509 0.64371,2.87559 0.64379,3.99151 -8e-5,0.85837 -0.60095,1.78113 -1.80262,2.7683 l -13.06895,0 c -0.25758,-0.30046 -0.57948,-0.81549 -0.96569,-1.5451 -0.043,-0.47213 -0.17174,-1.1803 -0.38627,-2.12451 -1.97436,-0.94424 -2.9615,-2.44642 -2.96144,-4.50654 -6e-5,-0.34336 0.47205,-0.98715 1.41634,-1.93137 0.60081,-0.38628 1.43774,-0.98716 2.51078,-1.80261 0.90125,-0.8584 1.3519,-2.55371 1.35197,-5.08595 -7e-5,-2.83268 -0.25759,-5.34347 -0.77255,-7.53235 -0.7297,-2.36057 -1.43787,-4.72113 -2.12451,-7.0817 -0.0859,-0.30043 -0.12883,-0.6867 -0.12876,-1.15883 -7e-5,-0.81545 0.12869,-2.0172 0.38627,-3.60523 0.30037,-1.63092 0.45059,-2.85412 0.45066,-3.66961 -7e-5,-1.63091 -0.49364,-4.18461 -1.48072,-7.66111 -0.043,-1.45923 -0.64386,-3.64812 -1.80262,-6.56666 -2.27478,-2.91849 -3.8628,-4.37774 -4.76405,-4.37778 -0.12881,4e-5 -0.90136,0.30047 -2.31765,0.90131 -1.41639,0.55798 -2.44645,0.83696 -3.09019,0.83692 -1.28764,4e-5 -2.91857,-0.3004 -4.89281,-0.9013 -0.558,-0.0429 -1.37347,-0.1931 -2.44641,-0.45066 -2.44645,-0.98711 -4.95723,-2.61804 -7.53235,-4.89281 -1.0301,-1.24462 -2.5752,-3.09015 -4.6353,-5.5366 -0.94425,0.64384 -1.39491,0.96573 -1.35196,0.96569 -0.68674,4e-5 -1.22323,-0.81542 -1.60948,-2.44641 -0.3863,0.60092 -0.75111,1.41639 -1.09444,2.44641 l -1.41634,0 c -0.30046,-1.4163 -0.77257,-2.78972 -1.41634,-4.12026 -0.25754,0.3434 -0.64381,0.81551 -1.15882,1.41634 l -0.83693,0 c -0.98717,-1.50213 -1.48074,-3.62664 -1.48072,-6.37353 -2e-5,-3.30474 0.55793,-6.90996 1.67386,-10.81569 -0.64382,-0.47205 -2.29621,-1.37335 -4.95719,-2.70392 -2.78978,-1.37335 -4.44217,-2.06006 -4.95719,-2.06013 -0.42921,7e-5 -1.03008,0.12882 -1.80262,0.38627 -0.77256,0.21467 -1.37343,0.32197 -1.80261,0.3219 -1.073,7e-5 -1.67387,-0.51497 -1.80262,-1.5451 0,0.12883 0,-0.77248 0,-2.70392 0,-0.90124 -0.38628,-1.88838 -1.15882,-2.96144 -0.72964,-1.07291 -1.09445,-2.01713 -1.09445,-2.83268 0,-1.63086 0.83693,-4.03434 2.51079,-7.21046 1.88844,-3.56222 6.07308,-5.34337 12.55392,-5.34346 0.77253,9e-5 1.86697,0.0215 3.28333,0.0644 1.41632,0.043 2.44638,0.0645 3.0902,0.0644 2.01718,10e-5 3.56228,-0.60077 4.6353,-1.80261 1.11587,-1.24457 2.31761,-1.8669 3.60522,-1.86699 1.45923,9e-5 2.18886,1.52373 2.18889,4.57091 -3e-5,0.60096 -0.15025,1.48081 -0.45065,2.63954 -0.25755,1.116 -0.38631,1.95292 -0.38627,2.51079 -4e-5,2.31773 1.03002,6.18047 3.09019,11.58823 0.60083,2.18897 1.2017,4.39931 1.80262,6.63105 1.03002,2.87566 2.46782,4.31346 4.31339,4.3134 2.96139,6e-5 5.12882,-0.57935 6.50229,-1.73824 0.38622,-0.34329 0.8798,-1.37335 1.48072,-3.09019 0.94417,-2.70385 2.01716,-4.97858 3.21896,-6.82419 1.75963,-2.66092 3.41203,-3.99142 4.95719,-3.9915 l 9.46372,0 c 1.7167,-1.37334 3.34764,-3.58369 4.89281,-6.63105 2.57509,-4.93563 3.86267,-7.42496 3.86275,-7.46797 0.60079,-0.94413 1.75961,-1.95274 3.47647,-3.02582 1.71669,-1.1158 3.11157,-1.67375 4.18464,-1.67385 l 5.60098,0 c 1.28749,1e-4 3.412,1.65249 6.37353,4.95719 0.94413,4.4637 2.8755,8.7771 5.79412,12.94019 0.0428,0.043 0.75098,0.62241 2.12451,1.73824 1.50207,0.77263 3.77679,1.99583 6.82418,3.66961 2.70381,1.58809 4.65664,3.02589 5.8585,4.3134 0.47199,0.5151 1.1587,1.93144 2.06013,4.24902 0.98702,1.80267 2.08147,4.65681 3.28333,8.56241 0.25739,2.36063 0.38615,5.92293 0.38628,10.68693 m -3.21896,2.7683 c -1.2e-4,-3.6481 -0.15034,-6.58807 -0.45065,-8.81993 -0.55807,-4.29188 -1.1804,-7.25332 -1.86699,-8.88432 -1.07311,-2.74677 -3.00448,-5.04296 -5.79412,-6.88856 -0.51515,-0.42912 -1.35208,-1.02999 -2.51079,-1.80261 -0.94433,-0.34329 -2.31775,-0.96562 -4.12026,-1.867 -3.43365,-2.10297 -5.9659,-5.10733 -7.59673,-9.01307 -2.83278,-6.6095 -4.39933,-10.15034 -4.69967,-10.62255 -2.01731,-0.81537 -4.78561,-1.22311 -8.30491,-1.2232 -2.01729,9e-5 -4.09888,1.67395 -6.24477,5.02157 -1.3735,2.57525 -2.76838,5.15041 -4.18464,7.72549 -1.03014,1.84561 -2.01729,3.09027 -2.96144,3.73399 -0.9443,0.64386 -2.42501,0.96576 -4.44215,0.96568 -0.55803,8e-5 -1.37349,-0.0428 -2.44641,-0.12876 -1.07305,-0.0858 -1.88852,-0.12868 -2.4464,-0.12875 -1.88852,7e-5 -3.3907,0.70824 -4.50654,2.12451 -0.42925,0.55802 -1.26618,2.10312 -2.51079,4.63529 -0.42925,0.7297 -1.05158,1.8456 -1.86699,3.34771 -0.0859,0.77262 -0.36487,1.82414 -0.83693,3.15458 -0.38633,0.64385 -1.15887,1.11596 -2.31764,1.41634 -0.90136,0.17174 -1.80267,0.36487 -2.70393,0.57941 -2.40353,0.77261 -3.64819,1.15888 -3.73398,1.15882 -2.48937,6e-5 -4.31344,-1.03 -5.47223,-3.09019 -0.25755,-0.38621 -0.98718,-2.42488 -2.18888,-6.11602 -0.55799,-1.11583 -1.2447,-2.8326 -2.06014,-5.15032 -0.12879,-0.55788 -0.66528,-3.92705 -1.60947,-10.10752 l -1.03007,0.90131 c -0.21463,0.043 -0.62236,0.1503 -1.2232,0.32189 -0.55799,0.17176 -1.00864,0.2576 -1.35196,0.25752 -0.34339,8e-5 -0.57944,-0.12868 -0.70817,-0.38628 l 0,-0.70817 c 1.03003,-0.90122 2.03864,-1.80252 3.02582,-2.70392 0.77251,-0.90122 1.15878,-2.21026 1.15882,-3.92712 -4e-5,-0.98706 -0.10733,-1.7596 -0.3219,-2.31765 -1.37345,1.15892 -3.69109,2.53234 -6.95294,4.12026 -1.20177,0.25761 -3.94861,0.38637 -8.24052,0.38628 -4.54947,9e-5 -7.51091,0.96577 -8.88432,2.89706 -1.50218,2.10313 -2.25327,3.58385 -2.25326,4.44215 -1e-5,0.64387 0.51502,1.50226 1.54509,2.57517 0.55795,-0.12868 1.33049,-0.3862 2.31765,-0.77255 1.15881,-1.33042 2.78975,-2.70384 4.89281,-4.12026 l 0.25752,0.19313 0,1.41634 c -2e-5,0.77263 -1.13738,1.99583 -3.41209,3.66961 -2.48934,1.80269 -3.86276,2.96151 -4.12026,3.47647 l 1.35196,0.3219 c 0.72961,-0.8154 1.24465,-1.22313 1.54509,-1.2232 1.03006,7e-5 1.95282,0.34343 2.76831,1.03006 1.11588,0.9443 1.84551,1.48079 2.18888,1.60948 3.69105,1.54517 7.36066,2.31772 11.00883,2.31764 1.37339,8e-5 2.36053,-0.4935 2.96144,-1.48071 0.60084,-1.03 0.96565,-1.54503 1.09444,-1.5451 0.0858,7e-5 0.34332,0.0644 0.77255,0.19314 l 0,1.35196 c -3e-5,1.20181 -0.62236,2.23187 -1.86699,3.09019 -1.20178,0.81554 -2.48936,1.22327 -3.86275,1.2232 -0.51506,7e-5 -0.96571,-0.0643 -1.35196,-0.19313 0.0429,0.12882 0.0643,0.3005 0.0644,0.51503 -3e-5,0.42926 -0.1717,0.96575 -0.51503,1.60948 -0.3863,0.81553 -0.62236,1.35202 -0.70817,1.60947 -0.25754,2.27479 -0.64382,5.66542 -1.15883,10.1719 l 0.38628,0.25752 c 0.42917,-0.72958 1.09442,-1.80256 1.99575,-3.21896 0.0858,0.55801 0.17165,2.61814 0.25752,6.1804 l -0.3219,0.38627 1.41634,0 c -3e-5,-0.0858 -0.0215,-0.19309 -0.0644,-0.3219 -3e-5,-0.51498 0.32187,-1.20169 0.96569,-2.06013 0.3004,0.60093 0.79398,1.50223 1.48072,2.70393 0.25748,-0.7725 0.81543,-1.84549 1.67385,-3.21896 0.0858,0.51509 0.32187,1.24472 0.70817,2.18889 1.8455,3.00441 4.37774,5.6654 7.59674,7.98301 3.60518,2.53228 6.99581,3.7984 10.17189,3.79836 2.40343,4e-5 3.94853,-0.34331 4.6353,-1.03006 -0.30049,-0.81543 -0.68677,-2.06009 -1.15883,-3.73399 -0.21465,-1.2017 -0.32195,-2.87555 -0.32189,-5.02157 -6e-5,-3.04722 0.25746,-5.10735 0.77255,-6.18039 0.30038,-0.64374 0.85833,-0.94417 1.67385,-0.90131 l 0.25752,0.19314 c -6e-5,4.46367 0.25746,8.02597 0.77255,10.68693 0.47205,2.36061 2.27467,5.32204 5.40784,8.88431 0.47205,0.42923 1.07292,1.1374 1.80262,2.12451 0.90124,1.84557 2.18882,5.21474 3.86274,10.10752 1.88838,5.32202 2.83261,8.60535 2.83268,9.85 -7e-5,0.47213 -0.0859,1.15884 -0.25752,2.06013 -0.17174,0.90132 -0.25758,1.58803 -0.25751,2.06013 -7e-5,0.6438 0.23598,1.22321 0.70817,1.73824 0.47204,0.47212 0.94415,0.94423 1.41634,1.41634 0.55788,0.72963 0.83685,3.39063 0.83693,7.983 -8e-5,9.01307 -0.64387,14.01317 -1.93138,15.00033 -0.12883,0.0858 -0.85846,0.34334 -2.18889,0.77255 -0.85845,0.30042 -1.35202,0.92275 -1.48072,1.86699 l 10.23628,0 c -1.80269,-7.89718 -2.704,-12.68268 -2.70392,-14.35653 -8e-5,-1.84554 0.2789,-4.57092 0.83693,-8.17615 0.60079,-3.60522 0.90123,-6.3306 0.9013,-8.17614 -7e-5,-2.10304 -0.70824,-4.76404 -2.12451,-7.98301 -1.67393,-3.8198 -2.66107,-6.43788 -2.96143,-7.85425 -1.03014,-5.10737 -1.54517,-9.24909 -1.5451,-12.42516 -7e-5,-0.25748 0.0214,-0.60083 0.0644,-1.03007 0.0428,-0.47207 0.0643,-0.83688 0.0644,-1.09444 -7e-5,-1.54506 -0.23613,-3.81978 -0.70817,-6.82418 -0.42927,-3.04723 -0.64386,-5.34341 -0.6438,-6.88857 l 0,-0.45065 0.57942,0 c 0.77248,0.7726 1.24459,1.67391 1.41634,2.70392 0.1716,1.03012 0.34328,2.06018 0.51503,3.0902 0.0858,0.30048 0.3862,1.26617 0.90131,2.89706 0.51496,1.41638 0.77247,2.25331 0.77255,2.51078 l 0,8.3049 c 4.93565,3.47651 8.34774,5.21474 10.23627,5.21471 8.54087,3e-5 15.08607,-3.86271 19.63562,-11.58824 0.42909,-0.51499 0.94413,-1.33045 1.5451,-2.4464 0.38617,-1.11586 0.57931,-3.00431 0.57941,-5.66536 -1e-4,-0.7725 -0.27908,-1.90986 -0.83693,-3.41209 -0.55805,-1.50213 -0.83703,-2.63949 -0.83692,-3.4121 -1.1e-4,-0.55789 0.34325,-0.83686 1.03006,-0.83692 0.81537,6e-5 1.56645,1.75975 2.25327,5.27908 0.55784,2.83273 0.83682,5.02162 0.83693,6.56667 l 0,20.08627 c 2.48921,2.44643 4.16307,5.9229 5.02157,10.42942 0.472,3.94859 0.94411,7.87571 1.41634,11.78137 0.30032,2.23181 0.45054,3.77691 0.45065,4.63529 -1.1e-4,6.6525 -1.82419,11.67407 -5.47222,15.06471 -1.54521,0.94421 -3.6268,2.61807 -6.24477,5.02157 2.27462,-0.60089 4.33475,-0.90133 6.18039,-0.90131 2.70381,-2e-5 4.20599,-0.10731 4.50654,-0.32189 0.0428,-2.44642 0.42908,-6.00873 1.15882,-10.68693 0.77243,-5.23617 1.54498,-8.60534 2.31765,-10.10752 0.0857,-0.12875 0.49345,-0.72962 1.2232,-1.80261 0.64367,-0.94422 0.96557,-1.50218 0.96568,-1.67386 -1.1e-4,0.30044 -0.47223,-0.42919 -1.41634,-2.18889 -1.24477,-2.31763 -1.8671,-6.88855 -1.86699,-13.71274 -1.1e-4,-1.07297 0.34324,-3.06872 1.03007,-5.98726 0.90119,-3.90563 1.3733,-6.03014 1.41634,-6.37353 0.30031,-2.44637 0.92264,-6.05159 1.86699,-10.81569 0.17156,-0.5579 0.42907,-1.00856 0.77255,-1.35196 0.25739,0.81552 0.38615,1.86704 0.38627,3.15458 -1.2e-4,3.47651 -0.19325,6.52378 -0.57941,9.14183 -0.77267,5.23619 -1.15894,7.5753 -1.15882,7.01732 -1.2e-4,1.41637 0.38615,2.51081 1.15882,3.28333 1.3733,-5.36489 2.06001,-12.21053 2.06013,-20.53693 m -89.22941,-45.70915 c -4e-5,1.93146 -0.64383,2.94007 -1.93138,3.02582 -0.21462,-0.17159 -0.32192,-0.40765 -0.32189,-0.70817 -3e-5,-0.42911 0.6223,-1.56647 1.86699,-3.41209 0.0429,0.043 0.0858,0.0859 0.12876,0.12875 0.17164,0.25761 0.25748,0.57951 0.25752,0.96569 m -7.4036,6.11601 c -2e-5,0.81556 -0.32192,1.78124 -0.96569,2.89706 -0.72965,1.24475 -1.45928,1.86708 -2.18888,1.867 -0.94425,8e-5 -1.75972,-0.53642 -2.44641,-1.60948 -0.64381,-0.94415 -0.96571,-1.90983 -0.96569,-2.89706 -2e-5,-0.42911 0.17166,-0.92268 0.51504,-1.48072 1.71675,-0.38619 3.24039,-0.57932 4.57091,-0.57941 l 1.48072,0 0,1.80261 m -14.1634,-0.45065 c -1e-5,0.12884 -0.40774,1.20183 -1.2232,3.21896 l -1.41634,0 c -10e-6,-0.21452 -0.0858,-0.40766 -0.25752,-0.57942 0.98714,-1.33041 1.93136,-2.42486 2.83268,-3.28333 0.0429,0.17176 0.0644,0.38636 0.0644,0.64379 m 10.04314,1.48072 0,-1.35196 -1.15882,0 0,1.35196 1.15882,0"
           id="path2990" />
      </g>
    </g>
    <path
       style="fill:#2c89a0;fill-opacity:0.60507244"
       d="m 23.480576,35.281825 c 0.0607,-0.09821 0.218296,-0.178571 0.350213,-0.178571 0.390104,0 0.63193,-1.020024 0.63193,-2.665486 0,-1.008733 -0.08398,-1.662389 -0.243216,-1.892996 -0.133769,-0.193728 -0.282162,-0.754018 -0.329762,-1.24509 -0.117225,-1.209373 -1.095188,-3.479934 -1.982166,-4.602045 -0.847844,-1.072603 -1.17611,-1.886368 -1.187018,-2.942598 -0.0043,-0.41741 -0.08537,-0.758928 -0.180127,-0.758928 -0.383183,0 -0.583711,0.801967 -0.498459,1.993477 l 0.08735,1.220808 -0.757029,0 c -1.064589,0 -2.323989,-0.611696 -3.329396,-1.617103 -0.472647,-0.472648 -0.908161,-0.780396 -0.967807,-0.683885 -0.0695,0.112454 -0.1927,0.105551 -0.343043,-0.01922 -0.172203,-0.142916 -0.259209,-0.133349 -0.327148,0.03597 -0.0509,0.126868 -0.0989,-0.03909 -0.106651,-0.368794 -0.01118,-0.475639 -0.07368,-0.576597 -0.302576,-0.488763 -0.250167,0.096 -0.271975,6.43e-4 -0.164207,-0.718011 0.163925,-1.093124 0.261442,-1.318764 0.569944,-1.318764 0.514367,0 1.311313,-0.545418 1.311313,-0.897443 0,-0.425729 -0.228969,-0.454305 -0.549132,-0.06853 -0.299099,0.360393 -1.845005,0.206223 -3.000353,-0.29922 -0.429896,-0.188071 -0.911084,-0.341947 -1.069307,-0.341947 -0.169316,0 -0.01303,-0.195414 0.379842,-0.474948 0.369968,-0.263236 0.667521,-0.626133 0.667521,-0.814111 0,-0.361339 -0.08523,-0.336 -0.924609,0.274871 -0.263,0.191403 -0.604518,0.299526 -0.758929,0.240273 -0.395899,-0.151921 -0.350884,-0.460991 0.0518,-0.355685 0.229181,0.05993 0.362752,-0.02853 0.429711,-0.284575 0.05518,-0.211006 0.0118,-0.371539 -0.100409,-0.371539 -0.13539,0 -0.130314,-0.06725 0.01613,-0.213698 0.117534,-0.117534 1.037623,-0.305534 2.044643,-0.417778 1.00702,-0.112244 1.965707,-0.263499 2.130416,-0.336122 0.239234,-0.105482 0.279943,-0.05737 0.202387,0.239207 -0.06303,0.241036 -0.01149,0.373152 0.146958,0.376678 0.164172,0.0037 0.141767,0.065 -0.06846,0.187445 -0.470448,0.274011 -0.376054,0.521411 0.198942,0.521411 0.46798,0 0.520468,0.06585 0.617647,0.774845 0.137093,1.000201 0.965629,2.974938 1.416855,3.37694 0.407907,0.363409 0.686536,0.381422 1.894069,0.122453 0.831609,-0.178349 0.916237,-0.24949 1.374696,-1.155617 0.767304,-1.51655 0.995163,-1.69005 2.21956,-1.69005 1.375255,0 1.80727,-0.216628 2.432236,-1.21961 0.870301,-1.396711 1.660156,-2.173247 2.210524,-2.173247 1.373196,0 1.590498,0.150326 2.322854,1.606909 0.769387,1.530236 1.258919,2.021958 2.728994,2.741198 1.299529,0.6358 2.005043,1.453273 2.253307,2.61089 0.217134,1.012465 0.230031,4.255132 0.02026,5.094574 -0.07363,0.294643 -0.09406,-0.308035 -0.0454,-1.339285 0.114213,-2.420633 -0.130816,-2.221068 -0.767385,0.625 -0.508711,2.274422 -0.548333,4.274469 -0.09905,5 0.182548,0.294792 0.161566,0.489559 -0.120192,1.115621 l -0.34135,0.758479 -0.232344,-1.823182 c -0.237788,-1.865889 -0.502206,-2.725138 -1.09572,-3.560627 -0.288737,-0.406455 -0.336716,-0.808031 -0.336716,-2.818236 0,-1.64311 -0.07739,-2.529454 -0.258745,-2.963505 -0.430433,-1.030171 -0.641053,-0.757677 -0.522025,0.675378 l 0.107533,1.294643 -0.741256,0.838295 c -0.891769,1.008514 -2.353528,1.751709 -3.44052,1.749246 -0.438544,-9.93e-4 -1.173536,-0.189623 -1.707487,-0.438213 -0.937095,-0.43628 -0.9375,-0.436834 -0.9375,-1.28022 0,-1.15662 -0.549457,-2.922679 -0.909304,-2.922679 -0.136292,0 -0.167393,0.248577 -0.09495,0.758928 0.05925,0.417411 0.186821,1.622272 0.283499,2.67747 0.135533,1.479295 0.302605,2.215198 0.72974,3.214285 0.619822,1.449793 0.643997,1.669527 0.447073,4.063602 -0.107453,1.306352 -0.07718,1.932529 0.13168,2.723215 l 0.271219,1.026785 -0.97573,0 c -0.605014,0 -0.933798,-0.06785 -0.865366,-0.178571 z M 13.920722,16.364993 c 0.361591,-0.67564 0.232426,-0.904597 -0.510326,-0.904597 -0.799096,0 -1.016979,0.306317 -0.620509,0.872357 0.330451,0.471784 0.887105,0.487654 1.130835,0.03224 z"
       id="path3708"
       inkscape:connector-curvature="0"
       transform="translate(0,1004.3622)" />
    <path
       style="fill:#2c89a0;fill-opacity:0.60507244"
       d="m 32.009073,35.008535 c 0.365736,-0.248524 0.829977,-0.750756 1.031648,-1.116071 l 0.366674,-0.66421 -0.108966,0.97879 c -0.12415,1.115184 -0.255007,1.246818 -1.243234,1.250618 l -0.711095,0.0027 0.664973,-0.451861 z"
       id="path3710"
       inkscape:connector-curvature="0"
       transform="translate(0,1004.3622)" />
    <path
       style="fill:#2c89a0;fill-opacity:0.60507244"
       d="m 23.974143,30.317773 c -0.222239,-0.216985 -0.236474,-0.282686 -0.157805,-0.728352 l 0.06046,-0.342505 0.02303,0.205188 c 0.02871,0.255772 0.16133,0.792479 0.227398,0.920241 0.02724,0.05268 0.04413,0.101182 0.03752,0.107787 -0.0066,0.0066 -0.09237,-0.06646 -0.190599,-0.162359 z"
       id="path3712"
       inkscape:connector-curvature="0"
       transform="translate(0,1004.3622)" />
    <path
       style="fill:#2c89a0;fill-opacity:0.60507244"
       d="m 25.017274,30.241285 c 0.01275,-0.698801 0.0065,-0.883309 -0.03809,-1.120638 -0.06342,-0.337722 -0.209594,-0.788122 -0.413596,-1.27441 -0.08172,-0.194807 -0.141751,-0.361032 -0.133395,-0.369388 0.0084,-0.0084 0.122648,0.216027 0.253981,0.49863 0.451886,0.972368 0.515656,1.216655 0.483946,1.85388 -0.01171,0.235241 -0.05432,0.612379 -0.0947,0.838084 l -0.07342,0.410375 0.01526,-0.836533 z"
       id="path3714"
       inkscape:connector-curvature="0"
       transform="translate(0,1004.3622)" />
    <path
       style="fill:#2c89a0;fill-opacity:0.60507244"
       d="m 32.427217,35.450192 c 0.517446,-0.04541 0.713483,-0.230703 0.818566,-0.773706 0.02998,-0.154906 0.171386,-1.419401 0.160005,-1.430783 -0.0058,-0.0058 -0.04963,0.05811 -0.09747,0.141939 -0.200312,0.351014 -0.233673,0.402984 -0.233957,0.364453 -1.64e-4,-0.02228 0.03504,-0.110247 0.07823,-0.195482 0.112631,-0.222267 0.226686,-0.639121 0.287265,-1.049911 0.0739,-0.501093 0.04711,-0.929009 -0.14281,-2.2812 -0.152511,-1.085862 -0.17484,-1.273819 -0.147822,-1.244277 0.02847,0.03112 0.186834,1.075689 0.320062,2.111052 0.07922,0.615623 0.150378,1.125662 0.158136,1.13342 0.0078,0.0078 0.04897,-0.06267 0.09158,-0.156512 0.08883,-0.195638 0.101544,-0.177105 0.03316,0.04834 -0.133124,0.438851 -0.422576,2.148127 -0.48942,2.890131 -0.01954,0.216865 -0.04275,0.401533 -0.05159,0.410374 -0.02318,0.02318 -0.522676,0.05823 -0.799995,0.05614 l -0.236754,-0.0018 0.252819,-0.02219 0,-10e-7 z"
       id="path3716"
       inkscape:connector-curvature="0"
       transform="translate(0,1004.3622)" />
    <path
       style="fill:#2c89a0;fill-opacity:0.60507244"
       d=""
       id="path3718"
       inkscape:connector-curvature="0"
       transform="translate(0,1004.3622)" />
    <path
       style="fill:#2c89a0;fill-opacity:0.60507244"
       d="m 31.037976,35.585282 c 0.09011,-0.08709 0.699243,-0.530281 0.947018,-0.689023 0.156258,-0.10011 0.323022,-0.217888 0.370586,-0.261728 0.04756,-0.04384 0.09435,-0.07184 0.103966,-0.06223 0.03214,0.03214 -0.363891,0.363527 -0.752763,0.629874 l -0.384701,0.26349 0.268322,0.01195 0.268321,0.01195 -0.284105,0.03973 c -0.156258,0.02185 -0.348029,0.05025 -0.426158,0.06311 -0.09163,0.01508 -0.130847,0.01256 -0.110486,-0.0071 z"
       id="path3720"
       inkscape:connector-curvature="0"
       transform="translate(0,1004.3622)" />
    <path
       style="fill:#2c89a0;fill-opacity:0.60507244"
       d="m 26.334454,25.711964 c -0.337566,-0.09114 -0.91407,-0.36294 -1.554688,-0.732976 l -0.355132,-0.205132 0.0052,-0.541389 0.0052,-0.54139 0.02051,0.426159 c 0.02385,0.495552 0.05469,0.577807 0.2779,0.741329 0.183025,0.134082 0.884981,0.455249 1.242192,0.568342 1.057874,0.334924 1.770348,0.271914 2.852617,-0.252279 0.747201,-0.361905 1.290656,-0.787163 1.934182,-1.513512 0.220988,-0.249429 0.406977,-0.448452 0.41331,-0.442274 0.03051,0.02976 -0.660346,0.89281 -0.918869,1.147894 -0.79667,0.786072 -1.750378,1.226593 -2.943852,1.359776 -0.385023,0.04296 -0.787742,0.03698 -0.978585,-0.01455 z"
       id="path3722"
       inkscape:connector-curvature="0"
       transform="translate(0,1004.3622)" />
    <path
       style="fill:#2c89a0;fill-opacity:0.60507244"
       d="m 31.297519,22.917679 c -0.02766,-0.07427 -0.125002,-1.421935 -0.112717,-1.560513 0.01036,-0.116817 0.01738,-0.105168 0.11807,0.195901 0.106698,0.319025 0.106994,0.321571 0.08799,0.755548 -0.01916,0.437518 -0.05941,0.700165 -0.09334,0.609064 z"
       id="path3724"
       inkscape:connector-curvature="0"
       transform="translate(0,1004.3622)" />
    <path
       style="fill:#2c89a0;fill-opacity:0.60507244"
       d="m 24.292565,22.821382 c -0.146571,-0.385733 -0.254719,-0.729036 -0.293489,-0.931646 -0.06626,-0.346259 -0.05807,-0.379253 0.03476,-0.140045 0.09175,0.236434 0.303316,1.035831 0.287048,1.084634 -0.006,0.01805 -0.01876,0.01222 -0.02832,-0.01294 z"
       id="path3726"
       inkscape:connector-curvature="0"
       transform="translate(0,1004.3622)" />
    <path
       style="fill:#2c89a0;fill-opacity:0.60507244"
       d=""
       id="path3728"
       inkscape:connector-curvature="0"
       transform="translate(0,1004.3622)" />
    <path
       style="fill:#2c89a0;fill-opacity:0.60507244"
       d=""
       id="path3730"
       inkscape:connector-curvature="0"
       transform="translate(0,1004.3622)" />
    <path
       style="fill:#2c89a0;fill-opacity:0.60507244"
       d="m 23.656069,23.446431 c -0.03041,-0.316856 -0.09011,-0.871692 -0.13266,-1.232968 -0.04255,-0.361276 -0.07538,-0.766126 -0.07295,-0.899667 0.0044,-0.240455 0.0047,-0.239454 0.0325,0.103551 0.01545,0.190494 0.07769,0.680576 0.138315,1.089071 0.114589,0.772096 0.173549,1.516116 0.120144,1.516116 -0.01652,0 -0.05493,-0.259246 -0.08535,-0.576103 z"
       id="path3732"
       inkscape:connector-curvature="0"
       transform="translate(0,1004.3622)" />
    <path
       style="fill:#2c89a0;fill-opacity:0.60507244"
       d="m 34.086531,31.267222 c -1.39e-4,-0.01736 0.02723,-0.109697 0.06082,-0.205188 0.09373,-0.266466 0.08225,-0.437118 -0.04662,-0.693026 C 33.962966,30.09544 33.87182,29.77014 33.850301,29.475221 l -0.01666,-0.228305 0.04445,0.229955 c 0.09344,0.483432 0.213272,0.781244 0.461752,1.147564 l 0.120715,0.177963 -0.09179,0.13771 c -0.119256,0.178913 -0.281912,0.367433 -0.282234,0.327114 z"
       id="path3734"
       inkscape:connector-curvature="0"
       transform="translate(0,1004.3622)" />
    <path
       style="fill:#2c89a0;fill-opacity:0.60507244"
       d=""
       id="path3736"
       inkscape:connector-curvature="0"
       transform="translate(0,1004.3622)" />
    <path
       style="fill:#2c89a0;fill-opacity:0.60507244"
       d="m 34.750403,27.209017 c -0.16425,-0.269106 -0.163816,-0.297394 0.02078,-1.355582 0.07118,-0.408007 0.134658,-0.784446 0.141071,-0.836532 0.0064,-0.05209 0.01095,0.177563 0.01008,0.510331 -0.0014,0.549604 0.01218,0.685983 0.06339,0.634772 0.04039,-0.04039 0.108818,-0.606726 0.143418,-1.18698 0.0419,-0.70275 0.02146,-2.581321 -0.0344,-3.162201 -0.09958,-1.035279 -0.259659,-1.529044 -0.689604,-2.127019 -0.356877,-0.496349 -0.87445,-0.895557 -1.763715,-1.360362 -0.263998,-0.137987 -0.47438,-0.256504 -0.467515,-0.263369 0.0069,-0.0069 0.176027,0.05296 0.375916,0.132935 0.199889,0.07998 0.370463,0.145416 0.379054,0.145416 0.01939,0 0.56821,0.342531 0.823887,0.514209 0.761956,0.511626 1.084963,1.045952 1.310513,2.167883 0.176262,0.876757 0.200212,1.170754 0.199391,2.447589 -9.85e-4,1.533654 -0.09348,2.513709 -0.327975,3.475256 -0.09326,0.382426 -0.103156,0.396578 -0.184287,0.263654 l 0,0 z"
       id="path3738"
       inkscape:connector-curvature="0"
       transform="translate(0,1004.3622)" />
    <path
       style="fill:#2c89a0;fill-opacity:0.60507244"
       d=""
       id="path3740"
       inkscape:connector-curvature="0"
       transform="translate(0,1004.3622)" />
    <path
       style="fill:#2c89a0;fill-opacity:0.60507244"
       d=""
       id="path3742"
       inkscape:connector-curvature="0"
       transform="translate(0,1004.3622)" />
    <path
       style="fill:#2c89a0;fill-opacity:0.60507244"
       d="m 32.181899,26.848021 -0.212688,-0.232058 0.0041,-0.436506 c 0.0039,-0.411662 0.0056,-0.423031 0.03029,-0.199753 0.0404,0.365136 0.116855,0.607773 0.269507,0.855367 0.07688,0.124691 0.13566,0.230828 0.130628,0.23586 -0.005,0.005 -0.104858,-0.09528 -0.221836,-0.22291 z"
       id="path3744"
       inkscape:connector-curvature="0"
       transform="translate(0,1004.3622)" />
    <path
       style="fill:#2c89a0;fill-opacity:0.60507244"
       d="M 21.731883,24.615928 C 20.886701,23.685779 20.722334,23.255926 20.684174,21.87596 l -0.01353,-0.489293 0.04329,0.52086 c 0.08737,1.05116 0.328275,1.643304 1.082505,2.660739 0.113105,0.152575 0.198402,0.284652 0.18955,0.293505 -0.0089,0.0089 -0.123201,-0.101777 -0.254106,-0.245843 l 0,0 z"
       id="path3746"
       inkscape:connector-curvature="0"
       transform="translate(0,1004.3622)" />
    <path
       style="fill:#2c89a0;fill-opacity:0.60507244"
       d="m 19.334412,24.348867 c 0.0217,-0.0088 0.05722,-0.0088 0.07892,0 0.0217,0.0088 0.0039,0.01592 -0.03946,0.01592 -0.0434,0 -0.06116,-0.0072 -0.03946,-0.01592 z"
       id="path3748"
       inkscape:connector-curvature="0"
       transform="translate(0,1004.3622)" />
    <path
       style="fill:#2c89a0;fill-opacity:0.60507244"
       d="m 18.740662,24.290993 c -0.712168,-0.14199 -1.553255,-0.565943 -2.273629,-1.146034 -0.376359,-0.303067 -0.994053,-0.966408 -0.854383,-0.91752 0.01814,0.0063 0.185499,0.153597 0.371911,0.327217 0.640602,0.596644 1.127702,0.949837 1.689083,1.22474 0.655345,0.320917 1.152843,0.432541 1.927799,0.432541 l 0.536271,0 -0.01951,-0.370915 -0.01951,-0.370915 0.106651,0.284105 c 0.166603,0.443808 0.164423,0.408905 0.02927,0.468682 -0.0654,0.02893 -0.195424,0.0667 -0.288944,0.08395 -0.235578,0.04345 -0.955039,0.03398 -1.205003,-0.01585 l 0,0 z"
       id="path3750"
       inkscape:connector-curvature="0"
       transform="translate(0,1004.3622)" />
    <path
       style="fill:#2c89a0;fill-opacity:0.60507244"
       d="m 15.040521,15.76758 c 0,-0.06347 0.08708,-0.155844 0.253294,-0.268722 0.195456,-0.132732 0.241965,-0.220094 0.117621,-0.220941 -0.03906,-2.65e-4 -0.09233,-0.01425 -0.118377,-0.03108 -0.03754,-0.02426 -0.03099,-0.03073 0.03157,-0.0312 0.12113,-9.23e-4 0.282844,-0.115905 0.33349,-0.237117 0.05792,-0.13863 0.0654,-0.424361 0.01363,-0.521088 l -0.03974,-0.07426 -0.06688,0.09002 c -0.03678,0.04951 -0.122037,0.169259 -0.189452,0.266104 l -0.122572,0.176081 0.01715,-0.113194 c 0.02673,-0.176374 -0.0088,-0.208211 -0.181135,-0.16213 -0.247101,0.06609 -0.224899,0.04435 0.151197,-0.148076 0.200642,-0.102654 0.429686,-0.231284 0.508986,-0.285844 0.131813,-0.09069 0.146184,-0.09431 0.167533,-0.04222 0.01284,0.03134 0.02276,0.206137 0.02203,0.388438 -0.0018,0.437894 -0.06244,0.568172 -0.393265,0.844238 -0.278848,0.232693 -0.505076,0.398861 -0.505076,0.370988 z"
       id="path3752"
       inkscape:connector-curvature="0"
       transform="translate(0,1004.3622)" />
    <path
       style="fill:#2c89a0;fill-opacity:0.60507244"
       d="m 16.148893,16.806295 c -0.03972,-0.223991 -0.08767,-0.461367 -0.106559,-0.527503 -0.03872,-0.13557 -0.182921,-0.274101 -0.28608,-0.274827 -0.127558,-8.99e-4 -0.161195,-0.05203 -0.04899,-0.07447 0.05699,-0.0114 0.136455,-0.05157 0.176584,-0.08927 0.04406,-0.04139 0.08366,-0.05683 0.09996,-0.03897 0.03309,0.03625 0.266769,1.323912 0.249603,1.37541 -0.0068,0.02029 -0.04479,-0.14638 -0.08451,-0.370372 z"
       id="path3754"
       inkscape:connector-curvature="0"
       transform="translate(0,1004.3622)" />
    <path
       style="fill:#2c89a0;fill-opacity:0.60507244"
       d="m 10.151893,16.364622 c -0.01044,-0.236998 0.453519,-0.897522 0.756306,-1.07672 0.355361,-0.210313 0.992685,-0.328118 1.742339,-0.322058 l 0.385461,0.0031 -0.599778,0.08788 c -0.978116,0.143319 -1.443152,0.253847 -1.605576,0.38161 -0.09237,0.07266 -0.109875,0.178962 -0.03425,0.207983 0.03689,0.01416 -0.0139,0.08329 -0.205187,0.279258 -0.139818,0.143244 -0.254214,0.274105 -0.254214,0.290802 0,0.0167 -0.03442,0.04604 -0.07649,0.06521 -0.04207,0.01917 -0.08275,0.06761 -0.0904,0.10766 -0.01102,0.05768 -0.01481,0.05253 -0.01821,-0.02474 z"
       id="path3756"
       inkscape:connector-curvature="0"
       transform="translate(0,1004.3622)" />
    <path
       style="fill:#2c89a0;fill-opacity:0.60507244"
       d="m 10.323328,16.687785 c -0.06193,-0.07558 -0.112599,-0.146175 -0.112599,-0.156885 0,-0.01071 0.05327,0.01702 0.118377,0.06163 0.102855,0.07047 0.14201,0.07903 0.298594,0.06529 0.112563,-0.0099 0.253754,-0.05256 0.376104,-0.113696 0.107738,-0.05384 0.200306,-0.09347 0.205707,-0.08807 0.0054,0.0054 -0.05316,0.06246 -0.130131,0.126804 -0.128428,0.107353 -0.454251,0.240879 -0.590324,0.241922 -0.02922,2.24e-4 -0.103799,-0.06143 -0.165728,-0.137005 z"
       id="path3758"
       inkscape:connector-curvature="0"
       transform="translate(0,1004.3622)" />
    <path
       style="fill:#2c89a0;fill-opacity:0.60507244"
       d="m 10.621103,17.62319 c -0.12002,-0.02153 -0.1341,-0.05362 -0.05566,-0.126863 0.09708,-0.09064 1.103841,-0.769894 1.118855,-0.754879 0.0066,0.0066 -0.09143,0.09423 -0.217827,0.194764 -0.32071,0.255089 -0.434993,0.366768 -0.434993,0.425083 0,0.04089 -0.292723,0.295166 -0.322745,0.280352 -0.0048,-0.0024 -0.04423,-0.01067 -0.08763,-0.01846 z"
       id="path3760"
       inkscape:connector-curvature="0"
       transform="translate(0,1004.3622)" />
    <path
       style="fill:#2c89a0;fill-opacity:0.60507244"
       d="m 14.188205,18.338522 c -0.913802,-0.05692 -1.917314,-0.321381 -2.311914,-0.609259 -0.04753,-0.03468 -0.08039,-0.06908 -0.07302,-0.07645 0.0074,-0.0074 0.195418,0.05821 0.417878,0.14573 0.802936,0.315904 1.449364,0.45524 2.12489,0.458014 0.498094,0.002 0.648612,-0.03269 0.822538,-0.189822 0.06846,-0.06185 0.12448,-0.09841 0.12448,-0.08124 0,0.01717 -0.06157,0.08797 -0.136817,0.157334 -0.213631,0.196918 -0.38672,0.231909 -0.968037,0.195696 z"
       id="path3762"
       inkscape:connector-curvature="0"
       transform="translate(0,1004.3622)" />
    <path
       style="fill:#2c89a0;fill-opacity:0.60507244"
       d="m 14.103985,19.094694 c 0.01112,-0.04157 0.02042,-0.102044 0.02065,-0.134399 3.78e-4,-0.05152 0.01753,-0.05626 0.138195,-0.03817 0.146777,0.02201 0.51479,-0.02347 0.660322,-0.08161 0.0483,-0.01929 0.09545,-0.02745 0.104772,-0.01813 0.02953,0.02953 -0.342194,0.154021 -0.555618,0.186073 -0.113624,0.01706 -0.246099,0.06004 -0.296868,0.09631 l -0.09168,0.0655 0.02022,-0.07557 z"
       id="path3764"
       inkscape:connector-curvature="0"
       transform="translate(0,1004.3622)" />
    <path
       style="fill:#2c89a0;fill-opacity:0.60507244"
       d="m 13.619539,21.489261 c -2.51e-4,-0.03907 0.05006,-0.468774 0.111805,-0.95491 0.09373,-0.737999 0.125998,-0.913782 0.195488,-1.065028 0.04577,-0.09963 0.08864,-0.175734 0.09525,-0.169121 0.0066,0.0066 -0.0099,0.08813 -0.03659,0.181144 -0.06924,0.240883 -0.2109,1.13622 -0.217533,1.374925 -0.0061,0.221277 0.0304,0.276465 0.162464,0.245339 0.08611,-0.0203 0.08569,-0.0193 -0.11172,0.261382 -0.147175,0.209258 -0.198421,0.241748 -0.199161,0.126269 l 0,0 z"
       id="path3766"
       inkscape:connector-curvature="0"
       transform="translate(0,1004.3622)" />
    <path
       style="fill:#2c89a0;fill-opacity:0.60507244"
       d="m 14.285399,21.731276 c 0.0015,-0.03677 0.009,-0.04425 0.01907,-0.01907 0.0091,0.02279 0.008,0.05002 -0.0025,0.0605 -0.01049,0.01049 -0.01795,-0.0082 -0.01658,-0.04143 z"
       id="path3768"
       inkscape:connector-curvature="0"
       transform="translate(0,1004.3622)" />
    <path
       style="fill:#2c89a0;fill-opacity:0.60507244"
       d="m 14.163428,21.757421 c -0.0049,-0.256001 -0.01713,-0.520421 -0.02709,-0.587601 -0.01397,-0.0943 -0.0083,-0.118946 0.02478,-0.108114 0.06794,0.02223 0.117759,0.210271 0.123742,0.467014 0.0092,0.393771 0.06943,0.540157 0.149767,0.363841 0.01998,-0.04386 0.05866,-0.07974 0.08596,-0.07974 0.03901,0 0.03245,0.02253 -0.03063,0.10523 -0.04414,0.05788 -0.08926,0.150211 -0.100254,0.205187 -0.01734,0.08669 -0.03308,0.09994 -0.118639,0.0998 l -0.09865,-1.62e-4 -0.009,-0.465456 z"
       id="path3770"
       inkscape:connector-curvature="0"
       transform="translate(0,1004.3622)" />
    <path
       style="fill:#2c89a0;fill-opacity:0.60507244"
       d="m 14.823748,22.103473 c -0.1224,-0.190744 -0.123147,-0.210106 -0.0058,-0.149406 0.11844,0.06125 0.156543,0.06054 0.228139,-0.0043 0.09403,-0.0851 0.08668,-0.0376 -0.02177,0.140643 l -0.101698,0.167142 -0.0989,-0.154122 z"
       id="path3772"
       inkscape:connector-curvature="0"
       transform="translate(0,1004.3622)" />
    <path
       style="fill:#2c89a0;fill-opacity:0.60507244"
       d="m 20.46255,19.716349 c 0.05772,-0.166098 0.10736,-0.330813 0.12277,-0.407366 0.02027,-0.100705 0.05255,-0.157822 0.334314,-0.591518 0.04985,-0.07673 0.117686,-0.187221 0.150748,-0.245536 0.230376,-0.40634 0.421639,-0.706274 0.516717,-0.810305 0.132585,-0.145069 0.365922,-0.281727 0.568988,-0.333239 0.20364,-0.05166 0.331718,-0.05721 0.764661,-0.03314 0.225285,0.01252 0.53028,0.02147 0.728087,0.02135 0.356898,-2.08e-4 0.465025,-0.01028 0.668251,-0.06226 0.04576,-0.0117 0.08533,-0.01916 0.08793,-0.01656 0.0089,0.0089 -0.237333,0.08293 -0.353213,0.106156 -0.249483,0.04999 -0.639511,0.07844 -1.079356,0.07873 -0.748905,4.91e-4 -1.063963,0.09666 -1.377832,0.420556 -0.212384,0.219172 -0.375089,0.47873 -0.729922,1.16442 -0.188252,0.363784 -0.350054,0.65765 -0.387141,0.703125 -0.01839,0.02255 -0.02127,0.02362 -0.015,0.0056 l 0,0 z"
       id="path3776"
       inkscape:connector-curvature="0"
       transform="translate(0,1004.3622)" />
    <path
       style="fill:#2c89a0;fill-opacity:0.60507244"
       d="m 18.578208,20.40741 c 0.04991,-0.01277 0.238135,-0.06392 0.418266,-0.113666 0.313323,-0.08654 0.462134,-0.119937 0.804965,-0.180676 0.1422,-0.02519 0.238544,-0.05082 0.328747,-0.08746 0.09653,-0.03921 0.09625,-0.03914 0.07037,-0.01695 -0.03872,0.03318 -0.168896,0.09677 -0.268899,0.13135 -0.219909,0.07603 -0.944281,0.229541 -1.303052,0.276144 -0.06738,0.0088 -0.126707,0.01559 -0.131832,0.0152 -0.0051,-3.95e-4 0.03152,-0.01116 0.08144,-0.02393 z"
       id="path3778"
       inkscape:connector-curvature="0"
       transform="translate(0,1004.3622)" />
    <path
       style="fill:#2c89a0;fill-opacity:0.60507244"
       d="m 17.100811,19.4886 c -0.16632,-0.311897 -0.311435,-0.629868 -0.468039,-1.025548 -0.124694,-0.315055 -0.268682,-0.720713 -0.262451,-0.739406 0.0014,-0.0041 0.02349,0.04333 0.04914,0.105502 0.115319,0.279612 0.258677,0.59241 0.344776,0.752281 0.02338,0.0434 0.07403,0.162374 0.112554,0.264376 0.09567,0.253287 0.250456,0.647108 0.280425,0.7135 0.0481,0.106568 0.01802,0.06885 -0.0564,-0.0707 z"
       id="path3780"
       inkscape:connector-curvature="0"
       transform="translate(0,1004.3622)" />
    <path
       style="fill:#2c89a0;fill-opacity:0.60507244"
       d="m 18.113981,20.431474 c -0.164485,-0.02135 -0.310083,-0.08383 -0.459605,-0.197244 -0.06978,-0.05293 -0.15155,-0.12627 -0.146458,-0.131362 0.002,-0.002 0.02427,0.01335 0.0496,0.03401 0.133105,0.108538 0.305096,0.192236 0.49429,0.240541 0.09493,0.02424 0.258886,0.04656 0.348837,0.0475 0.05173,5.39e-4 0.07212,0.003 0.05919,0.0071 -0.02567,0.0082 -0.28133,0.0078 -0.345849,-5.86e-4 l 0,0 z"
       id="path3782"
       inkscape:connector-curvature="0"
       transform="translate(0,1004.3622)" />
    <path
       style="fill:#2c89a0;fill-opacity:0.60507244"
       d="m 20.125033,24.110131 c -0.0013,-0.0043 -0.02023,-0.262657 -0.04206,-0.574181 -0.02183,-0.311523 -0.04271,-0.609096 -0.0464,-0.661272 -0.0093,-0.132027 -0.0092,-0.653485 2.31e-4,-0.77567 0.05186,-0.672283 0.213536,-1.054256 0.464132,-1.096525 0.03272,-0.0055 0.04114,-0.0052 0.05691,0.0023 0.06675,0.03175 0.124105,0.232327 0.149327,0.522211 0.0073,0.08332 0.01904,0.429579 0.01477,0.433847 -0.0018,0.0018 -0.0033,-0.0028 -0.0033,-0.0102 -6.9e-5,-0.0342 -0.0447,-0.548336 -0.04786,-0.55136 -0.002,-0.0019 -0.0021,0.03425 -2.33e-4,0.08028 0.0018,0.04604 0.0047,0.140206 0.0064,0.209263 0.02116,0.864161 0.0698,1.265739 0.19977,1.648996 0.07885,0.232524 0.214527,0.485395 0.383145,0.714095 0.04817,0.06533 0.04765,0.06436 0.03423,0.06436 -0.01157,0 -0.05613,-0.05882 -0.150076,-0.198102 -0.156592,-0.232153 -0.273457,-0.474266 -0.321883,-0.666853 -0.09879,-0.392871 -0.165621,-1.072161 -0.173493,-1.763393 -0.0016,-0.142717 -0.0043,-0.274682 -0.0059,-0.293255 l -0.0029,-0.03377 -0.03116,-0.01864 -0.03116,-0.01864 -0.05479,0.0036 c -0.161171,0.01056 -0.252001,0.06596 -0.316945,0.193295 -0.07096,0.139146 -0.118244,0.35712 -0.142825,0.658483 -0.03434,0.420966 -0.01723,1.067527 0.03675,1.389509 0.01196,0.07132 0.04171,0.17337 0.09746,0.334269 0.01728,0.04986 0.03034,0.09173 0.02903,0.09304 -0.0013,0.0013 -0.0298,-0.07107 -0.0633,-0.160845 l -0.06092,-0.163228 -0.0013,0.03348 c -7.15e-4,0.01841 0.0058,0.162807 0.01437,0.320871 0.0086,0.158063 0.01491,0.288375 0.01399,0.289582 -9.26e-4,0.0012 -0.0028,-0.0013 -0.0041,-0.0056 l 0,0 z"
       id="path3784"
       inkscape:connector-curvature="0"
       transform="translate(0,1004.3622)" />
    <path
       style="fill:#2c89a0;fill-opacity:0.60507244"
       d="m 14.9925,18.858161 c 0,-0.0012 0.0088,-0.0074 0.01953,-0.01376 0.01074,-0.0063 0.01953,-0.01407 0.01953,-0.01719 0,-0.0096 -0.02413,-0.01235 -0.05253,-0.006 -0.01489,0.0033 -0.02799,0.0052 -0.0291,0.004 -0.0011,-0.0011 0.01994,-0.01033 0.04678,-0.02048 0.04793,-0.01811 0.167716,-0.07556 0.218389,-0.104734 0.185045,-0.10653 0.317666,-0.235471 0.383217,-0.372583 0.04485,-0.09381 0.04876,-0.116918 0.05132,-0.303473 0.0022,-0.158027 0.0026,-0.163382 0.01183,-0.14788 0.0248,0.04161 0.03843,0.09872 0.04542,0.190344 0.008,0.105007 -0.0038,0.160623 -0.05203,0.244268 -0.09901,0.171838 -0.310423,0.357673 -0.575703,0.506055 -0.07224,0.04041 -0.08665,0.04729 -0.08665,0.04137 z"
       id="path3788"
       inkscape:connector-curvature="0"
       transform="translate(0,1004.3622)" />
    <path
       style="fill:#2c89a0;fill-opacity:0.60507244"
       d="m 14.476317,19.010599 c 0.16047,-0.03116 0.37676,-0.09223 0.465259,-0.131358 0.0367,-0.01623 0.05071,-0.01707 0.0207,-0.0012 -0.06846,0.0361 -0.207195,0.0879 -0.310178,0.115821 -0.06167,0.01672 -0.175722,0.03406 -0.220425,0.03351 -0.03887,-4.75e-4 -0.03865,-5.58e-4 0.04464,-0.01673 z"
       id="path3790"
       inkscape:connector-curvature="0"
       transform="translate(0,1004.3622)" />
    <path
       style="fill:#2c89a0;fill-opacity:0.60507244"
       d="m 13.629498,21.571568 c -0.02072,-0.01252 -0.03767,-0.0264 -0.03767,-0.03085 0,-0.0045 0.05666,-0.442979 0.125921,-0.974508 l 0.12592,-0.966415 0.02539,-0.0558 c 0.02594,-0.057 0.120471,-0.238801 0.158145,-0.304129 0.0308,-0.05341 0.06435,-0.136251 0.07527,-0.185886 0.0095,-0.04305 0.0099,-0.139347 6.24e-4,-0.160368 -0.0033,-0.0074 0.0051,-0.0069 0.05915,0.0041 0.03462,0.007 0.104214,0.01531 0.154653,0.0185 0.05044,0.0032 0.09292,0.007 0.0944,0.0085 0.0046,0.0046 -0.07212,0.0028 -0.124725,-0.003 -0.118977,-0.01308 -0.132899,-0.01323 -0.147287,-0.0015 -0.01163,0.0095 -0.01427,0.01886 -0.02044,0.07274 -0.0039,0.03403 -0.01357,0.08703 -0.02152,0.117793 -0.0079,0.03076 -0.01444,0.05756 -0.01444,0.05956 0,0.002 0.01267,-0.0057 0.02816,-0.01704 0.01549,-0.01137 0.02947,-0.01937 0.03107,-0.01777 0.0016,0.0016 -0.0055,0.01391 -0.01575,0.02735 -0.03666,0.04803 -0.0787,0.140069 -0.111239,0.243568 -0.0164,0.05214 -0.01986,0.04351 -0.0056,-0.01382 0.02235,-0.08954 0.02108,-0.108893 -0.005,-0.07592 -0.02206,0.0279 -0.09215,0.176352 -0.11269,0.238675 -0.05275,0.16007 -0.09891,0.456926 -0.202595,1.302899 -0.08101,0.660965 -0.08328,0.697545 -0.04325,0.697545 0.02373,0 0.08713,-0.06982 0.172426,-0.1899 0.143499,-0.202009 0.177005,-0.256866 0.16452,-0.269351 -0.0053,-0.0053 -0.02905,-0.0027 -0.101017,0.01089 -0.01021,0.0019 -0.0117,0.0012 -0.0056,-0.0025 0.0046,-0.0029 0.01913,-0.0068 0.03227,-0.0088 0.01314,-0.002 0.04944,-0.01242 0.08065,-0.02316 0.03121,-0.01074 0.05832,-0.01886 0.06024,-0.01804 0.0019,8.16e-4 -0.0401,0.06175 -0.09338,0.135412 -0.05328,0.07366 -0.13885,0.194759 -0.190163,0.269107 -0.05131,0.07435 -0.09455,0.135142 -0.09609,0.135098 -0.0015,-4.5e-5 -0.01974,-0.01032 -0.04046,-0.02284 l 0,0 z"
       id="path3792"
       inkscape:connector-curvature="0"
       transform="translate(0,1004.3622)" />
    <path
       style="fill:#2c89a0;fill-opacity:0.60507244"
       d="m 14.281005,18.363358 c -0.64826,-0.03113 -1.332915,-0.16676 -1.975447,-0.391351 -0.143285,-0.05008 -0.168785,-0.06059 -0.224591,-0.09253 -0.03504,-0.02005 -0.04602,-0.02918 -0.04604,-0.03826 -1.7e-5,-0.01102 0.0052,-0.0094 0.06792,0.02122 0.378977,0.184892 0.987533,0.347686 1.611751,0.431158 0.351412,0.04699 0.742054,0.06873 0.957031,0.05326 0.195659,-0.01408 0.312019,-0.05826 0.446632,-0.169562 0.09037,-0.07472 0.187091,-0.183355 0.174479,-0.195967 -0.0046,-0.0046 -0.04039,0.0149 -0.07284,0.03963 -0.0465,0.03544 -0.02868,0.01202 0.04743,-0.06232 0.07017,-0.06854 0.134282,-0.119551 0.141358,-0.112474 0.0018,0.0018 -0.0079,0.01693 -0.02153,0.03365 -0.01363,0.01673 -0.04271,0.05587 -0.06463,0.08697 -0.02192,0.03111 -0.05712,0.08108 -0.07823,0.111045 -0.116182,0.16496 -0.272656,0.252458 -0.506233,0.283077 -0.06975,0.0091 -0.292744,0.01034 -0.457066,0.0024 l 0,0 z"
       id="path3794"
       inkscape:connector-curvature="0"
       transform="translate(0,1004.3622)" />
    <path
       style="fill:#2c89a0;fill-opacity:0.60507244"
       d="m 18.155237,24.141534 c -0.02989,-0.01042 -0.106478,-0.03996 -0.170201,-0.06565 -0.494609,-0.199382 -0.997337,-0.496139 -1.466308,-0.865552 -0.382,-0.300905 -0.709622,-0.632324 -0.976162,-0.987478 -0.0731,-0.0974 -0.101702,-0.140805 -0.09633,-0.146177 0.0072,-0.0072 0.202558,0.152121 0.347934,0.283819 0.10768,0.09755 0.242941,0.228356 0.239593,0.231704 -0.0014,0.0014 -0.06991,-0.0586 -0.152218,-0.133369 -0.228125,-0.207229 -0.259596,-0.233478 -0.279917,-0.233478 -0.0166,0 -0.01514,0.0094 0.0072,0.04654 0.0825,0.137 0.502102,0.572245 0.778765,0.807792 0.500783,0.426361 1.162564,0.819102 1.743861,1.034912 0.07681,0.02851 0.08336,0.03182 0.08015,0.04044 -0.0011,0.003 -0.02622,-0.003 -0.05636,-0.01351 z"
       id="path3796"
       inkscape:connector-curvature="0"
       transform="translate(0,1004.3622)" />
    <path
       style="fill:#2c89a0;fill-opacity:0.60507244"
       d="m 23.743305,28.61325 c -0.04864,-0.157168 -0.126762,-0.380922 -0.219876,-0.629749 -0.108494,-0.289927 -0.522311,-1.325386 -0.660707,-1.653233 -0.05678,-0.134499 -0.103045,-0.248141 -0.102817,-0.252538 5.69e-4,-0.01101 0.09517,0.176535 0.198983,0.394488 0.312245,0.655536 0.568372,1.319246 0.739449,1.916152 0.04466,0.155825 0.08104,0.303818 0.07738,0.31479 -0.0013,0.0039 -0.0159,-0.03653 -0.03241,-0.08991 l 0,0 z"
       id="path3798"
       inkscape:connector-curvature="0"
       transform="translate(0,1004.3622)" />
    <path
       style="fill:#2c89a0;fill-opacity:0.60507244"
       d="m 24.481062,27.552223 c -0.01295,-0.0254 -0.02906,-0.05328 -0.03578,-0.06196 -0.01219,-0.01573 -0.01223,-0.01573 -0.01248,5.67e-4 -1.38e-4,0.009 0.0055,0.03316 0.01247,0.0537 0.007,0.02054 0.01114,0.03893 0.0092,0.04086 -0.0086,0.0086 -0.181359,-0.435987 -0.254454,-0.654931 -0.04776,-0.143051 -0.05586,-0.192523 -0.01282,-0.07832 0.05353,0.142057 0.248467,0.587578 0.309057,0.706344 0.009,0.01758 0.01451,0.03375 0.01233,0.03594 -0.0022,0.0022 -0.01458,-0.0168 -0.02753,-0.0422 l 0,0 z"
       id="path3800"
       inkscape:connector-curvature="0"
       transform="translate(0,1004.3622)" />
    <path
       style="fill:#2c89a0;fill-opacity:0.60507244"
       d="m 23.181679,35.447187 c 0.01577,-0.07816 0.06117,-0.1594 0.120473,-0.215563 0.06166,-0.05839 0.141971,-0.0923 0.39252,-0.165708 0.125874,-0.03688 0.247698,-0.07618 0.27072,-0.08734 0.05109,-0.02476 0.104472,-0.08899 0.150208,-0.180723 0.198985,-0.399115 0.294583,-1.340204 0.282964,-2.785579 -0.0049,-0.603554 -0.01362,-0.775143 -0.05355,-1.048488 -0.0088,-0.06015 -0.01459,-0.110755 -0.01288,-0.112457 0.0046,-0.0046 0.0344,0.144316 0.05226,0.261278 0.04698,0.307588 0.06429,0.597409 0.06953,1.164344 0.0045,0.486121 -0.0023,0.77991 -0.02553,1.100607 -0.0629,0.869203 -0.208897,1.437601 -0.421299,1.640198 -0.06036,0.05757 -0.09865,0.07427 -0.192657,0.08402 -0.135705,0.01407 -0.26119,0.07667 -0.32201,0.160627 -0.02942,0.04061 -0.0288,0.06181 0.0025,0.08818 0.05367,0.04516 0.166396,0.07243 0.396873,0.09602 0.09224,0.0094 0.264163,0.01299 0.775506,0.01604 0.361347,0.0022 0.656994,0.0021 0.656994,-2.4e-5 0,-0.0022 -0.06183,-0.237806 -0.137396,-0.523644 -0.194001,-0.733813 -0.227575,-0.879264 -0.268512,-1.163259 -0.02552,-0.177012 -0.04231,-0.358488 -0.04744,-0.512598 l -0.0041,-0.122324 0.01224,0.06313 c 0.11097,0.57223 0.261593,1.219139 0.47723,2.049661 0.03011,0.115979 0.05475,0.212752 0.05475,0.215054 0,0.0023 -0.502794,0.0042 -1.117319,0.0042 l -1.117319,0 0.0052,-0.02565 0,0 z"
       id="path3802"
       inkscape:connector-curvature="0"
       transform="translate(0,1004.3622)" />
    <path
       style="fill:#2c89a0;fill-opacity:0.60507244"
       d="M 25.969303,25.606128 C 25.548703,25.43399 25.086569,25.1907 24.485928,24.825205 l -0.08298,-0.0505 4.19e-4,-0.789063 c 4.57e-4,-0.85892 -8.01e-4,-0.820134 0.02073,-0.638672 0.02684,0.226237 0.03374,0.343442 0.03532,0.59961 7.41e-4,0.120312 6.78e-4,0.213476 -1.4e-4,0.207031 -8.18e-4,-0.0064 -0.006,-0.108399 -0.01146,-0.226563 -0.0055,-0.118164 -0.01046,-0.218359 -0.01105,-0.222656 -0.0021,-0.01515 -0.0065,0.264978 -0.0085,0.53711 -0.0011,0.151464 -0.003,0.333398 -0.0042,0.404296 l -0.0022,0.128907 0.145796,0.08388 c 0.453072,0.260676 0.610345,0.346885 0.88017,0.482462 0.191318,0.09613 0.366582,0.178072 0.493165,0.230572 0.06121,0.02538 0.06348,0.02673 0.06348,0.03756 0,0.0062 -4.39e-4,0.01107 -9.76e-4,0.01088 -5.38e-4,-1.91e-4 -0.01592,-0.0065 -0.03418,-0.01394 l 0,0 z"
       id="path3804"
       inkscape:connector-curvature="0"
       transform="translate(0,1004.3622)" />
    <path
       style="fill:#2c89a0;fill-opacity:0.60507244"
       d=""
       id="path3806"
       inkscape:connector-curvature="0"
       transform="translate(0,1004.3622)" />
    <path
       style="fill:#2c89a0;fill-opacity:0.60507244"
       d="m 26.599167,25.7721 c -0.132759,-0.0068 -0.29196,-0.04413 -0.498047,-0.116721 -0.08663,-0.03051 -0.09825,-0.0354 -0.09639,-0.04054 8.74e-4,-0.0024 -1.37e-4,-0.0077 -0.0022,-0.01182 -0.003,-0.0057 -0.0026,-0.0069 0.0015,-0.0052 0.04277,0.01787 0.162064,0.06217 0.213082,0.07913 0.130448,0.04338 0.20239,0.05787 0.351633,0.07087 0.103174,0.009 0.382105,0.0089 0.510934,-1.64e-4 0.36811,-0.02588 0.731447,-0.08471 1.061524,-0.171872 l 0.04981,-0.01315 0,0.009 c 0,0.01067 -0.0042,0.01205 -0.124298,0.0413 -0.303028,0.07377 -0.629916,0.123539 -0.957734,0.145811 -0.16937,0.01151 -0.4188,0.01805 -0.509765,0.01338 z"
       id="path3808"
       inkscape:connector-curvature="0"
       transform="translate(0,1004.3622)" />
    <path
       style="fill:#2c89a0;fill-opacity:0.60507244"
       d="m 28.190964,25.572515 c 0,-0.009 0.0045,-0.01077 0.08496,-0.03427 0.494471,-0.144307 0.951025,-0.362646 1.3616,-0.651163 0.121483,-0.08537 0.250571,-0.18597 0.362977,-0.282878 l 0.06351,-0.05475 0.0013,0.01292 c 0.0016,0.01546 -0.0056,0.02261 -0.106783,0.106516 -0.487597,0.404326 -1.02492,0.691071 -1.642578,0.876569 -0.03545,0.01065 -0.07538,0.02219 -0.08874,0.02565 -0.01336,0.0035 -0.02698,0.0073 -0.03027,0.0086 -0.0044,0.0017 -0.006,-2.72e-4 -0.006,-0.0072 z"
       id="path3810"
       inkscape:connector-curvature="0"
       transform="translate(0,1004.3622)" />
    <path
       style="fill:#2c89a0;fill-opacity:0.60507244"
       d="m 30.065964,24.560776 c 0,-0.01201 0.0049,-0.01763 0.0537,-0.06185 0.09204,-0.08337 0.214739,-0.208602 0.305976,-0.312308 0.29692,-0.337498 0.677746,-0.819876 0.741306,-0.938985 0.01332,-0.02496 0.01298,-0.03295 -0.001,-0.02377 -0.0197,0.01291 -0.15323,0.156525 -0.380615,0.409369 -0.08662,0.09632 -0.158365,0.174257 -0.159429,0.173193 -0.0011,-0.0011 0.148149,-0.171683 0.331584,-0.379154 0.312395,-0.353328 0.333437,-0.378028 0.332239,-0.38999 -7.03e-4,-0.007 -0.0249,-0.298415 -0.05377,-0.647536 -0.05726,-0.692362 -0.06988,-0.858822 -0.07614,-1.003906 -0.0023,-0.05264 -0.0048,-0.103174 -0.0055,-0.112305 l -0.0014,-0.0166 0.02641,0 0.02641,0 0.03026,0.07324 c 0.09889,0.23939 0.153089,0.405318 0.175516,0.537342 0.01092,0.06429 0.0128,0.12271 0.0095,0.293712 -0.0077,0.394651 -0.04353,0.683722 -0.108387,0.875 -0.01234,0.03639 -0.022,0.05463 -0.0631,0.119141 -0.09282,0.145696 -0.182078,0.269356 -0.256954,0.356003 -0.0211,0.02442 -0.0606,0.07637 -0.08777,0.115431 -0.203972,0.293278 -0.439694,0.572282 -0.673021,0.796598 -0.08469,0.08142 -0.155948,0.147025 -0.162148,0.149286 -0.002,7.16e-4 -0.0036,-0.0046 -0.0036,-0.01191 z M 31.32129,22.92783 c 0.02622,-0.04185 0.05085,-0.240985 0.06679,-0.540039 0.01582,-0.296803 0.01684,-0.435035 0.0039,-0.521485 -0.01167,-0.07775 -0.03717,-0.165919 -0.106821,-0.36935 -0.04899,-0.143087 -0.06031,-0.173716 -0.07176,-0.194126 -0.03998,-0.0713 -0.03917,0.119378 0.0031,0.737304 0.02636,0.385 0.05941,0.763063 0.07404,0.846838 0.0052,0.02968 0.01383,0.04965 0.02152,0.04965 0.0021,0 0.0062,-0.004 0.0092,-0.0088 z"
       id="path3812"
       inkscape:connector-curvature="0"
       transform="translate(0,1004.3622)" />
    <path
       style="fill:#2c89a0;fill-opacity:0.60507244"
       d="m 32.786823,27.783299 c -0.03422,-0.07819 -0.117039,-0.242228 -0.162219,-0.32129 -0.16978,-0.297103 -0.383635,-0.563936 -0.618282,-0.771447 l -0.04192,-0.03707 6.26e-4,-0.869177 c 3.98e-4,-0.552492 0.0017,-0.812959 0.0036,-0.714881 0.0096,0.496227 0.03105,0.84523 0.06648,1.080078 0.01665,0.110368 0.01655,0.109594 0.01404,0.107321 -0.0049,-0.0044 -0.02713,-0.145377 -0.04371,-0.276964 -0.0096,-0.07612 -0.01901,-0.13997 -0.02093,-0.141896 -0.0021,-0.0021 -0.0045,0.0034 -0.006,0.01339 -0.0026,0.01754 -0.01012,0.535516 -0.0099,0.682911 l 1.2e-4,0.08398 0.109535,0.119141 c 0.228857,0.248929 0.322764,0.344513 0.326741,0.332582 0.0019,-0.0058 -0.03508,-0.0755 -0.08299,-0.15616 -0.02085,-0.0351 -0.0371,-0.06461 -0.03613,-0.06559 0.0027,-0.0027 0.110776,0.156946 0.17225,0.254362 0.130442,0.206706 0.245952,0.42822 0.340929,0.653801 0.03639,0.08643 0.03428,0.07866 0.0214,0.07866 -0.01032,0 -0.01229,-0.003 -0.03361,-0.05176 l 0,0 z"
       id="path3814"
       inkscape:connector-curvature="0"
       transform="translate(0,1004.3622)" />
    <path
       style="fill:#2c89a0;fill-opacity:0.60507244"
       d="m 33.337741,30.627049 c -0.0015,-0.01128 -0.06323,-0.46084 -0.137263,-0.999024 -0.146749,-1.066861 -0.13683,-1.004154 -0.19097,-1.207309 -0.04843,-0.181719 -0.136395,-0.441601 -0.189667,-0.560334 -0.0064,-0.01433 -0.01169,-0.02655 -0.01169,-0.02715 0,-6.02e-4 0.0056,4.6e-5 0.01239,0.0014 0.01202,0.0025 0.01322,0.0047 0.0393,0.07275 0.03867,0.100889 0.110634,0.318037 0.14755,0.445213 0.142904,0.492316 0.254254,1.076531 0.366967,1.925346 0.05023,0.378284 0.05033,0.37915 0.03976,0.367363 -0.0018,-0.002 -0.0089,-0.04583 -0.01585,-0.0974 -0.09073,-0.675917 -0.210626,-1.446961 -0.240816,-1.548621 -0.0067,-0.02255 -0.01547,-0.02593 -0.01828,-0.007 -0.0058,0.03876 0.02034,0.250485 0.118195,0.958008 0.10331,0.746968 0.09693,0.697265 0.08955,0.697265 -0.0049,0 -0.0072,-0.005 -0.0092,-0.02051 l 0,0 z"
       id="path3816"
       inkscape:connector-curvature="0"
       transform="translate(0,1004.3622)" />
    <path
       style="fill:#2c89a0;fill-opacity:0.60507244"
       d="m 34.11563,30.414418 c -0.0515,-0.08659 -0.08146,-0.144288 -0.112024,-0.215748 -0.108066,-0.252645 -0.178857,-0.612922 -0.208837,-1.062832 -0.01056,-0.158407 -0.0145,-0.318807 -0.01324,-0.539063 l 0.0012,-0.216797 0.007,0.127875 c 0.03503,0.639711 0.111136,1.131599 0.229189,1.481317 0.01521,0.04505 0.01923,0.06129 0.01214,0.04901 -0.006,-0.01045 -0.04696,-0.132741 -0.06299,-0.188199 -0.02947,-0.10198 -0.06136,-0.239789 -0.09521,-0.41141 -0.03225,-0.163512 -0.04311,-0.210664 -0.03911,-0.169922 9.49e-4,0.0097 0.0044,0.05625 0.0076,0.103516 0.0152,0.221576 0.03501,0.350269 0.08056,0.523437 0.03854,0.146537 0.09223,0.292777 0.161455,0.439802 0.02048,0.04349 0.03653,0.07978 0.03567,0.08064 -8.59e-4,8.6e-4 -0.0024,1.27e-4 -0.0035,-0.0016 z"
       id="path3818"
       inkscape:connector-curvature="0"
       transform="translate(0,1004.3622)" />
    <path
       style="fill:#2c89a0;fill-opacity:0.60507244"
       d="m 33.47264,33.528416 c -8.62e-4,-0.01643 0.07684,-0.456263 0.124557,-0.705078 0.06958,-0.362811 0.10907,-0.540186 0.158495,-0.711944 0.03723,-0.129367 0.04741,-0.178681 0.03688,-0.178681 -0.0067,0 -0.02355,0.03054 -0.07501,0.136328 -0.02759,0.05672 -0.05102,0.102275 -0.05206,0.101235 -0.001,-0.001 0.0674,-0.155862 0.152089,-0.344049 0.19512,-0.433572 0.274753,-0.617078 0.295359,-0.680624 0.0028,-0.0086 0.0057,-0.01366 0.0065,-0.01126 8.07e-4,0.0024 -0.0038,0.02086 -0.01016,0.04102 -0.01353,0.04265 -0.02384,0.08198 -0.02384,0.09093 0,0.03371 0.0957,-0.06678 0.209795,-0.22029 0.04053,-0.05453 0.165205,-0.237472 0.165205,-0.242409 0,-0.0015 -0.04476,-0.06979 -0.09947,-0.151683 -0.05471,-0.08189 -0.113301,-0.172177 -0.130208,-0.20064 -0.04061,-0.06838 -0.09183,-0.163188 -0.08944,-0.165574 0.001,-0.001 0.0095,0.01183 0.01871,0.02862 0.02511,0.04558 0.142237,0.231153 0.19925,0.315673 0.05689,0.08434 0.09742,0.136511 0.115508,0.148678 l 0.01239,0.0083 -0.01161,0.02302 c -0.03199,0.06342 -0.08123,0.130839 -0.328366,0.449605 -0.123883,0.159789 -0.142695,0.185922 -0.164496,0.228515 -0.15603,0.304848 -0.302093,0.868108 -0.461719,1.780515 -0.04429,0.253151 -0.04776,0.271806 -0.0484,0.259766 z"
       id="path3820"
       inkscape:connector-curvature="0"
       transform="translate(0,1004.3622)" />
    <path
       style="fill:#2c89a0;fill-opacity:0.60507244"
       d="m 30.915573,35.656371 c 0.0021,-0.0022 0.05049,-0.04067 0.107422,-0.0856 0.357749,-0.2823 0.6496,-0.495486 0.90625,-0.661982 0.130652,-0.08476 0.27971,-0.174233 0.283666,-0.170277 0.0022,0.0022 -0.09154,0.06653 -0.228567,0.156735 -0.129846,0.08548 -0.174271,0.116146 -0.373459,0.257765 -0.292455,0.20793 -0.580078,0.426204 -0.580078,0.440216 0,0.0021 0.0046,0.0055 0.01027,0.0076 0.01459,0.0055 0.05314,9.72e-4 0.298328,-0.03539 0.11709,-0.01736 0.280251,-0.04099 0.36258,-0.0525 0.140851,-0.01969 0.17254,-0.02546 0.141001,-0.02567 -0.03698,-2.49e-4 -0.508321,-0.02288 -0.509925,-0.02448 -0.001,-0.001 0.07601,-0.05512 0.171185,-0.120207 0.347882,-0.237904 0.499976,-0.348725 0.682815,-0.497524 0.120068,-0.09771 0.235569,-0.203869 0.261257,-0.240118 0.01316,-0.01857 0.01611,-0.03555 0.0062,-0.03555 -0.0033,0 -0.01291,0.0035 -0.02133,0.0078 -0.0084,0.0043 -0.01649,0.0078 -0.01792,0.0078 -0.0014,0 0.03684,-0.03911 0.08506,-0.08691 0.234368,-0.232358 0.41472,-0.478717 0.567666,-0.775427 0.01247,-0.02419 0.02343,-0.04323 0.02435,-0.0423 9.24e-4,9.25e-4 -0.0029,0.01486 -0.0084,0.03097 -0.01663,0.04819 -0.01235,0.06442 0.01007,0.03819 0.01514,-0.01771 0.07077,-0.109215 0.143942,-0.236777 0.07907,-0.137852 0.110114,-0.189957 0.112022,-0.188049 0.0016,0.0016 -0.216393,0.399166 -0.306557,0.559142 -0.06419,0.113899 -0.12402,0.203464 -0.214402,0.320986 -0.223883,0.29111 -0.528933,0.594008 -0.776796,0.771315 -0.02571,0.01839 -0.189131,0.13009 -0.363155,0.248218 -0.174023,0.118128 -0.323437,0.21961 -0.332031,0.225517 l -0.01563,0.01074 0.466797,-0.0023 c 0.256738,-0.0013 0.487891,-0.003 0.513672,-0.004 0.03654,-0.0013 0.02649,2.18e-4 -0.04559,0.0069 -0.05086,0.0047 -0.09378,0.0099 -0.09538,0.01146 -0.0042,0.0042 0.318731,0.0035 0.439798,-9.92e-4 0.262287,-0.0098 0.511049,-0.03019 0.575367,-0.04725 0.0098,-0.0026 0.01599,-0.007 0.01831,-0.0131 0.0091,-0.02401 0.02423,-0.145838 0.05063,-0.408401 0.02131,-0.211971 0.03982,-0.37144 0.04226,-0.36412 8.6e-4,0.0026 -0.003,0.04469 -0.0085,0.09358 -0.02367,0.20844 -0.0429,0.450712 -0.04722,0.594755 -0.003,0.09936 -0.0032,0.100916 -0.01875,0.107244 -0.02027,0.0083 -0.08666,0.02067 -0.145275,0.02712 -0.14561,0.01602 -0.282453,0.02135 -0.663623,0.02583 -0.438024,0.0052 -0.578543,0.01394 -0.879346,0.05498 -0.176055,0.02402 -0.449361,0.0747 -0.622352,0.115402 -0.007,0.0016 -0.0092,0.0012 -0.0066,-0.0015 z"
       id="path3822"
       inkscape:connector-curvature="0"
       transform="translate(0,1004.3622)" />
    <path
       style="fill:#2c89a0;fill-opacity:0.60507244"
       d="m 33.919869,26.844822 c 0.0049,-0.05133 0.04911,-0.33491 0.08189,-0.525391 0.06516,-0.378657 0.128364,-0.688342 0.242346,-1.1875 0.113522,-0.497138 0.212941,-0.901106 0.299221,-1.21582 l 0.04364,-0.15918 0.01125,0 c 0.0089,0 0.01083,0.0014 0.0093,0.0068 -0.0028,0.0095 -0.02974,0.134424 -0.05757,0.266602 -0.104602,0.496748 -0.178606,0.890972 -0.226218,1.205078 -0.02575,0.169897 -0.03879,0.224046 -0.235107,0.976562 -0.06894,0.264258 -0.135605,0.52002 -0.148145,0.56836 -0.01544,0.05951 -0.02208,0.08032 -0.02056,0.06445 z"
       id="path3824"
       inkscape:connector-curvature="0"
       transform="translate(0,1004.3622)" />
    <path
       style="fill:#2c89a0;fill-opacity:0.60507244"
       d="m 34.809714,27.306728 c -0.06248,-0.0638 -0.09686,-0.112832 -0.134303,-0.191525 -0.04634,-0.0974 -0.07171,-0.203961 -0.08018,-0.336787 -0.002,-0.03131 -0.0012,-0.04201 0.0038,-0.05393 0.01388,-0.03281 0.04314,-0.179183 0.106265,-0.531536 0.02112,-0.117907 0.03894,-0.211696 0.03959,-0.20842 6.51e-4,0.0033 -0.0076,0.05668 -0.01825,0.118674 -0.116121,0.673404 -0.123231,0.819546 -0.04767,0.979904 0.02412,0.0512 0.09168,0.163486 0.111039,0.184571 0.02319,0.02525 0.04142,0.02127 0.05818,-0.0127 0.04033,-0.08174 0.15686,-0.5808 0.221642,-0.949219 0.06543,-0.372087 0.116722,-0.804106 0.145632,-1.226562 0.0048,-0.06963 0.0049,-0.07033 0.01417,-0.07164 l 0.0094,-0.0013 -0.0027,0.03453 c -0.06311,0.81365 -0.193307,1.600185 -0.366698,2.215182 l -0.0245,0.08691 -0.03538,-0.03613 z"
       id="path3826"
       inkscape:connector-curvature="0"
       transform="translate(0,1004.3622)" />
    <path
       style="fill:#2c89a0;fill-opacity:0.60507244"
       d="m 34.745959,25.973959 c -1.69e-4,-0.0042 0.02329,-0.145674 0.05213,-0.314453 0.07496,-0.438623 0.09114,-0.547591 0.115498,-0.777536 0.03435,-0.324298 0.05173,-0.632289 0.05864,-1.039101 0.0023,-0.134277 0.0047,-0.250293 0.0053,-0.257813 6.41e-4,-0.0075 0.0015,0.07686 0.0018,0.1875 8.36e-4,0.255276 -0.0036,0.431274 -0.02309,0.910157 -0.02115,0.520403 -0.02674,0.721946 -0.02764,0.996093 -6.7e-4,0.204518 -0.0011,0.185759 -0.0034,-0.15625 -0.0026,-0.372395 -0.0056,-0.511718 -0.01102,-0.511718 -0.0014,0 -0.01107,0.05317 -0.02151,0.118164 -0.02117,0.131734 -0.14252,0.842507 -0.14489,0.848632 -8.31e-4,0.0021 -0.0016,4.95e-4 -0.0018,-0.0037 l 0,0 z"
       id="path3828"
       inkscape:connector-curvature="0"
       transform="translate(0,1004.3622)" />
    <path
       style="fill:#2c89a0;fill-opacity:0.60507244"
       d="m 35.222214,24.992273 c 0,-0.0081 0.0026,-0.05772 0.0057,-0.110351 0.02918,-0.486351 0.04218,-1.220592 0.03372,-1.904288 -0.0023,-0.186914 -0.0054,-0.369287 -0.0068,-0.405273 l -0.0026,-0.06543 0.0103,0 c 0.01281,0 0.01318,0.0016 0.01624,0.07227 0.01025,0.236598 0.0142,0.403766 0.01628,0.689453 0.0041,0.569274 -0.01143,1.099922 -0.0475,1.619141 -0.0081,0.116307 -0.0085,0.11914 -0.01777,0.11914 -0.0061,0 -0.0076,-0.0028 -0.0076,-0.01466 z"
       id="path3830"
       inkscape:connector-curvature="0"
       transform="translate(0,1004.3622)" />
    <path
       style="fill:#2c89a0;fill-opacity:0.60507244"
       d="m 35.252083,22.474705 c -0.0011,-0.01772 -0.004,-0.07793 -0.0064,-0.133789 -0.0155,-0.362881 -0.05635,-0.676744 -0.152485,-1.171521 -0.06696,-0.34461 -0.122087,-0.574642 -0.185595,-0.774405 -0.01172,-0.03686 -0.02131,-0.06894 -0.02131,-0.07129 0,-0.0074 0.02231,-0.005 0.02452,0.0026 0.03702,0.127042 0.04912,0.170515 0.06876,0.247071 0.09339,0.363971 0.209228,1.007235 0.252172,1.40039 0.01792,0.164031 0.04127,0.453896 0.04127,0.512273 0,0.01951 -6.37e-4,0.02093 -0.0094,0.02093 -0.009,0 -0.0095,-0.0014 -0.0115,-0.03223 l 0,0 z"
       id="path3832"
       inkscape:connector-curvature="0"
       transform="translate(0,1004.3622)" />
    <path
       style="fill:#2c89a0;fill-opacity:0.60507244"
       d="m 34.589414,23.752049 c 1.5e-5,-0.0058 0.05825,-0.199212 0.06075,-0.201711 0.004,-0.004 6.28e-4,0.01436 -0.01975,0.106819 -0.01181,0.05362 -0.02148,0.098 -0.02148,0.09863 0,6.28e-4 -0.0044,0.0011 -0.0098,0.0011 -0.0054,0 -0.0098,-0.0022 -0.0098,-0.0049 z"
       id="path3834"
       inkscape:connector-curvature="0"
       transform="translate(0,1004.3622)" />
    <path
       style="fill:#2c89a0;fill-opacity:0.60507244"
       d="m 34.880532,20.308689 c -0.006,-0.02408 -0.07525,-0.206723 -0.102529,-0.270508 -0.0383,-0.08955 -0.112617,-0.236109 -0.159441,-0.314453 -0.14549,-0.243423 -0.319745,-0.443991 -0.557676,-0.641888 -0.05483,-0.0456 -0.169914,-0.132441 -0.244922,-0.184807 -0.18849,-0.131591 -0.807094,-0.521699 -0.875,-0.551799 -0.0075,-0.0033 -0.0418,-0.01649 -0.07617,-0.02923 -0.03438,-0.01275 -0.156543,-0.05997 -0.271485,-0.104944 -0.114941,-0.04497 -0.227002,-0.08843 -0.249023,-0.09656 -0.03233,-0.01195 -0.04004,-0.01628 -0.04004,-0.02253 0,-0.0046 0.002,-0.0069 0.0049,-0.0058 0.0027,0.0011 0.06553,0.02689 0.139648,0.05733 0.166127,0.06823 0.301129,0.119928 0.423828,0.162307 l 0.09375,0.03238 0.0918,0.05446 c 0.174139,0.103308 0.321885,0.196212 0.412336,0.259279 0.02376,0.01656 0.0721,0.04754 0.107421,0.06883 0.442714,0.266838 0.772685,0.569679 1.014366,0.930966 0.08622,0.128893 0.178871,0.304954 0.241379,0.458694 0.02356,0.05795 0.07215,0.194898 0.07215,0.20335 0,0.0036 -0.0041,0.0056 -0.0113,0.0056 -0.0091,0 -0.01183,-0.0021 -0.01398,-0.01074 z"
       id="path3836"
       inkscape:connector-curvature="0"
       transform="translate(0,1004.3622)" />
    <path
       style="fill:#2c89a0;fill-opacity:0.60507244"
       d="m 32.579635,18.304424 c -0.382754,-0.193753 -0.628737,-0.333657 -0.8649,-0.491917 -0.464663,-0.311384 -0.808216,-0.657882 -1.127936,-1.137607 -0.09262,-0.138974 -0.16587,-0.25779 -0.255917,-0.415123 -0.04646,-0.08117 -0.171168,-0.309498 -0.171168,-0.313381 0,-0.0011 0.01855,-0.002 0.04123,-0.002 l 0.04123,0 0.108561,0.219727 c 0.111396,0.225463 0.158605,0.314298 0.226145,0.425546 0.343866,0.566396 0.807542,1.010022 1.407513,1.346648 0.05978,0.03354 0.1113,0.05828 0.199895,0.09597 0.100781,0.04288 0.119622,0.05215 0.121067,0.05957 9.42e-4,0.0048 0.0015,0.0088 0.0011,0.0088 -3.2e-4,0 -0.02682,-0.0088 -0.05888,-0.01953 -0.05681,-0.01903 -0.07232,-0.0226 -0.07222,-0.0166 1.59e-4,0.0096 0.168099,0.10459 0.436475,0.246826 0.08218,0.04355 0.149414,0.07988 0.149414,0.08073 0,0.0039 -0.01626,-0.004 -0.181641,-0.08768 l 0,0 z"
       id="path3838"
       inkscape:connector-curvature="0"
       transform="translate(0,1004.3622)" />
    <path
       style="fill:#2c89a0;fill-opacity:0.60507244"
       d="m 30.096323,15.826267 c -0.03346,-0.06499 -0.09814,-0.191113 -0.143724,-0.280273 -0.242641,-0.474572 -0.383259,-0.716529 -0.530091,-0.91211 -0.279507,-0.372305 -0.567173,-0.528043 -1.067482,-0.577916 -0.158515,-0.0158 -0.466249,-0.02774 -0.645511,-0.02504 l -0.09278,0.0014 3e-6,-0.02832 3e-6,-0.02832 0.02637,8.4e-5 c 0.06231,1.98e-4 0.325644,0.008 0.395508,0.01168 0.516481,0.0274 0.928426,0.09366 1.263719,0.203277 l 0.05864,0.01917 0.0261,0.04403 c 0.0719,0.121296 0.194958,0.361599 0.53381,1.04239 0.154435,0.310275 0.289697,0.583032 0.300584,0.606128 l 0.01979,0.04199 -0.04205,0 -0.04205,0 -0.06084,-0.118164 z"
       id="path3840"
       inkscape:connector-curvature="0"
       transform="translate(0,1004.3622)" />
    <path
       style="fill:#2c89a0;fill-opacity:0.60507244"
       d="m 25.363464,16.24033 c 0.150277,-0.239623 0.40544,-0.650979 0.583345,-0.94043 0.227158,-0.369584 0.24701,-0.399451 0.353109,-0.53125 0.379172,-0.471014 0.744616,-0.729727 1.106656,-0.783449 0.02214,-0.0033 0.07848,-0.007 0.12521,-0.0083 l 0.08496,-0.0023 0,0.02942 0,0.02942 -0.02246,0.0027 c -0.29908,0.03601 -0.689742,0.306849 -1.102236,0.764148 -0.310738,0.344492 -0.624233,0.769289 -0.980614,1.328774 l -0.09144,0.143554 -0.03837,0 -0.03837,0 0.02021,-0.03223 z"
       id="path3842"
       inkscape:connector-curvature="0"
       transform="translate(0,1004.3622)" />
    <path
       style="fill:#2c89a0;fill-opacity:0.60507244"
       d="m 24.404231,17.240697 c 0.0021,-0.0033 -0.0033,-0.0039 -0.02028,-0.0021 -0.02097,0.0022 -0.01764,5.25e-4 0.03674,-0.01861 0.168267,-0.05922 0.291607,-0.142624 0.448484,-0.30326 0.135955,-0.139211 0.26169,-0.306045 0.417787,-0.554346 l 0.05525,-0.08789 0.03766,-0.0011 c 0.02071,-6.14e-4 0.03766,-2.5e-4 0.03766,8.1e-4 0,0.008 -0.126427,0.195255 -0.192755,0.285465 -0.247565,0.3367 -0.498838,0.551936 -0.781854,0.669724 -0.04219,0.01756 -0.04263,0.01769 -0.03869,0.01131 l 0,0 z"
       id="path3846"
       inkscape:connector-curvature="0"
       transform="translate(0,1004.3622)" />
    <path
       style="fill:#2c89a0;fill-opacity:0.60507244"
       d="m 16.361737,17.717606 c -0.019,-0.05797 -0.095,-0.317088 -0.116217,-0.396222 -0.05882,-0.219393 -0.08766,-0.359557 -0.124837,-0.606565 -0.01745,-0.115944 -0.02226,-0.155653 -0.01739,-0.143435 8.57e-4,0.0021 0.01665,0.08565 0.03509,0.185547 0.0383,0.207436 0.05114,0.271526 0.07058,0.352173 0.02766,0.114743 0.03295,0.08097 0.01153,-0.0736 -0.04338,-0.313097 -0.185225,-1.073162 -0.224906,-1.205149 -0.0081,-0.02692 -0.0179,-0.03827 -0.03307,-0.03827 -0.01287,0 -0.04466,0.01872 -0.07892,0.04648 -0.02973,0.02408 -0.08969,0.06168 -0.09304,0.05833 -8.1e-4,-8.1e-4 0.04618,-0.0379 0.10442,-0.08243 0.05824,-0.04453 0.106524,-0.08033 0.107295,-0.07955 7.72e-4,7.72e-4 0.03216,0.17611 0.06975,0.38964 0.15632,0.887951 0.255341,1.427903 0.279513,1.52416 0.0042,0.01675 0.01198,0.04026 0.01728,0.05224 0.01024,0.02316 0.01188,0.03048 0.006,0.02686 -0.002,-0.0012 -0.0042,7.48e-4 -0.0049,0.0044 -7.01e-4,0.0036 -0.0044,-0.0029 -0.0082,-0.0146 z"
       id="path3848"
       inkscape:connector-curvature="0"
       transform="translate(0,1004.3622)" />
    <path
       style="fill:#2c89a0;fill-opacity:0.60507244"
       d="m 15.52184,15.995045 c -0.05972,-0.0015 -0.109225,-0.0034 -0.110018,-0.0042 -0.0017,-0.0017 0.247616,-0.06254 0.311803,-0.07614 0.02367,-0.005 0.0437,-0.0085 0.0445,-0.0077 0.0016,0.0016 -0.03419,0.01366 -0.0713,0.02404 -0.03021,0.0085 -0.05142,0.01925 -0.05652,0.02878 -0.0055,0.01019 0.0081,0.02558 0.02918,0.03313 l 0.01563,0.0056 -0.02734,-3.65e-4 c -0.01504,-2.01e-4 -0.0762,-0.0016 -0.13592,-0.0032 l 0,0 z"
       id="path3852"
       inkscape:connector-curvature="0"
       transform="translate(0,1004.3622)" />
    <path
       style="fill:#2c89a0;fill-opacity:0.60507244"
       d="m 15.041667,15.873904 c -0.02572,-0.03361 -0.03446,-0.0716 -0.02499,-0.108564 0.0178,-0.06948 0.07449,-0.136651 0.1821,-0.215749 0.03743,-0.02751 0.13262,-0.08712 0.135126,-0.08462 0.001,0.001 -0.02233,0.01916 -0.05196,0.04026 -0.129636,0.09228 -0.197037,0.155202 -0.22662,0.211552 -0.01304,0.02484 -0.01914,0.0499 -0.01307,0.05365 0.01586,0.0098 0.185009,-0.112565 0.417429,-0.301994 0.257226,-0.209647 0.343537,-0.301482 0.40465,-0.430545 0.04824,-0.101887 0.06526,-0.191412 0.07308,-0.384478 0.0061,-0.150136 4.76e-4,-0.358021 -0.01226,-0.454716 -0.0043,-0.03262 -0.01626,-0.05779 -0.03154,-0.06636 -0.0092,-0.0051 -0.01218,-0.005 -0.0286,0.0013 -0.01009,0.0039 -0.03624,0.0188 -0.05811,0.03321 -0.158699,0.104581 -0.272694,0.169376 -0.598503,0.340193 -0.199894,0.104801 -0.239666,0.126552 -0.263522,0.144119 -0.03918,0.02885 -0.0173,0.0305 0.08171,0.0062 0.03098,-0.0076 0.05804,-0.01327 0.06015,-0.01257 0.0061,0.002 -0.08574,0.03653 -0.131344,0.04933 -0.06664,0.01871 -0.290018,0.06594 -0.293835,0.06212 -7.09e-4,-7.09e-4 0.03946,-0.01962 0.08926,-0.04203 0.457599,-0.205893 0.865448,-0.424122 1.102154,-0.589734 l 0.05067,-0.03545 0.0049,0.0093 c 0.0135,0.02576 0.03495,0.104183 0.04606,0.168408 0.02177,0.125782 0.02424,0.339434 0.0056,0.480469 -0.0275,0.207602 -0.105434,0.388872 -0.220716,0.51339 -0.02251,0.02432 -0.249008,0.204666 -0.525024,0.418057 l -0.158203,0.122308 -0.002,0.04343 -0.002,0.04344 -0.01062,-0.01389 0,0 z"
       id="path3854"
       inkscape:connector-curvature="0"
       transform="translate(0,1004.3622)" />
    <path
       style="fill:#2c89a0;fill-opacity:0.60507244"
       d="m 15.211027,15.043576 c -7.33e-4,-0.02217 0.0077,-0.06793 0.03046,-0.166019 0.02741,-0.117936 0.03283,-0.171734 0.02198,-0.218282 -0.0016,-0.007 -3.41e-4,-0.0059 0.0046,0.0039 0.01047,0.02081 0.0087,0.08762 -0.0046,0.175051 -0.006,0.03934 -0.01008,0.07232 -0.0091,0.07329 9.63e-4,9.63e-4 0.01554,-0.01804 0.03239,-0.04224 0.09668,-0.13881 0.139585,-0.19855 0.141346,-0.196789 0.0011,0.0011 -0.01194,0.02186 -0.02895,0.04614 -0.06125,0.08744 -0.118824,0.179925 -0.147193,0.23646 -0.01635,0.03258 -0.036,0.08086 -0.03863,0.09492 -0.0012,0.0064 -0.002,0.0043 -0.0023,-0.0064 z"
       id="path3856"
       inkscape:connector-curvature="0"
       transform="translate(0,1004.3622)" />
    <path
       style="fill:#2c89a0;fill-opacity:0.60507244"
       d="m 15.456675,15.295543 c -0.0053,-0.0021 -0.03675,-0.0063 -0.06983,-0.0094 -0.05141,-0.0047 -0.0637,-0.0072 -0.08455,-0.01694 -0.03174,-0.01485 -0.05258,-0.03405 -0.06766,-0.06234 -0.01655,-0.03105 -0.02347,-0.06007 -0.02562,-0.107357 -9.94e-4,-0.02192 -9.99e-4,-0.0337 -1.3e-5,-0.02618 0.0077,0.0587 0.01886,0.08493 0.04959,0.116556 l 0.02026,0.02085 0.0293,-0.0025 c 0.03867,-0.0033 0.08922,-0.01457 0.123047,-0.02739 0.03971,-0.01505 0.04597,-0.01573 0.02071,-0.0023 -0.03986,0.02125 -0.07768,0.03157 -0.128736,0.03512 -0.05154,0.0036 -0.05977,0.007 -0.04794,0.02013 0.01989,0.02202 0.07179,0.03927 0.138414,0.046 0.03607,0.0036 0.05856,0.01009 0.05856,0.01679 0,0.0041 -0.0032,0.0038 -0.01554,-0.0011 z"
       id="path3858"
       inkscape:connector-curvature="0"
       transform="translate(0,1004.3622)" />
    <path
       style="fill:#2c89a0;fill-opacity:0.60507244"
       d="m 15.448776,14.641344 c 0,-0.0029 0.103723,-0.148799 0.148987,-0.209541 l 0.03415,-0.04583 0.02366,0.04436 c 0.02288,0.04289 0.03385,0.07321 0.01358,0.03753 -0.01056,-0.01858 -0.03041,-0.04119 -0.04144,-0.04721 -0.0055,-0.003 -0.01483,0.0072 -0.05477,0.05989 -0.02649,0.03492 -0.06458,0.0859 -0.08463,0.113293 -0.0343,0.04687 -0.03954,0.05316 -0.03954,0.0475 z"
       id="path3860"
       inkscape:connector-curvature="0"
       transform="translate(0,1004.3622)" />
    <path
       style="fill:#2c89a0;fill-opacity:0.60507244"
       d="m 13.578008,16.66556 c 8.95e-4,-8.4e-4 0.01393,-0.0099 0.02897,-0.02006 0.127214,-0.08625 0.264575,-0.259889 0.368573,-0.465929 0.08399,-0.166409 0.108715,-0.266959 0.110147,-0.448025 4.06e-4,-0.0513 7.84e-4,-0.05388 0.0061,-0.04173 0.01161,0.02659 0.01771,0.05869 0.0198,0.104232 0.0055,0.118933 -0.04351,0.275354 -0.157441,0.502901 -0.05706,0.113955 -0.09859,0.175151 -0.159737,0.23538 -0.04125,0.04063 -0.08376,0.07215 -0.131726,0.09766 -0.03672,0.01953 -0.09261,0.04301 -0.08468,0.03557 l 0,0 z"
       id="path3866"
       inkscape:connector-curvature="0"
       transform="translate(0,1004.3622)" />
    <path
       style="fill:#2c89a0;fill-opacity:0.60507244"
       d="m 12.855026,15.541885 c 0.05435,-0.0252 0.177033,-0.05295 0.29327,-0.06633 0.07669,-0.0088 0.237633,-0.01503 0.292668,-0.01127 0.02353,0.0016 0.02738,0.0025 0.01321,0.0029 -0.09839,0.0033 -0.45111,0.05022 -0.605602,0.08064 -0.0079,0.0016 -0.0061,-1.42e-4 0.0065,-0.006 z"
       id="path3868"
       inkscape:connector-curvature="0"
       transform="translate(0,1004.3622)" />
    <path
       style="fill:#2c89a0;fill-opacity:0.60507244"
       d="m 12.750796,16.271744 c -0.10215,-0.160009 -0.150546,-0.290135 -0.150789,-0.405438 -1.45e-4,-0.06865 0.01359,-0.119464 0.04597,-0.17008 0.01337,-0.0209 0.05923,-0.07211 0.06457,-0.07211 0.0017,0 -0.0071,0.01977 -0.0196,0.04394 -0.01247,0.02417 -0.02835,0.06152 -0.03529,0.08301 -0.01103,0.03411 -0.01287,0.04597 -0.01458,0.09359 -0.0051,0.142756 0.04128,0.306092 0.125174,0.440733 0.0064,0.01029 0.01077,0.01959 0.0097,0.02067 -0.0011,0.0011 -0.0124,-0.01437 -0.02514,-0.03433 z"
       id="path3870"
       inkscape:connector-curvature="0"
       transform="translate(0,1004.3622)" />
    <path
       style="fill:#2c89a0;fill-opacity:0.60507244"
       d="m 11.054245,15.200754 c 0,-0.0079 0.0048,-0.01135 0.03223,-0.02314 0.223226,-0.09588 0.526378,-0.164848 0.870118,-0.197945 0.220331,-0.02121 0.374368,-0.02654 0.845703,-0.02924 0.197656,-0.0011 0.412988,-0.0029 0.478515,-0.0039 0.143655,-0.0022 0.145465,-0.0026 -0.15625,0.03297 -0.391446,0.04613 -0.589494,0.07074 -0.725928,0.0902 -0.07592,0.01083 -0.14096,0.01912 -0.144532,0.01842 -0.0078,-0.0015 0.01635,-0.0052 0.442726,-0.06777 0.182617,-0.02679 0.333789,-0.04927 0.335937,-0.04995 0.0066,-0.0021 -0.272601,-0.0064 -0.407865,-0.0064 -0.47612,1.9e-4 -0.873574,0.04271 -1.219623,0.130489 -0.09153,0.02322 -0.23306,0.0688 -0.30294,0.09756 -0.02404,0.0099 -0.0447,0.01799 -0.0459,0.01799 -0.0012,0 -0.0022,-0.0042 -0.0022,-0.0093 z"
       id="path3872"
       inkscape:connector-curvature="0"
       transform="translate(0,1004.3622)" />
    <path
       style="fill:#2c89a0;fill-opacity:0.60507244"
       d="m 10.723397,16.297616 c 0,-0.001 0.02374,-0.0537 0.05276,-0.117094 0.06785,-0.148234 0.09174,-0.201901 0.140774,-0.316197 l 0.04006,-0.09338 0.0029,0.03064 c 0.0099,0.105294 -0.0269,0.265528 -0.08432,0.36743 -0.01999,0.03547 -0.0736,0.09233 -0.101403,0.107538 -0.02033,0.01112 -0.05074,0.02374 -0.05074,0.02107 z"
       id="path3874"
       inkscape:connector-curvature="0"
       transform="translate(0,1004.3622)" />
    <path
       style="fill:#2c89a0;fill-opacity:0.60507244"
       d="m 10.403007,16.792676 c -0.181629,-0.17508 -0.276868,-0.324852 -0.277199,-0.435917 -4.47e-4,-0.15066 0.157756,-0.429272 0.451726,-0.795535 0.13474,-0.167875 0.234256,-0.248975 0.420026,-0.342295 0.02725,-0.01369 0.05104,-0.02489 0.05286,-0.02489 0.0018,0 0.0036,0.004 0.0039,0.0088 5.22e-4,0.0076 -0.0079,0.01296 -0.06458,0.04081 -0.114093,0.05604 -0.179935,0.105362 -0.295764,0.221538 -0.17031,0.170821 -0.335922,0.395147 -0.442939,0.599974 -0.07181,0.137443 -0.09936,0.22061 -0.09916,0.299311 1.71e-4,0.06608 0.0076,0.08288 0.01692,0.03813 0.0047,-0.02259 0.01487,-0.05036 0.0175,-0.04773 8.27e-4,8.27e-4 -2.07e-4,0.0091 -0.0023,0.01844 -0.01037,0.04614 0.02264,0.114768 0.07887,0.163986 0.01072,0.0094 0.01879,0.01778 0.01792,0.01864 -8.67e-4,8.67e-4 -0.0154,-0.0055 -0.0323,-0.01414 -0.0169,-0.0086 -0.03209,-0.01571 -0.03377,-0.01571 -0.01284,0 0.01271,0.04166 0.07305,0.11914 0.06625,0.08506 0.140716,0.156882 0.181323,0.174897 0.02048,0.0091 0.04114,0.0077 0.109093,-0.0074 0.08711,-0.01934 0.198114,-0.05981 0.304396,-0.110993 0.127009,-0.06116 0.194764,-0.10809 0.284147,-0.196814 0.03907,-0.03878 0.04553,-0.04681 0.0387,-0.04805 -0.0088,-0.0016 -0.04514,0.01198 -0.100769,0.03769 -0.01911,0.0088 -0.03546,0.01534 -0.03633,0.01447 -8.73e-4,-8.73e-4 0.0099,-0.008 0.02396,-0.01587 0.04013,-0.02244 0.121513,-0.07837 0.273689,-0.1881 0.157233,-0.113372 0.178221,-0.12818 0.275391,-0.1943 0.239676,-0.163091 0.368325,-0.224932 0.428127,-0.205801 0.04432,0.01418 0.06239,0.05889 0.06787,0.167882 0.0034,0.06688 -2e-6,0.106224 -0.01217,0.142423 -0.01002,0.02981 -0.03542,0.08865 -0.03741,0.08666 -8.22e-4,-8.22e-4 0.0025,-0.01269 0.0074,-0.02637 0.0086,-0.02397 0.0089,-0.03032 0.01012,-0.175261 l 0.0012,-0.15039 -0.02874,-0.01856 c -0.01581,-0.0102 -0.02992,-0.01855 -0.03137,-0.01855 -0.0014,0 -0.0428,0.02439 -0.09189,0.0542 -0.395016,0.239838 -0.693118,0.459353 -0.92931,0.68432 l -0.05561,0.05297 -0.104554,0.03378 c -0.123784,0.03999 -0.17665,0.05611 -0.245179,0.07472 -0.05082,0.01381 -0.148143,0.03751 -0.153998,0.03751 -0.0017,0 -0.03,-0.02592 -0.06288,-0.05761 z"
       id="path3876"
       inkscape:connector-curvature="0"
       transform="translate(0,1004.3622)" />
    <path
       style="fill:#2c89a0;fill-opacity:0.60507244"
       d="m 10.522225,17.608313 c -0.04894,-0.01065 -0.06609,-0.01585 -0.06519,-0.01977 0.0032,-0.01395 0.05996,-0.07154 0.12183,-0.123602 0.121279,-0.102049 0.368047,-0.274536 0.664062,-0.464169 0.30162,-0.193223 0.487789,-0.325585 0.621094,-0.441584 0.0537,-0.04673 0.127247,-0.120991 0.156088,-0.157606 0.02705,-0.03434 0.0361,-0.03995 0.01546,-0.0096 -0.106491,0.156709 -0.264456,0.322359 -0.446942,0.468683 -0.0557,0.04466 -0.252471,0.189602 -0.254564,0.187509 -9.65e-4,-9.65e-4 0.04889,-0.04272 0.11078,-0.09279 0.126377,-0.102236 0.16082,-0.131529 0.207261,-0.176275 0.02967,-0.02859 0.03704,-0.03822 0.02924,-0.03822 -0.03048,0 -0.858966,0.555646 -1.07628,0.721838 -0.08503,0.06503 -0.109105,0.111995 -0.06932,0.135232 0.0074,0.0043 0.02674,0.0118 0.04295,0.0166 0.04346,0.01287 0.01899,0.01016 -0.05647,-0.0063 l 0,0 z"
       id="path3878"
       inkscape:connector-curvature="0"
       transform="translate(0,1004.3622)" />
    <path
       style="fill:#2c89a0;fill-opacity:0.60507244"
       d="m 10.352444,16.195751 c -3.54e-4,-0.01044 0.09634,-0.118431 0.263842,-0.294683 0.109187,-0.114889 0.14576,-0.156142 0.168485,-0.190043 0.02868,-0.04278 0.03039,-0.05766 0.0079,-0.0687 -0.0125,-0.0061 -0.01229,-0.0062 0.01665,-0.0043 0.03473,0.0023 0.06941,0.0084 0.0721,0.01278 0.0011,0.0017 -0.02132,0.02414 -0.04974,0.04982 -0.136493,0.123399 -0.290445,0.283118 -0.45875,0.475933 -0.0112,0.01283 -0.02043,0.02147 -0.02051,0.01919 l 0,0 z"
       id="path3880"
       inkscape:connector-curvature="0"
       transform="translate(0,1004.3622)" />
    <path
       style="fill:#2c89a0;fill-opacity:0.60507244"
       d="m 10.242928,16.294113 c 0,-0.0013 0.01193,-0.0083 0.02651,-0.01567 0.01458,-0.0073 0.03592,-0.02181 0.04742,-0.03215 l 0.02092,-0.01881 0.01703,0.01881 c 0.0094,0.01035 0.01703,0.02013 0.01703,0.02175 0,0.0016 -0.01554,0.004 -0.03453,0.0054 -0.02973,0.0021 -0.06243,0.0096 -0.08754,0.02013 -0.0038,0.0016 -0.0068,0.0018 -0.0068,5.37e-4 z"
       id="path3882"
       inkscape:connector-curvature="0"
       transform="translate(0,1004.3622)" />
    <path
       style="fill:#2c89a0;fill-opacity:0.60507244"
       d="m 10.873788,17.531246 c 0.06203,-0.05615 0.107563,-0.10015 0.127061,-0.122805 l 0.0228,-0.02649 0.0024,0.01111 c 0.0029,0.01298 0.01107,0.02101 0.02739,0.02672 0.0075,0.0026 0.0091,0.0042 0.0045,0.0044 -0.02339,9.97e-4 -0.103897,0.04855 -0.163075,0.09633 -0.03359,0.02712 -0.04641,0.03364 -0.02109,0.01072 z"
       id="path3884"
       inkscape:connector-curvature="0"
       transform="translate(0,1004.3622)" />
    <path
       style="fill:#2c89a0;fill-opacity:0.60507244"
       d="m 10.719491,17.649449 -0.02149,-0.0046 0.01573,-0.0026 c 0.01717,-0.0029 0.06426,-0.03322 0.11354,-0.07318 0.01629,-0.0132 0.03031,-0.02331 0.03117,-0.02246 0.0015,0.0015 -0.114167,0.108874 -0.116367,0.108001 -6.08e-4,-2.41e-4 -0.01077,-0.0025 -0.02259,-0.0051 z"
       id="path3886"
       inkscape:connector-curvature="0"
       transform="translate(0,1004.3622)" />
    <path
       style="fill:#2c89a0;fill-opacity:0.60507244"
       d="m 11.953669,17.800841 c -0.04393,-0.02934 -0.122948,-0.08441 -0.175585,-0.122378 -0.103422,-0.0746 -0.131396,-0.09393 -0.16663,-0.115176 -0.01255,-0.0076 -0.02097,-0.01377 -0.01871,-0.01377 0.01003,-2.4e-5 0.170777,0.05774 0.300572,0.108013 0.108986,0.04221 0.312447,0.127672 0.307717,0.129248 -0.002,6.58e-4 -0.03598,-0.01129 -0.07557,-0.02655 -0.141282,-0.05445 -0.300908,-0.109159 -0.318518,-0.109159 -0.01835,0 0.01212,0.03605 0.06223,0.07362 0.04379,0.03284 0.06906,0.04908 0.128924,0.08286 0.03184,0.01797 0.04422,0.02681 0.03987,0.02848 -0.005,0.0019 -0.0054,0.004 -0.0021,0.01029 0.0023,0.0043 0.0027,0.0079 9.48e-4,0.0079 -0.0018,0 -0.03921,-0.02401 -0.08315,-0.05335 z"
       id="path3888"
       inkscape:connector-curvature="0"
       transform="translate(0,1004.3622)" />
    <path
       style="fill:#2c89a0;fill-opacity:0.60507244"
       d="m 14.124943,22.214544 c 0.01289,-0.0145 0.02802,-0.03063 0.0336,-0.03584 l 0.01016,-0.0095 0,0.01582 c 0,0.0087 0.0011,0.02149 0.0025,0.02843 l 0.0025,0.01261 0.07463,-0.0014 c 0.07025,-0.0013 0.07577,-0.002 0.09416,-0.01115 0.02463,-0.01228 0.03317,-0.02717 0.04678,-0.08149 0.01884,-0.07517 0.04745,-0.134162 0.104453,-0.215363 0.05031,-0.07167 0.05846,-0.08857 0.04784,-0.0992 -0.0095,-0.0095 -0.02944,-0.0076 -0.04889,0.0048 -0.02263,0.01438 -0.03875,0.03313 -0.05665,0.06589 -0.02006,0.03671 -0.03678,0.06265 -0.03684,0.05714 -2.5e-5,-0.0025 0.0076,-0.02099 0.01698,-0.04102 0.03958,-0.08466 0.08352,-0.118826 0.142421,-0.110726 0.03071,0.0042 0.03157,0.0064 0.01164,0.03001 -0.07129,0.08432 -0.136154,0.189947 -0.160886,0.262011 -0.01604,0.04673 -0.02046,0.08631 -0.01265,0.11319 0.0035,0.01203 0.0064,0.02644 0.0064,0.03202 l 0,0.01014 -0.150792,0 -0.150793,0 0.02344,-0.02637 0,0 z"
       id="path3892"
       inkscape:connector-curvature="0"
       transform="translate(0,1004.3622)" />
    <path
       style="fill:#2c89a0;fill-opacity:0.60507244"
       d="m 14.848397,22.173418 c -0.124714,-0.194691 -0.21875,-0.346109 -0.21875,-0.352235 0,-0.0043 0.03345,0.01859 0.09281,0.06343 0.03278,0.02477 0.0588,0.04583 0.05783,0.0468 -9.76e-4,9.76e-4 -0.0099,-9.77e-4 -0.01972,-0.0043 -0.04823,-0.01644 -0.03976,0.01426 0.03842,0.139131 0.06577,0.105057 0.119806,0.188231 0.12304,0.189397 0.0016,5.65e-4 0.02635,-0.03768 0.05509,-0.08498 0.02873,-0.0473 0.05294,-0.08531 0.0538,-0.08445 8.56e-4,8.56e-4 -0.0095,0.0224 -0.02305,0.04787 -0.01353,0.02547 -0.0348,0.06829 -0.04725,0.09514 -0.01245,0.02686 -0.02477,0.05342 -0.02738,0.05903 -0.0046,0.0098 -0.0076,0.0058 -0.08483,-0.114806 z"
       id="path3894"
       inkscape:connector-curvature="0"
       transform="translate(0,1004.3622)" />
    <path
       style="fill:#2c89a0;fill-opacity:0.60507244"
       d="m 15.071053,22.017277 c 0,-0.0013 0.0088,-0.02046 0.01964,-0.04268 0.02999,-0.06167 0.02681,-0.07917 -0.0099,-0.05441 -0.0097,0.0065 -0.01759,0.01086 -0.01759,0.0096 0,-0.0012 0.0054,-0.009 0.01194,-0.01731 0.01373,-0.01733 0.02923,-0.02196 0.05605,-0.01675 l 0.01727,0.0034 -0.03676,0.05825 c -0.03701,0.05865 -0.0407,0.06408 -0.0407,0.05991 z"
       id="path3896"
       inkscape:connector-curvature="0"
       transform="translate(0,1004.3622)" />
    <path
       style="fill:#2c89a0;fill-opacity:0.60507244"
       d="m 14.298183,21.70058 c -0.0027,-0.0032 -0.0066,-0.05586 -0.01027,-0.137696 -0.0033,-0.07289 -0.0077,-0.150098 -0.0099,-0.171582 -0.0193,-0.190925 -0.06337,-0.314442 -0.118041,-0.330821 -0.01459,-0.0044 -0.01623,-0.0041 -0.02301,0.0043 -0.0058,0.0072 -0.0074,0.01623 -0.0078,0.04472 l -5.46e-4,0.0357 -0.0031,-0.03906 c -0.0017,-0.02148 -0.0038,-0.04496 -0.0046,-0.05216 l -0.0014,-0.0131 0.01933,0.0026 c 0.05859,0.0078 0.09842,0.05491 0.121715,0.144042 0.0198,0.07576 0.02705,0.147655 0.03516,0.348345 0.0033,0.08164 0.0068,0.153272 0.0078,0.15918 0.002,0.01203 0.001,0.0131 -0.0052,0.0056 z"
       id="path3898"
       inkscape:connector-curvature="0"
       transform="translate(0,1004.3622)" />
    <path
       style="fill:#2c89a0;fill-opacity:0.60507244"
       d="m 19.142338,24.357915 c -0.268762,-0.01934 -0.539818,-0.07194 -0.814453,-0.158058 -0.101368,-0.03179 -0.13139,-0.04228 -0.12207,-0.04267 0.0038,-1.57e-4 0.0068,-0.0029 0.0068,-0.0061 0,-0.0032 5.05e-4,-0.0059 0.0011,-0.0059 6.17e-4,0 0.02742,0.0088 0.05957,0.01963 0.189804,0.06374 0.394024,0.116991 0.523291,0.136442 0.05912,0.0089 0.203922,0.02115 0.332031,0.02811 0.05247,0.0028 0.183271,0.0048 0.314453,0.0047 0.230545,-1.61e-4 0.34839,-0.0051 0.45608,-0.01916 0.155856,-0.02033 0.398394,-0.101389 0.426066,-0.142395 0.0082,-0.01218 0.009,-0.01686 0.0073,-0.04297 -0.0012,-0.01816 -0.0074,-0.04687 -0.01634,-0.07551 -0.0079,-0.02542 -0.01379,-0.04686 -0.01301,-0.04764 7.86e-4,-7.86e-4 0.01606,0.03551 0.03394,0.08065 0.03111,0.07855 0.0322,0.08233 0.02528,0.0879 -0.109485,0.08815 -0.31318,0.147996 -0.590015,0.173358 -0.135034,0.01237 -0.365906,0.0201 -0.352799,0.01182 0.0073,-0.0046 0.0027,-0.0092 -0.0152,-0.01519 -0.02813,-0.0094 -0.07713,-0.0015 -0.07602,0.01226 4.94e-4,0.0061 -0.0048,0.0067 -0.05859,0.0062 -0.03252,-3.02e-4 -0.0899,-0.0028 -0.127496,-0.0055 z"
       id="path3900"
       inkscape:connector-curvature="0"
       transform="translate(0,1004.3622)" />
    <path
       style="fill:#2c89a0;fill-opacity:0.60507244"
       d="m 22.130552,25.042178 c -0.03541,-0.03488 -0.0821,-0.07855 -0.103751,-0.09703 -0.0397,-0.03389 -0.219383,-0.216377 -0.312665,-0.317541 -0.145274,-0.157549 -0.289475,-0.326854 -0.392592,-0.460938 -0.04247,-0.05523 -0.04155,-0.05363 -0.02914,-0.05051 0.0067,0.0017 0.01009,9.39e-4 0.01009,-0.0022 0,-0.0026 0.01,0.0082 0.02218,0.02399 0.137122,0.177619 0.363729,0.438327 0.516888,0.594671 0.07561,0.07718 0.133828,0.131319 0.141221,0.131319 0.01834,0 -0.0399,-0.09508 -0.159873,-0.261021 -0.03312,-0.04581 -0.05946,-0.08405 -0.05853,-0.08498 0.0019,-0.0019 0.196339,0.249495 0.257305,0.332539 0.07031,0.09577 0.177231,0.251155 0.174621,0.253765 -7.51e-4,7.51e-4 -0.03034,-0.02718 -0.06575,-0.06206 l 0,0 z"
       id="path3902"
       inkscape:connector-curvature="0"
       transform="translate(0,1004.3622)" />
    <path
       style="fill:#2c89a0;fill-opacity:0.60507244"
       d="m 25.116405,30.396482 c 0.0041,-0.0211 0.02206,-0.175617 0.03162,-0.272783 0.02217,-0.225163 0.02702,-0.316497 0.02727,-0.513672 2.37e-4,-0.185071 -0.0016,-0.22484 -0.01568,-0.332031 -0.03029,-0.231301 -0.103189,-0.465089 -0.257614,-0.826172 -0.08206,-0.19187 -0.262489,-0.582783 -0.356459,-0.772286 -0.02688,-0.05421 -0.04049,-0.0857 -0.03798,-0.08791 0.0025,-0.0022 0.01381,0.01724 0.0311,0.05338 0.01495,0.03125 0.08463,0.173712 0.154837,0.316583 0.13427,0.273242 0.170225,0.349621 0.223893,0.475605 0.203335,0.477329 0.29512,0.86477 0.285709,1.206036 -0.0057,0.206983 -0.02667,0.443743 -0.06191,0.699218 -0.0082,0.0597 -0.009,0.06256 -0.01779,0.0638 -0.0082,0.0012 -0.0089,9e-5 -0.007,-0.0098 l 0,0 z"
       id="path3904"
       inkscape:connector-curvature="0"
       transform="translate(0,1004.3622)" />
    <path
       style="fill:#2c89a0;fill-opacity:0.60507244"
       d="m 24.22757,30.570931 c -0.0028,-0.0047 -0.08034,-0.07449 -0.17223,-0.155016 -0.176386,-0.154566 -0.204495,-0.183202 -0.242394,-0.246936 -0.0786,-0.132187 -0.07948,-0.239103 -0.005,-0.60778 0.04032,-0.199512 0.05112,-0.271909 0.05593,-0.375 l 0.0027,-0.05859 0.0067,0.04687 c 0.0076,0.05276 0.0087,0.07491 0.0041,0.07682 -0.0052,0.0021 -0.07765,0.41877 -0.09259,0.532515 -0.01856,0.141269 -0.01691,0.21888 0.0061,0.288073 0.01466,0.04404 0.02476,0.06354 0.0551,0.106309 0.05371,0.07573 0.291848,0.302921 0.317515,0.302921 0.0012,0 0.0022,-0.0057 0.0023,-0.0127 8.5e-5,-0.01247 3.01e-4,-0.01231 0.01221,0.0088 0.0067,0.01182 0.02255,0.03882 0.03528,0.06001 0.01274,0.02119 0.02231,0.03938 0.02127,0.04042 -0.001,0.001 -0.0042,-0.002 -0.007,-0.0067 l 0,0 z"
       id="path3906"
       inkscape:connector-curvature="0"
       transform="translate(0,1004.3622)" />
    <path
       style="fill:#2c89a0;fill-opacity:0.60507244"
       d="m 24.931865,31.583776 c -2.56e-4,-0.0069 0.0056,-0.08866 0.0131,-0.181641 0.02023,-0.252085 0.0398,-0.517392 0.05078,-0.688592 0.0054,-0.08379 0.0105,-0.161133 0.01139,-0.171875 0.0016,-0.0194 3.25e-4,0.125166 -0.0035,0.394531 -0.0011,0.07734 -0.0012,0.138867 -1.74e-4,0.136719 0.0066,-0.01427 0.0973,-0.547972 0.109654,-0.645508 0.0021,-0.01666 0.004,-0.02051 0.01004,-0.02051 0.0047,0 0.0074,0.0027 0.0074,0.0073 0,0.02584 -0.0655,0.42181 -0.105424,0.637269 -0.01294,0.06982 -0.03749,0.211328 -0.05455,0.314453 -0.01707,0.103125 -0.03267,0.197168 -0.03467,0.208984 -0.0026,0.0156 -0.0038,0.01804 -0.0041,0.0089 z"
       id="path3908"
       inkscape:connector-curvature="0"
       transform="translate(0,1004.3622)" />
    <path
       style="fill:#2c89a0;fill-opacity:0.60507244"
       d="m 24.151457,26.787762 c -0.0023,-0.0086 -0.01754,-0.06045 -0.03378,-0.115235 -0.130544,-0.440396 -0.226166,-0.92958 -0.299449,-1.531935 -0.01224,-0.100569 -0.0087,-0.09776 0.0058,0.0046 0.05544,0.3912 0.128048,0.785592 0.226539,1.230468 0.04082,0.184391 0.06022,0.25754 0.09355,0.352757 0.02334,0.06668 0.02336,0.06676 0.018,0.06344 -0.002,-0.0012 -0.0043,8.66e-4 -0.005,0.0047 -8.61e-4,0.0042 -0.0031,7.04e-4 -0.0057,-0.0087 l 0,0 z"
       id="path3910"
       inkscape:connector-curvature="0"
       transform="translate(0,1004.3622)" />
    <path
       style="fill:#2c89a0;fill-opacity:0.60507244"
       d="m 23.771819,24.726977 c -0.0026,-0.02673 -0.02842,-0.295563 -0.0573,-0.597418 -0.0996,-1.040911 -0.185752,-1.848336 -0.248155,-2.3256 -0.01063,-0.08133 -0.01933,-0.151199 -0.01933,-0.155273 0,-0.0053 0.0028,-0.0074 0.0098,-0.0074 0.007,0 0.0098,0.0021 0.0098,0.0075 0,0.0332 0.03618,0.388001 0.07811,0.765933 0.02777,0.250293 0.06377,0.584277 0.08001,0.742187 0.05857,0.569489 0.08,0.743567 0.102179,0.829987 0.0084,0.03259 0.01245,0.0396 0.01909,0.03277 0.0029,-0.0029 0.0071,-0.01149 0.0094,-0.01901 0.004,-0.01295 0.0041,-0.01264 0.0022,0.0059 -0.01534,0.14911 -0.0089,0.401207 0.01807,0.709693 0.0024,0.02725 0.0036,0.05175 0.0027,0.05445 -9.01e-4,0.0027 -0.0038,-0.01695 -0.0064,-0.04368 l 0,0 z"
       id="path3912"
       inkscape:connector-curvature="0"
       transform="translate(0,1004.3622)" />
    <path
       style="fill:#2c89a0;fill-opacity:0.60507244"
       d="m 23.762213,23.850262 c -0.01225,-0.344915 -0.05388,-0.738845 -0.149119,-1.411286 -0.02474,-0.174644 -0.04476,-0.322301 -0.0445,-0.328125 2.59e-4,-0.0058 0.0021,-4.2e-5 0.0041,0.01285 0.02983,0.194652 0.05913,0.377976 0.08116,0.507813 0.09705,0.572047 0.138019,1.012246 0.115965,1.246094 l -0.0048,0.05078 -0.0028,-0.07813 0,0 z"
       id="path3914"
       inkscape:connector-curvature="0"
       transform="translate(0,1004.3622)" />
    <path
       style="fill:#2c89a0;fill-opacity:0.60507244"
       d="m 23.510039,21.666668 c -3.03e-4,-0.0043 -0.0057,-0.05703 -0.01207,-0.117187 -0.0063,-0.06016 -0.0151,-0.152442 -0.01947,-0.205079 -0.0095,-0.114324 -0.01536,-0.173557 -0.01873,-0.189453 l -0.0025,-0.01172 -0.0027,0.01172 c -0.0015,0.0064 -0.0029,0.0702 -0.0032,0.141677 -4.07e-4,0.114454 0.0038,0.215728 0.01321,0.32051 l 0.0022,0.02469 -0.01088,-0.0012 c -0.01285,-0.0015 -0.01181,0.0047 -0.02475,-0.14578 -0.007,-0.08105 -0.0081,-0.115589 -0.0064,-0.203125 0.0021,-0.108677 0.0063,-0.143046 0.02439,-0.198313 0.0081,-0.02468 0.02666,-0.05783 0.02787,-0.04971 4.78e-4,0.0032 0.0027,0.06917 0.005,0.146587 0.0043,0.146747 0.0103,0.243678 0.02389,0.38358 0.0044,0.04561 0.0073,0.08692 0.0064,0.0918 -0.0015,0.0076 -0.0018,0.0078 -0.0023,0.0011 l 0,0 z"
       id="path3916"
       inkscape:connector-curvature="0"
       transform="translate(0,1004.3622)" />
    <path
       style="fill:#2c89a0;fill-opacity:0.60507244"
       d="m 24.37879,23.082077 c -0.01535,-0.04936 -0.07263,-0.202613 -0.111469,-0.298221 -0.0309,-0.07606 -0.146079,-0.39262 -0.205034,-0.563514 l -0.0293,-0.08492 -0.05476,-0.289062 c -0.03012,-0.158985 -0.0591,-0.307542 -0.06441,-0.330128 -0.03912,-0.166436 -0.120289,-0.307077 -0.253037,-0.438427 l -0.05034,-0.0498 -0.06266,0 c -0.05429,0 -0.06203,-7.56e-4 -0.05796,-0.0057 0.01062,-0.01279 0.04064,-0.02329 0.06653,-0.02326 0.06696,8.4e-5 0.142566,0.06398 0.230635,0.194936 0.198846,0.295665 0.421491,0.949492 0.55402,1.626953 0.02276,0.11633 0.05225,0.288226 0.0504,0.293772 -7.04e-4,0.0021 -0.0064,-0.01258 -0.01263,-0.03266 z m -0.05913,-0.243853 c 0.0078,-0.02031 -0.0083,-0.106239 -0.0564,-0.302076 -0.0837,-0.340445 -0.182728,-0.6748 -0.246259,-0.831478 -0.06311,-0.155643 -0.07626,-0.146044 -0.04651,0.03396 0.03366,0.2037 0.07014,0.350139 0.147008,0.590148 0.04707,0.146974 0.162655,0.47202 0.179271,0.504153 0.0064,0.01244 0.01903,0.01535 0.02289,0.0053 l 0,0 z"
       id="path3918"
       inkscape:connector-curvature="0"
       transform="translate(0,1004.3622)" />
    <path
       style="fill:#2c89a0;fill-opacity:0.60507244"
       d="m 31.89683,22.125604 c -0.0023,-0.03774 -0.06336,-0.348979 -0.108509,-0.552686 -0.144492,-0.651876 -0.290106,-0.98306 -0.458611,-1.043072 -0.0124,-0.0044 -0.03081,-0.0061 -0.06367,-0.006 l -0.04622,2.37e-4 0.0088,-0.01466 c 0.01884,-0.03149 0.04252,-0.04764 0.07,-0.04773 0.07174,-2.5e-4 0.179993,0.137905 0.295271,0.376829 0.04177,0.08657 0.10983,0.242443 0.129629,0.296875 0.06513,0.179068 0.114337,0.415938 0.150927,0.726563 0.01433,0.121624 0.02643,0.250965 0.02461,0.262923 -0.0016,0.01041 -0.0016,0.01041 -0.0022,7e-4 z"
       id="path3920"
       inkscape:connector-curvature="0"
       transform="translate(0,1004.3622)" />
    <path
       style="fill:#2c89a0;fill-opacity:0.60507244"
       d="m 31.154057,21.220002 c 0,-0.019 -9.77e-4,-0.05109 -0.0022,-0.07129 l -0.0022,-0.03673 0.0232,0.06055 c 0.01276,0.0333 0.02512,0.06538 0.02746,0.07129 l 0.0043,0.01074 -0.02529,0 -0.02529,0 0,-0.03456 z"
       id="path3922"
       inkscape:connector-curvature="0"
       transform="translate(0,1004.3622)" />
  </g>
</svg>
