<?xml version="1.0" encoding="UTF-8" standalone="no"?>
<!-- Created with Inkscape (http://www.inkscape.org/) -->

<svg
   xmlns:dc="http://purl.org/dc/elements/1.1/"
   xmlns:cc="http://creativecommons.org/ns#"
   xmlns:rdf="http://www.w3.org/1999/02/22-rdf-syntax-ns#"
   xmlns:svg="http://www.w3.org/2000/svg"
   xmlns="http://www.w3.org/2000/svg"
   xmlns:xlink="http://www.w3.org/1999/xlink"
   xmlns:sodipodi="http://sodipodi.sourceforge.net/DTD/sodipodi-0.dtd"
   xmlns:inkscape="http://www.inkscape.org/namespaces/inkscape"
   width="48"
   height="48"
   id="svg2"
   version="1.1"
   inkscape:version="0.48.5 r10040"
   sodipodi:docname="png.svg"
   inkscape:export-filename="/home/andrea/Documenti/MeliaeSVG/48/mimetypes/png/text-x-preview.png"
   inkscape:export-xdpi="240"
   inkscape:export-ydpi="240">
  <defs
     id="defs4">
    <linearGradient
       id="linearGradient4203">
      <stop
         style="stop-color:#f0f0f0;stop-opacity:1;"
         offset="0"
         id="stop4205" />
      <stop
         style="stop-color:#ffffff;stop-opacity:1;"
         offset="1"
         id="stop4207" />
    </linearGradient>
    <linearGradient
       inkscape:collect="always"
       xlink:href="#linearGradient4203"
       id="linearGradient4209"
       x1="31.687183"
       y1="1045.266"
       x2="15.481234"
       y2="1013.3396"
       gradientUnits="userSpaceOnUse" />
    <radialGradient
       r="5.6500001"
       fy="1040.4387"
       fx="5.8125062"
       cy="1040.4387"
       cx="5.8125062"
       gradientTransform="matrix(0.49870722,4.056825,-4.3202812,0.54913413,4478.0245,426.06302)"
       gradientUnits="userSpaceOnUse"
       id="radialGradient3288"
       xlink:href="#linearGradient3638"
       inkscape:collect="always" />
    <linearGradient
       y2="1048.6541"
       x2="9.25"
       y1="1038.1541"
       x1="4.2053571"
       gradientTransform="matrix(2.3333333,0,0,2.3333333,-27.183171,-1407.4074)"
       gradientUnits="userSpaceOnUse"
       id="linearGradient3286"
       xlink:href="#linearGradient3616"
       inkscape:collect="always" />
    <linearGradient
       y2="1049.7424"
       x2="9.3839283"
       y1="1039.5621"
       x1="5.2767859"
       gradientTransform="matrix(2.349315,0,0,2.349315,-27.311024,-1424.0981)"
       gradientUnits="userSpaceOnUse"
       id="linearGradient3284"
       xlink:href="#linearGradient3592"
       inkscape:collect="always" />
    <linearGradient
       id="linearGradient3638">
      <stop
         style="stop-color:#9cc430;stop-opacity:1;"
         offset="0"
         id="stop3640" />
      <stop
         style="stop-color:#619508;stop-opacity:1;"
         offset="1"
         id="stop3642" />
    </linearGradient>
    <linearGradient
       id="linearGradient3616">
      <stop
         style="stop-color:#828282;stop-opacity:1;"
         offset="0"
         id="stop3618" />
      <stop
         style="stop-color:#282828;stop-opacity:1;"
         offset="1"
         id="stop3620" />
    </linearGradient>
    <linearGradient
       id="linearGradient3592">
      <stop
         style="stop-color:#ffffff;stop-opacity:1;"
         offset="0"
         id="stop3594" />
      <stop
         style="stop-color:#c8c8c8;stop-opacity:1;"
         offset="1"
         id="stop3596" />
    </linearGradient>
    <linearGradient
       id="linearGradient3724-7">
      <stop
         id="stop3726"
         offset="0"
         style="stop-color:#ffff00;stop-opacity:1;" />
      <stop
         id="stop3729"
         offset="1"
         style="stop-color:#ffff00;stop-opacity:0;" />
    </linearGradient>
    <linearGradient
       y2="36.5"
       x2="-29.21875"
       y1="0.26975113"
       x1="-29.21875"
       gradientUnits="userSpaceOnUse"
       id="linearGradient3765-8"
       xlink:href="#linearGradient3724-7"
       inkscape:collect="always" />
  </defs>
  <sodipodi:namedview
     id="base"
     pagecolor="#ffffff"
     bordercolor="#666666"
     borderopacity="1.0"
     inkscape:pageopacity="0.0"
     inkscape:pageshadow="2"
     inkscape:zoom="7.919596"
     inkscape:cx="-10.63653"
     inkscape:cy="35.920116"
     inkscape:document-units="px"
     inkscape:current-layer="g3230"
     showgrid="false"
     inkscape:window-width="1397"
     inkscape:window-height="684"
     inkscape:window-x="282"
     inkscape:window-y="5"
     inkscape:window-maximized="0" />
  <metadata
     id="metadata7">
    <rdf:RDF>
      <cc:Work
         rdf:about="">
        <dc:format>image/svg+xml</dc:format>
        <dc:type
           rdf:resource="http://purl.org/dc/dcmitype/StillImage" />
        <dc:title />
      </cc:Work>
    </rdf:RDF>
  </metadata>
  <g
     inkscape:label="Livello 1"
     inkscape:groupmode="layer"
     id="layer1"
     transform="translate(0,-1004.3622)">
    <rect
       ry="1.0238097"
       rx="1.03125"
       y="1006.8622"
       x="7.5"
       height="43"
       width="33"
       id="rect4211"
       style="fill:#646464;fill-opacity:0.47058824;stroke:none" />
    <rect
       style="fill:url(#linearGradient4209);fill-opacity:1;stroke:none"
       id="rect3429"
       width="32"
       height="42"
       x="8"
       y="1007.3622"
       rx="1"
       ry="1" />
    <g
       id="layer1-0"
       inkscape:label="Livello 1"
       transform="matrix(0.59574468,0,0,0.59574468,9.7021277,421.70578)">
      <g
         transform="translate(3.3609641e-7,-0.14982919)"
         id="g3254">
        <g
           id="g3230"
           transform="matrix(0.86013283,0,0,0.86013283,62.129873,133.34401)">
          <g
             transform="matrix(1.3929506,0.13217106,-0.14037487,1.3115436,111.55187,-309.40451)"
             id="g3644">
            <rect
               y="1011.9377"
               x="-26.016504"
               height="35"
               width="35"
               id="rect2842"
               style="fill:#646464;fill-opacity:0.78431373;fill-rule:nonzero;stroke:none" />
            <rect
               style="fill:url(#linearGradient3284);fill-opacity:1;fill-rule:nonzero;stroke:none"
               id="rect2844"
               width="34.299999"
               height="34.299999"
               x="-25.666504"
               y="1012.2877" />
            <rect
               style="fill:url(#linearGradient3286);fill-opacity:1;fill-rule:nonzero;stroke:none"
               id="rect2846"
               width="29.166666"
               height="24.5"
               x="-23.099838"
               y="1014.952" />
            <rect
               y="1015.2098"
               x="-22.846214"
               height="23.984211"
               width="28.65942"
               id="rect2848"
               style="fill:url(#radialGradient3288);fill-opacity:1;fill-rule:nonzero;stroke:none" />
          </g>
          <g
             id="g3733"
             transform="matrix(0.73002262,0.06758019,-0.06815386,0.67668183,47.30664,341.10473)"
             inkscape:transform-center-x="1.120171">
            <path
               sodipodi:end="3.1415927"
               sodipodi:start="2.6179939"
               transform="matrix(0.73632609,0,0,-0.73632609,7.7898474,1071.1852)"
               d="m -76.718326,56.460025 c -2.681947,-4.645268 -4.093877,-9.914663 -4.093876,-15.278557 l 30.557113,10e-7 z"
               sodipodi:ry="30.557114"
               sodipodi:rx="30.557114"
               sodipodi:cy="41.181469"
               sodipodi:cx="-50.255089"
               id="path3684"
               style="fill:#8264c8;fill-opacity:1;fill-rule:nonzero;stroke:none"
               sodipodi:type="arc" />
            <path
               sodipodi:type="arc"
               style="fill:#467192;fill-opacity:1;fill-rule:nonzero;stroke:none"
               id="path3686"
               sodipodi:cx="-50.255089"
               sodipodi:cy="41.181469"
               sodipodi:rx="30.557114"
               sodipodi:ry="30.557114"
               d="m -65.533646,67.644706 c -4.645268,-2.681947 -8.502733,-6.539412 -11.18468,-11.184681 l 26.463237,-15.278556 z"
               transform="matrix(0.73632609,0,0,-0.73632609,7.7898474,1071.1852)"
               sodipodi:start="2.0943951"
               sodipodi:end="2.6179939" />
            <path
               sodipodi:end="2.0943951"
               sodipodi:start="1.5707963"
               transform="matrix(0.73632609,0,0,-0.73632609,7.7898474,1071.1852)"
               d="m -50.255088,71.738583 c -5.363894,0 -10.633289,-1.41193 -15.278558,-4.093877 l 15.278557,-26.463237 z"
               sodipodi:ry="30.557114"
               sodipodi:rx="30.557114"
               sodipodi:cy="41.181469"
               sodipodi:cx="-50.255089"
               id="path3688"
               style="fill:#9cc430;fill-opacity:1;fill-rule:nonzero;stroke:none"
               sodipodi:type="arc" />
            <path
               sodipodi:type="arc"
               style="fill:#fd8011;fill-opacity:1;fill-rule:nonzero;stroke:none"
               id="path3690"
               sodipodi:cx="-50.255089"
               sodipodi:cy="41.181469"
               sodipodi:rx="30.557114"
               sodipodi:ry="30.557114"
               d="m -34.976533,67.644706 c -4.645268,2.681947 -9.914662,4.093876 -15.278555,4.093877 l -10e-7,-30.557114 z"
               transform="matrix(0.73632609,0,0,-0.73632609,7.7898474,1071.1852)"
               sodipodi:start="1.0471976"
               sodipodi:end="1.5707963" />
            <path
               sodipodi:end="1.0471976"
               sodipodi:start="0.52359878"
               transform="matrix(0.73632609,0,0,-0.73632609,7.7898474,1071.1852)"
               d="m -23.791852,56.460026 c -2.681947,4.645269 -6.539412,8.502734 -11.184681,11.18468 L -50.255089,41.181469 z"
               sodipodi:ry="30.557114"
               sodipodi:rx="30.557114"
               sodipodi:cy="41.181469"
               sodipodi:cx="-50.255089"
               id="path3692"
               style="fill:#e3b216;fill-opacity:1;fill-rule:nonzero;stroke:none"
               sodipodi:type="arc" />
            <path
               sodipodi:type="arc"
               style="fill:#de220c;fill-opacity:1;fill-rule:nonzero;stroke:none"
               id="path3694"
               sodipodi:cx="-50.255089"
               sodipodi:cy="41.181469"
               sodipodi:rx="30.557114"
               sodipodi:ry="30.557114"
               d="m -19.697975,41.181469 c 0,5.363894 -1.41193,10.633289 -4.093877,15.278557 L -50.255089,41.181469 z"
               transform="matrix(0.73632609,0,0,-0.73632609,7.7898474,1071.1852)"
               sodipodi:start="0"
               sodipodi:end="0.52359878" />
            <path
               inkscape:connector-curvature="0"
               id="path3710"
               transform="translate(0,1004.3622)"
               d="m -29.21875,14 c -3.949575,0 -7.829568,1.025212 -11.25,3 -3.420432,1.974788 -6.243963,4.829568 -8.21875,8.25 -1.974787,3.420432 -3.03125,7.300425 -3.03125,11.25 l 22.5,0 22.5,0 c 0,-3.949575 -1.0252125,-7.829568 -3,-11.25 -1.974788,-3.420433 -4.829567,-6.275213 -8.25,-8.25 -3.420432,-1.974787 -7.300426,-3 -11.25,-3 z"
               style="fill:url(#linearGradient3765-8);fill-opacity:1;fill-rule:nonzero;stroke:none" />
          </g>
        </g>
      </g>
    </g>
    <path
       style="fill:#fd8011;fill-opacity:1;fill-rule:nonzero;stroke:none"
       d="M 8 5.5 L 8 13.5 L 28 13.5 C 30.209139 13.5 32 11.709139 32 9.5 C 32 7.290861 30.209139 5.5 28 5.5 L 8 5.5 z M 18.9375 7.53125 C 19.10156 7.5312539 19.240232 7.5390663 19.375 7.5625 C 19.509763 7.5839882 19.619138 7.6230506 19.71875 7.65625 C 19.820309 7.6875037 19.902341 7.7128943 19.96875 7.75 C 20.035153 7.787113 20.099606 7.8164098 20.125 7.84375 C 20.15234 7.8710973 20.175778 7.9179722 20.1875 7.96875 C 20.199215 8.0175815 20.187497 8.089847 20.1875 8.1875 C 20.187497 8.2441438 20.193356 8.3027375 20.1875 8.34375 C 20.18359 8.3847686 20.166012 8.4121124 20.15625 8.4375 C 20.148434 8.4609404 20.138668 8.4902373 20.125 8.5 C 20.113278 8.5097685 20.111325 8.5000029 20.09375 8.5 C 20.068356 8.5000029 20.025387 8.4726592 19.96875 8.4375 C 19.912106 8.4023467 19.843747 8.3847686 19.75 8.34375 C 19.656247 8.3027375 19.537107 8.2539094 19.40625 8.21875 C 19.277341 8.183597 19.109373 8.1562532 18.9375 8.15625 C 18.753904 8.1562532 18.585936 8.2168001 18.4375 8.28125 C 18.289061 8.3437531 18.167967 8.4140655 18.0625 8.53125 C 17.95703 8.6464871 17.869139 8.8046901 17.8125 8.96875 C 17.755858 9.1308617 17.749999 9.3027365 17.75 9.5 C 17.749999 9.7167986 17.755858 9.8964859 17.8125 10.0625 C 17.871093 10.226564 17.958983 10.357423 18.0625 10.46875 C 18.166014 10.580079 18.292967 10.66211 18.4375 10.71875 C 18.583983 10.775391 18.761717 10.812501 18.9375 10.8125 C 19.023435 10.812501 19.103513 10.800782 19.1875 10.78125 C 19.271482 10.761719 19.333982 10.726563 19.40625 10.6875 L 19.40625 9.8125 L 18.6875 9.8125 C 18.652342 9.8125016 18.644529 9.7929703 18.625 9.75 C 18.605467 9.7050798 18.593748 9.6367205 18.59375 9.53125 C 18.593748 9.4765644 18.589842 9.4433613 18.59375 9.40625 C 18.599608 9.3691427 18.615233 9.3339864 18.625 9.3125 C 18.634764 9.2890646 18.642576 9.2597678 18.65625 9.25 C 18.66992 9.2382834 18.66992 9.2500022 18.6875 9.25 L 19.96875 9.25 C 19.999997 9.2500022 20.039059 9.2382834 20.0625 9.25 C 20.087887 9.2597678 20.107419 9.2910177 20.125 9.3125 C 20.144528 9.3339864 20.146481 9.343752 20.15625 9.375 C 20.166012 9.4042989 20.187497 9.4609394 20.1875 9.5 L 20.1875 11 C 20.187497 11.058594 20.177731 11.111328 20.15625 11.15625 C 20.136715 11.199219 20.0957 11.22461 20.03125 11.25 C 19.968747 11.275391 19.874997 11.316406 19.78125 11.34375 C 19.687497 11.371094 19.60156 11.386719 19.5 11.40625 C 19.400388 11.425781 19.291013 11.427734 19.1875 11.4375 C 19.085935 11.447266 18.978513 11.46875 18.875 11.46875 C 18.572264 11.46875 18.302733 11.429687 18.0625 11.34375 C 17.824218 11.25586 17.634765 11.132813 17.46875 10.96875 C 17.302734 10.802735 17.18164 10.580079 17.09375 10.34375 C 17.005859 10.10547 16.9375 9.8320328 16.9375 9.53125 C 16.9375 9.2207053 17 8.9648462 17.09375 8.71875 C 17.1875 8.4707061 17.328124 8.2343781 17.5 8.0625 C 17.671874 7.8886754 17.882811 7.7793005 18.125 7.6875 C 18.369139 7.5957069 18.63867 7.5312539 18.9375 7.53125 z M 10.25 7.59375 L 11.15625 7.59375 C 11.246092 7.5937538 11.32617 7.6171913 11.40625 7.625 C 11.488279 7.6308631 11.574217 7.6328163 11.6875 7.65625 C 11.800779 7.6777381 11.916013 7.7207068 12.03125 7.78125 C 12.148435 7.8418004 12.261716 7.9062535 12.34375 8 C 12.425778 8.0918002 12.488278 8.2187532 12.53125 8.34375 C 12.574216 8.4667998 12.593747 8.5957059 12.59375 8.75 C 12.593747 8.9628931 12.566403 9.1484397 12.5 9.3125 C 12.433591 9.4765644 12.3457 9.6367205 12.21875 9.75 C 12.091794 9.8613297 11.935545 9.9414077 11.75 10 C 11.566404 10.058595 11.343748 10.093751 11.09375 10.09375 L 10.78125 10.09375 L 10.78125 11.28125 C 10.781249 11.300781 10.763671 11.328125 10.75 11.34375 C 10.73828 11.359375 10.716796 11.365234 10.6875 11.375 C 10.658202 11.384766 10.611327 11.400391 10.5625 11.40625 C 10.513671 11.412109 10.451171 11.40625 10.375 11.40625 C 10.300781 11.40625 10.238281 11.412109 10.1875 11.40625 C 10.138671 11.400391 10.123046 11.384766 10.09375 11.375 C 10.064453 11.365234 10.042968 11.359375 10.03125 11.34375 C 10.019531 11.328125 9.9999996 11.300781 10 11.28125 L 10 7.875 C 9.9999996 7.7832067 10.015625 7.7324256 10.0625 7.6875 C 10.111328 7.6406288 10.171874 7.5937538 10.25 7.59375 z M 13.46875 7.59375 L 13.875 7.59375 C 13.949218 7.5937538 14.011718 7.6113319 14.0625 7.625 C 14.11328 7.6367225 14.179686 7.6582069 14.21875 7.6875 C 14.259764 7.7168006 14.277342 7.7597693 14.3125 7.8125 C 14.347655 7.8632848 14.400389 7.9238316 14.4375 8 L 15.1875 9.375 C 15.230466 9.4589863 15.271482 9.5429706 15.3125 9.625 C 15.355466 9.7050798 15.398435 9.7929703 15.4375 9.875 C 15.47656 9.9550796 15.494138 10.046876 15.53125 10.125 C 15.568357 10.203126 15.621091 10.265626 15.65625 10.34375 C 15.650388 10.207032 15.628903 10.085939 15.625 9.9375 C 15.623044 9.7890641 15.624997 9.6347674 15.625 9.5 L 15.625 7.71875 C 15.624997 7.6992224 15.644528 7.6718787 15.65625 7.65625 C 15.667966 7.6406287 15.691403 7.6367225 15.71875 7.625 C 15.746091 7.613285 15.767575 7.59766 15.8125 7.59375 C 15.857419 7.5878944 15.929684 7.5937538 16 7.59375 C 16.066403 7.5937538 16.111325 7.5878944 16.15625 7.59375 C 16.201168 7.59766 16.226559 7.613285 16.25 7.625 C 16.275387 7.6367225 16.302731 7.6406287 16.3125 7.65625 C 16.322262 7.6718787 16.312496 7.6992224 16.3125 7.71875 L 16.3125 11.125 C 16.312496 11.169922 16.328121 11.214844 16.3125 11.25 C 16.296871 11.285156 16.27734 11.320313 16.25 11.34375 C 16.224606 11.367188 16.193356 11.363281 16.15625 11.375 C 16.12109 11.384766 16.068356 11.40625 16.03125 11.40625 L 15.71875 11.40625 C 15.650388 11.40625 15.582028 11.388672 15.53125 11.375 C 15.482419 11.361328 15.417966 11.347656 15.375 11.3125 C 15.333982 11.275391 15.32031 11.216797 15.28125 11.15625 C 15.242185 11.09375 15.173826 11.003907 15.125 10.90625 L 14.1875 9.15625 C 14.132811 9.0507836 14.087889 8.9335962 14.03125 8.8125 C 13.974608 8.6894558 13.919921 8.5527372 13.875 8.4375 C 13.882811 8.5781278 13.871093 8.7343777 13.875 8.875 C 13.878905 9.0136743 13.906249 9.1640647 13.90625 9.3125 L 13.90625 11.28125 C 13.906249 11.300781 13.886718 11.328125 13.875 11.34375 C 13.865233 11.359375 13.839843 11.363281 13.8125 11.375 C 13.787108 11.384766 13.763671 11.400391 13.71875 11.40625 C 13.673827 11.412109 13.601562 11.40625 13.53125 11.40625 C 13.46289 11.40625 13.419921 11.412109 13.375 11.40625 C 13.330078 11.400391 13.30664 11.384766 13.28125 11.375 C 13.255859 11.363281 13.228515 11.359375 13.21875 11.34375 C 13.208984 11.328125 13.1875 11.300781 13.1875 11.28125 L 13.1875 7.875 C 13.1875 7.7832067 13.228515 7.7324256 13.28125 7.6875 C 13.335937 7.6406288 13.390624 7.5937538 13.46875 7.59375 z M 10.78125 8.1875 L 10.78125 9.5 L 11.125 9.5 C 11.248045 9.5000019 11.355467 9.4707051 11.4375 9.4375 C 11.521482 9.4042989 11.572264 9.3710958 11.625 9.3125 C 11.677732 9.2519553 11.722654 9.1757835 11.75 9.09375 C 11.777342 9.009768 11.781248 8.9101587 11.78125 8.8125 C 11.781248 8.6796902 11.765623 8.5546903 11.71875 8.46875 C 11.671873 8.3828155 11.630857 8.3222687 11.5625 8.28125 C 11.494139 8.2402375 11.41992 8.2285188 11.34375 8.21875 C 11.26953 8.2070344 11.173827 8.1875032 11.09375 8.1875 L 10.78125 8.1875 z "
       transform="translate(0,1004.3622)"
       id="rect3551" />
  </g>
</svg>
