<?xml version="1.0" encoding="UTF-8" standalone="no"?>
<!-- Created with Inkscape (http://www.inkscape.org/) -->

<svg
   xmlns:dc="http://purl.org/dc/elements/1.1/"
   xmlns:cc="http://creativecommons.org/ns#"
   xmlns:rdf="http://www.w3.org/1999/02/22-rdf-syntax-ns#"
   xmlns:svg="http://www.w3.org/2000/svg"
   xmlns="http://www.w3.org/2000/svg"
   xmlns:xlink="http://www.w3.org/1999/xlink"
   xmlns:sodipodi="http://sodipodi.sourceforge.net/DTD/sodipodi-0.dtd"
   xmlns:inkscape="http://www.inkscape.org/namespaces/inkscape"
   width="48"
   height="48"
   id="svg2"
   version="1.1"
   inkscape:version="0.48.5 r10040"
   sodipodi:docname="psd.svg"
   inkscape:export-filename="/home/andrea/Documenti/MeliaeSVG/48/mimetypes/png/text-x-preview.png"
   inkscape:export-xdpi="240"
   inkscape:export-ydpi="240">
  <defs
     id="defs4">
    <linearGradient
       id="linearGradient4203">
      <stop
         style="stop-color:#f0f0f0;stop-opacity:1;"
         offset="0"
         id="stop4205" />
      <stop
         style="stop-color:#ffffff;stop-opacity:1;"
         offset="1"
         id="stop4207" />
    </linearGradient>
    <linearGradient
       inkscape:collect="always"
       xlink:href="#linearGradient4203"
       id="linearGradient4209"
       x1="31.687183"
       y1="1045.266"
       x2="15.481234"
       y2="1013.3396"
       gradientUnits="userSpaceOnUse" />
    <linearGradient
       id="SVGID_2_"
       gradientUnits="userSpaceOnUse"
       x1="113.7256"
       y1="26.954599"
       x2="178.7258"
       y2="242.95531">
      <stop
         offset="0"
         style="stop-color:#090058"
         id="stop25" />
      <stop
         offset="1"
         style="stop-color:#070033"
         id="stop27" />
    </linearGradient>
    <linearGradient
       id="SVGID_3_"
       gradientUnits="userSpaceOnUse"
       x1="37.1362"
       y1="-2.4779999"
       x2="152.1362"
       y2="240.522">
      <stop
         offset="0"
         style="stop-color:#A0CBFF"
         id="stop35" />
      <stop
         offset="0.3941"
         style="stop-color:#A0CBFE"
         id="stop37" />
      <stop
         offset="0.583"
         style="stop-color:#8EC2FC"
         id="stop39" />
      <stop
         offset="0.7838"
         style="stop-color:#83BCFB"
         id="stop41" />
      <stop
         offset="1"
         style="stop-color:#7FBAFB"
         id="stop43" />
    </linearGradient>
    <linearGradient
       id="SVGID_4_"
       gradientUnits="userSpaceOnUse"
       x1="102.6431"
       y1="-34.2061"
       x2="218.0972"
       y2="209.7536">
      <stop
         offset="0"
         style="stop-color:#A0CBFF"
         id="stop50" />
      <stop
         offset="0.3941"
         style="stop-color:#A0CBFE"
         id="stop52" />
      <stop
         offset="0.583"
         style="stop-color:#8EC2FC"
         id="stop54" />
      <stop
         offset="0.7838"
         style="stop-color:#83BCFB"
         id="stop56" />
      <stop
         offset="1"
         style="stop-color:#7FBAFB"
         id="stop58" />
    </linearGradient>
  </defs>
  <sodipodi:namedview
     id="base"
     pagecolor="#ffffff"
     bordercolor="#666666"
     borderopacity="1.0"
     inkscape:pageopacity="0.0"
     inkscape:pageshadow="2"
     inkscape:zoom="5.6"
     inkscape:cx="-25.322828"
     inkscape:cy="34.46325"
     inkscape:document-units="px"
     inkscape:current-layer="layer1"
     showgrid="false"
     inkscape:window-width="1920"
     inkscape:window-height="1056"
     inkscape:window-x="0"
     inkscape:window-y="0"
     inkscape:window-maximized="1" />
  <metadata
     id="metadata7">
    <rdf:RDF>
      <cc:Work
         rdf:about="">
        <dc:format>image/svg+xml</dc:format>
        <dc:type
           rdf:resource="http://purl.org/dc/dcmitype/StillImage" />
        <dc:title />
      </cc:Work>
    </rdf:RDF>
  </metadata>
  <g
     inkscape:label="Livello 1"
     inkscape:groupmode="layer"
     id="layer1"
     transform="translate(0,-1004.3622)">
    <rect
       ry="1.0238097"
       rx="1.03125"
       y="1006.8622"
       x="7.5"
       height="43"
       width="33"
       id="rect4211"
       style="fill:#646464;fill-opacity:0.47058824;stroke:none" />
    <rect
       style="fill:url(#linearGradient4209);fill-opacity:1;stroke:none"
       id="rect3429"
       width="32"
       height="42"
       x="8"
       y="1007.3622"
       rx="1"
       ry="1" />
    <path
       style="fill:#fd8011;fill-opacity:1;fill-rule:nonzero;stroke:none"
       d="m 8,5.5 0,8 20,0 c 2.209139,0 4,-1.790861 4,-4 0,-2.209139 -1.790861,-4 -4,-4 z"
       id="rect3551"
       inkscape:connector-curvature="0"
       sodipodi:nodetypes="ccsssc"
       transform="translate(0,1004.3622)" />
    <g
       transform="matrix(0.09609036,0,0,0.09146861,9.3719815,1020.2694)"
       id="Layer_2">
      <g
         id="g22">
        <linearGradient
           id="linearGradient3058"
           gradientUnits="userSpaceOnUse"
           x1="113.7256"
           y1="26.954599"
           x2="178.7258"
           y2="242.95531">
          <stop
             offset="0"
             style="stop-color:#090058"
             id="stop3060" />
          <stop
             offset="1"
             style="stop-color:#070033"
             id="stop3062" />
        </linearGradient>
        <rect
           style="fill:url(#SVGID_2_)"
           x="23.858999"
           y="23.459"
           width="252.284"
           height="248.082"
           id="rect29" />
      </g>
    </g>
    <text
       xml:space="preserve"
       style="font-size:8px;font-style:normal;font-weight:normal;line-height:125%;letter-spacing:0px;word-spacing:0px;fill:#ffffff;fill-opacity:1;stroke:none;font-family:sans-serif"
       x="11.111678"
       y="1016.6281"
       id="text3159"
       sodipodi:linespacing="125%"><tspan
         sodipodi:role="line"
         id="tspan3161"
         x="11.111678"
         y="1016.6281">PSD</tspan></text>
    <g
       transform="matrix(0.0783648,0,0,0.07079452,12.03099,1023.5906)"
       id="Layer_4">
      <g
         id="g32">
        <linearGradient
           id="linearGradient3089"
           gradientUnits="userSpaceOnUse"
           x1="37.1362"
           y1="-2.4779999"
           x2="152.1362"
           y2="240.522">
          <stop
             offset="0"
             style="stop-color:#A0CBFF"
             id="stop3091" />
          <stop
             offset="0.3941"
             style="stop-color:#A0CBFE"
             id="stop3093" />
          <stop
             offset="0.583"
             style="stop-color:#8EC2FC"
             id="stop3095" />
          <stop
             offset="0.7838"
             style="stop-color:#83BCFB"
             id="stop3097" />
          <stop
             offset="1"
             style="stop-color:#7FBAFB"
             id="stop3099" />
        </linearGradient>
        <path
           style="fill:url(#SVGID_3_)"
           inkscape:connector-curvature="0"
           d="m 72.498,83.144 c 0,0 18.968,-0.499 34.582,-0.499 15.778,0 27.028,3.712 34.581,10.235 7.219,6.164 12.087,16.672 12.087,28.634 0,11.962 -3.694,21.75 -10.41,28.633 -8.729,8.881 -18.901,14.137 -36.258,14.865 -4.795,0.201 -9.233,0.249 -9.233,0.249 v 38.884 h -25.35 l 0.001,-121.001 0,0 z m 25.348,60.573 c 2.754,0.268 4.48,0.139 8.562,0.09 13.598,-0.163 21.989,-8.432 21.989,-20.937 0,-11.234 -6.919,-20.458 -19.973,-20.936 -5.203,-0.19 -10.578,0 -10.578,0 v 41.783 z"
           id="path45" />
        <g
           id="g47">
          <linearGradient
             id="linearGradient3103"
             gradientUnits="userSpaceOnUse"
             x1="102.6431"
             y1="-34.2061"
             x2="218.0972"
             y2="209.7536">
            <stop
               offset="0"
               style="stop-color:#A0CBFF"
               id="stop3105" />
            <stop
               offset="0.3941"
               style="stop-color:#A0CBFE"
               id="stop3107" />
            <stop
               offset="0.583"
               style="stop-color:#8EC2FC"
               id="stop3109" />
            <stop
               offset="0.7838"
               style="stop-color:#83BCFB"
               id="stop3111" />
            <stop
               offset="1"
               style="stop-color:#7FBAFB"
               id="stop3113" />
          </linearGradient>
          <path
             style="fill:url(#SVGID_4_)"
             inkscape:connector-curvature="0"
             d="m 163.422,177.055 c 5.109,3.135 17.165,7.83 25.383,7.83 8.396,0 11.863,-2.959 11.863,-7.572 0,-4.619 -2.738,-9.471 -13.145,-12.979 -18.439,-6.279 -25.559,-13.795 -25.375,-24.315 0,-16.991 14.238,-29.731 36.328,-29.731 10.407,0 18.719,3.402 24.192,6.17 v 20.392 c -4.019,-2.218 -15.612,-7.17 -23.278,-7.17 -6.758,0 -10.59,2.769 -10.59,7.382 0,4.248 3.471,6.464 14.424,10.344 16.976,5.908 24.096,14.584 24.277,27.879 0,16.805 -12.954,30.168 -38.701,29.357 -8.835,-0.278 -18.624,-3.77 -25.379,-7.459 v -20.128 z"
             id="path60" />
        </g>
      </g>
    </g>
  </g>
</svg>
