<?xml version="1.0" encoding="UTF-8" standalone="no"?>
<!-- Created with Inkscape (http://www.inkscape.org/) -->

<svg
   xmlns:dc="http://purl.org/dc/elements/1.1/"
   xmlns:cc="http://creativecommons.org/ns#"
   xmlns:rdf="http://www.w3.org/1999/02/22-rdf-syntax-ns#"
   xmlns:svg="http://www.w3.org/2000/svg"
   xmlns="http://www.w3.org/2000/svg"
   xmlns:xlink="http://www.w3.org/1999/xlink"
   xmlns:sodipodi="http://sodipodi.sourceforge.net/DTD/sodipodi-0.dtd"
   xmlns:inkscape="http://www.inkscape.org/namespaces/inkscape"
   width="48"
   height="48"
   id="svg2"
   version="1.1"
   inkscape:version="0.92.3 (2405546, 2018-03-11)"
   sodipodi:docname="blog.app.svg"
   inkscape:export-filename="/home/andrea/Documenti/MeliaeSVG/48/mimetypes/png/ppt.png"
   inkscape:export-xdpi="240"
   inkscape:export-ydpi="240">
  <defs
     id="defs4">
    <linearGradient
       id="linearGradient4203">
      <stop
         style="stop-color:#f0f0f0;stop-opacity:1;"
         offset="0"
         id="stop4205" />
      <stop
         style="stop-color:#ffffff;stop-opacity:1;"
         offset="1"
         id="stop4207" />
    </linearGradient>
    <linearGradient
       inkscape:collect="always"
       xlink:href="#linearGradient4203"
       id="linearGradient4209"
       x1="31.687183"
       y1="1045.266"
       x2="15.481234"
       y2="1013.3396"
       gradientUnits="userSpaceOnUse" />
    <linearGradient
       id="linearGradient3905">
      <stop
         style="stop-color:#bebebe;stop-opacity:1;"
         offset="0"
         id="stop3907" />
      <stop
         style="stop-color:#969696;stop-opacity:1;"
         offset="1"
         id="stop3909" />
    </linearGradient>
    <linearGradient
       id="linearGradient3889">
      <stop
         style="stop-color:#c8c8c8;stop-opacity:1;"
         offset="0"
         id="stop3891" />
      <stop
         style="stop-color:#f0f0f0;stop-opacity:1;"
         offset="1"
         id="stop3893" />
    </linearGradient>
    <linearGradient
       id="linearGradient3619-0">
      <stop
         id="stop3621-5"
         offset="0"
         style="stop-color:#787878;stop-opacity:1;" />
      <stop
         id="stop3623-7"
         offset="1"
         style="stop-color:#f0f0f0;stop-opacity:1;" />
    </linearGradient>
    <linearGradient
       id="linearGradient3897">
      <stop
         style="stop-color:#a0a0a0;stop-opacity:1;"
         offset="0"
         id="stop3899" />
      <stop
         style="stop-color:#c8c8c8;stop-opacity:1;"
         offset="1"
         id="stop3901" />
    </linearGradient>
    <radialGradient
       inkscape:collect="always"
       xlink:href="#linearGradient3914"
       id="radialGradient3920"
       cx="27.678572"
       cy="44.607143"
       fx="27.678572"
       fy="44.607143"
       r="13.392857"
       gradientTransform="matrix(1.3016989,0,0,0.38203391,-12.593853,1027.2221)"
       gradientUnits="userSpaceOnUse" />
    <linearGradient
       id="linearGradient3914">
      <stop
         style="stop-color:#646464;stop-opacity:1;"
         offset="0"
         id="stop3916" />
      <stop
         style="stop-color:#333333;stop-opacity:0;"
         offset="1"
         id="stop3918" />
    </linearGradient>
    <linearGradient
       inkscape:collect="always"
       xlink:href="#linearGradient3908"
       id="linearGradient3905-0"
       gradientUnits="userSpaceOnUse"
       gradientTransform="matrix(0.69580397,0,0,0.69580397,4.019014,315.09191)"
       x1="31.687183"
       y1="1045.266"
       x2="15.481234"
       y2="1013.3396" />
    <linearGradient
       id="linearGradient3908">
      <stop
         style="stop-color:#c8c8c8;stop-opacity:1;"
         offset="0"
         id="stop3910" />
      <stop
         style="stop-color:#e6e6e6;stop-opacity:1;"
         offset="1"
         id="stop3912" />
    </linearGradient>
    <linearGradient
       inkscape:collect="always"
       xlink:href="#linearGradient4203"
       id="linearGradient3137"
       gradientUnits="userSpaceOnUse"
       x1="31.687183"
       y1="1045.266"
       x2="15.481234"
       y2="1013.3396"
       gradientTransform="matrix(0.69580397,0,0,0.69580397,10.019014,317.09191)" />
  </defs>
  <sodipodi:namedview
     id="base"
     pagecolor="#ffffff"
     bordercolor="#666666"
     borderopacity="1.0"
     inkscape:pageopacity="0.0"
     inkscape:pageshadow="2"
     inkscape:zoom="5.6"
     inkscape:cx="5.1562489"
     inkscape:cy="28.660732"
     inkscape:document-units="px"
     inkscape:current-layer="layer1"
     showgrid="false"
     inkscape:window-width="1596"
     inkscape:window-height="721"
     inkscape:window-x="125"
     inkscape:window-y="221"
     inkscape:window-maximized="0" />
  <metadata
     id="metadata7">
    <rdf:RDF>
      <cc:Work
         rdf:about="">
        <dc:format>image/svg+xml</dc:format>
        <dc:type
           rdf:resource="http://purl.org/dc/dcmitype/StillImage" />
        <dc:title></dc:title>
      </cc:Work>
    </rdf:RDF>
  </metadata>
  <g
     inkscape:label="Livello 1"
     inkscape:groupmode="layer"
     id="layer1"
     transform="translate(0,-1004.3622)">
    <rect
       ry="1.0238096"
       rx="1.03125"
       y="1006.8622"
       x="7.5"
       height="43"
       width="33"
       id="rect4211"
       style="fill:#646464;fill-opacity:0.47058824;stroke:none" />
    <rect
       style="fill:url(#linearGradient4209);fill-opacity:1;stroke:none"
       id="rect3429"
       width="32"
       height="42"
       x="8"
       y="1007.3622"
       rx="1"
       ry="1" />
    <path
       style="fill:#000080;fill-opacity:1;stroke:none"
       d="M 9 3 C 8.446 3 8 3.446 8 4 L 8 11 L 40 11 L 40 4 C 40 3.446 39.554 3 39 3 L 9 3 z M 12.0625 3.90625 C 12.178816 3.90425 12.302773 3.89125 12.40625 3.90625 C 12.82016 3.96645 13.144595 4.14565 13.4375 4.34375 L 13.46875 4.375 L 13.46875 4.40625 L 12.78125 6.6875 L 12.78125 6.78125 L 12.71875 6.71875 C 12.371153 6.48455 11.98757 6.28125 11.46875 6.28125 C 11.127561 6.27865 10.716551 6.37525 10.1875 6.59375 L 10.0625 6.625 L 10.125 6.53125 L 10.78125 4.21875 L 10.8125 4.1875 C 11.320492 3.9772 11.713552 3.91625 12.0625 3.90625 z M 13.71875 4.5625 L 13.78125 4.59375 C 14.068795 4.78745 14.361631 4.944 14.75 5 C 15.138368 5.0557 15.618193 5.024 16.28125 4.75 L 16.40625 4.6875 L 16.375 4.8125 L 15.71875 7.09375 L 15.6875 7.125 L 15.65625 7.125 C 15.006785 7.4124 14.514153 7.4975 14.09375 7.4375 C 13.673347 7.3779 13.355103 7.16715 13.0625 6.96875 L 13.03125 6.96875 L 13.03125 6.9375 L 13.6875 4.625 L 13.71875 4.5625 z M 11.3125 6.65625 C 11.879377 6.64245 12.262806 6.84785 12.625 7.09375 L 11.96875 9.40625 C 11.387229 9.01535 10.748394 8.6951 9.40625 9.25 L 10.0625 6.96875 C 10.563812 6.76245 10.972374 6.66625 11.3125 6.65625 z M 12.9375 7.21875 L 13 7.28125 C 13.288371 7.47525 13.588586 7.6275 13.96875 7.6875 C 14.348915 7.7478 14.822988 7.70025 15.5 7.46875 L 15.59375 7.4375 L 15.5625 7.53125 L 14.9375 9.75 L 14.9375 9.78125 L 14.90625 9.8125 C 14.22922 10.0956 13.726076 10.15375 13.3125 10.09375 C 12.898924 10.03355 12.573846 9.85465 12.28125 9.65625 L 12.25 9.625 L 12.25 9.5625 L 12.90625 7.3125 L 12.9375 7.21875 z "
       transform="translate(0,1004.3622)"
       id="rect2822" />
    <path
       clip-rule="evenodd"
       id="path3594"
       style="fill:url(#linearGradient4155);fill-rule:evenodd"
       d="" />
    <ellipse
       ry="5.1165257"
       rx="17.433466"
       cy="1044.2635"
       cx="23.435314"
       style="fill:url(#radialGradient3920);fill-opacity:1;stroke:none;stroke-width:2.0947268"
       id="path3140" />
    <path
       inkscape:connector-curvature="0"
       id="path3889"
       d="m 10.28125,1016.0185 c -0.385476,0 -0.695804,0.3103 -0.695804,0.6958 v 27.8322 c 0,0.3854 0.310328,0.6958 0.695804,0.6958 h 20.874119 c 0.385475,0 0.695804,-0.3104 0.695804,-0.6958 v -27.8323 c 0,-0.3854 -0.310329,-0.6957 -0.695804,-0.6957 z m 0.95673,1.4569 c 0.343109,0 0.630573,0.2874 0.630573,0.6305 0,0.3431 -0.287464,0.6306 -0.630573,0.6306 -0.343109,0 -0.608828,-0.2875 -0.608828,-0.6306 0,-0.3431 0.265719,-0.6305 0.608828,-0.6305 z m 0,2.7832 c 0.343109,0 0.630573,0.2874 0.630573,0.6305 0,0.3431 -0.287464,0.6306 -0.630573,0.6306 -0.343109,0 -0.608828,-0.2875 -0.608828,-0.6306 0,-0.3431 0.265719,-0.6305 0.608828,-0.6305 z m 0,2.7832 c 0.343109,0 0.630573,0.2874 0.630573,0.6305 0,0.3431 -0.287464,0.6306 -0.630573,0.6306 -0.343109,0 -0.608828,-0.2876 -0.608828,-0.6306 0,-0.3431 0.265719,-0.6305 0.608828,-0.6305 z m 0,2.7832 c 0.343109,0 0.630573,0.2875 0.630573,0.6306 0,0.3431 -0.287464,0.6306 -0.630573,0.6306 -0.343109,0 -0.608828,-0.2874 -0.608828,-0.6305 0,-0.3432 0.265719,-0.6307 0.608828,-0.6307 z m 0,2.7832 c 0.343109,0 0.630573,0.2875 0.630573,0.6306 0,0.3431 -0.287464,0.6306 -0.630573,0.6306 -0.343109,0 -0.608828,-0.2875 -0.608828,-0.6306 0,-0.3431 0.265719,-0.6306 0.608828,-0.6306 z m 0,2.7833 c 0.343109,0 0.630573,0.2874 0.630573,0.6305 0,0.3431 -0.287464,0.6306 -0.630573,0.6306 -0.343109,0 -0.608828,-0.2875 -0.608828,-0.6306 0,-0.3431 0.265719,-0.6305 0.608828,-0.6305 z m 0,2.7833 c 0.343109,0 0.630573,0.2873 0.630573,0.6305 0,0.3431 -0.287464,0.6305 -0.630573,0.6305 -0.343109,0 -0.608828,-0.2874 -0.608828,-0.6305 0,-0.3432 0.265719,-0.6305 0.608828,-0.6305 z m 0,2.7832 c 0.343109,0 0.630573,0.2874 0.630573,0.6305 0,0.3431 -0.287464,0.6306 -0.630573,0.6306 -0.343109,0 -0.608828,-0.2875 -0.608828,-0.6306 0,-0.3431 0.265719,-0.6305 0.608828,-0.6305 z m 0,2.7832 c 0.343109,0 0.630573,0.2874 0.630573,0.6305 0,0.3431 -0.287464,0.6306 -0.630573,0.6306 -0.343109,0 -0.608828,-0.2875 -0.608828,-0.6306 0,-0.3431 0.265719,-0.6305 0.608828,-0.6305 z m 0,2.7832 c 0.343109,0 0.630573,0.2875 0.630573,0.6306 0,0.3431 -0.287464,0.6306 -0.630573,0.6306 -0.343109,0 -0.608828,-0.2875 -0.608828,-0.6306 0,-0.3431 0.265719,-0.6306 0.608828,-0.6306 z"
       style="fill:url(#linearGradient3905-0);fill-opacity:1;stroke:none" />
    <path
       inkscape:connector-curvature="0"
       id="path3891"
       d="m 12.890515,1017.1383 v 26.9843 h 0.208741 v -26.9842 z"
       style="color:#000000;font-style:normal;font-variant:normal;font-weight:normal;font-stretch:normal;font-size:medium;line-height:normal;font-family:'A.C.M.E. Secret Agent';-inkscape-font-specification:'A.C.M.E. Secret Agent';text-indent:0;text-align:start;text-decoration:none;text-decoration-line:none;letter-spacing:normal;word-spacing:normal;text-transform:none;writing-mode:lr-tb;direction:ltr;text-anchor:start;display:inline;overflow:visible;visibility:visible;fill:#de220d;fill-opacity:0.58823529;stroke:none;stroke-width:1px;marker:none;enable-background:accumulate" />
    <path
       inkscape:connector-curvature="0"
       id="path3893"
       d="m 14.32561,1019.1931 v 0.1522 h 15.481639 v -0.1522 z m 0,2.7832 v 0.1522 h 15.481639 v -0.1522 z m 0,2.7832 v 0.1522 h 15.481639 v -0.1522 z m 0,2.7833 v 0.1522 h 15.481639 v -0.1522 z m 0,2.7833 v 0.1522 h 15.481639 v -0.1522 z m 0,2.7832 v 0.1522 h 15.481639 v -0.1522 z m 0,2.7832 v 0.1522 h 15.481639 v -0.1522 z m 0,2.7832 v 0.1522 h 15.481639 v -0.1522 z m 0,2.7832 v 0.1523 h 15.481639 v -0.1523 z"
       style="color:#000000;font-style:normal;font-variant:normal;font-weight:normal;font-stretch:normal;font-size:medium;line-height:normal;font-family:'A.C.M.E. Secret Agent';-inkscape-font-specification:'A.C.M.E. Secret Agent';text-indent:0;text-align:start;text-decoration:none;text-decoration-line:none;letter-spacing:normal;word-spacing:normal;text-transform:none;writing-mode:lr-tb;direction:ltr;text-anchor:start;display:inline;overflow:visible;visibility:visible;fill:#50b4c8;fill-opacity:0.78431373;stroke:none;stroke-width:1px;marker:none;enable-background:accumulate" />
    <path
       inkscape:connector-curvature="0"
       style="fill:url(#linearGradient3137);fill-opacity:1;stroke:none"
       d="m 16.28125,1018.0185 c -0.385476,0 -0.695804,0.3103 -0.695804,0.6958 v 27.8322 c 0,0.3854 0.310328,0.6958 0.695804,0.6958 h 20.874119 c 0.385475,0 0.695804,-0.3104 0.695804,-0.6958 v -27.8323 c 0,-0.3854 -0.310329,-0.6957 -0.695804,-0.6957 z m 0.95673,1.4569 c 0.343109,0 0.630573,0.2874 0.630573,0.6305 0,0.3431 -0.287464,0.6306 -0.630573,0.6306 -0.343109,0 -0.608828,-0.2875 -0.608828,-0.6306 0,-0.3431 0.265719,-0.6305 0.608828,-0.6305 z m 0,2.7832 c 0.343109,0 0.630573,0.2874 0.630573,0.6305 0,0.3431 -0.287464,0.6306 -0.630573,0.6306 -0.343109,0 -0.608828,-0.2875 -0.608828,-0.6306 0,-0.3431 0.265719,-0.6305 0.608828,-0.6305 z m 0,2.7832 c 0.343109,0 0.630573,0.2874 0.630573,0.6305 0,0.3431 -0.287464,0.6306 -0.630573,0.6306 -0.343109,0 -0.608828,-0.2875 -0.608828,-0.6306 0,-0.3431 0.265719,-0.6305 0.608828,-0.6305 z m 0,2.7833 c 0.343109,0 0.630573,0.2874 0.630573,0.6306 0,0.3431 -0.287464,0.6305 -0.630573,0.6305 -0.343109,0 -0.608828,-0.2874 -0.608828,-0.6305 0,-0.3432 0.265719,-0.6306 0.608828,-0.6306 z m 0,2.7832 c 0.343109,0 0.630573,0.2875 0.630573,0.6306 0,0.3431 -0.287464,0.6306 -0.630573,0.6306 -0.343109,0 -0.608828,-0.2875 -0.608828,-0.6306 0,-0.3431 0.265719,-0.6306 0.608828,-0.6306 z m 0,2.7833 c 0.343109,0 0.630573,0.2874 0.630573,0.6305 0,0.3431 -0.287464,0.6306 -0.630573,0.6306 -0.343109,0 -0.608828,-0.2875 -0.608828,-0.6306 0,-0.3431 0.265719,-0.6305 0.608828,-0.6305 z m 0,2.7832 c 0.343109,0 0.630573,0.2874 0.630573,0.6305 0,0.3431 -0.287464,0.6306 -0.630573,0.6306 -0.343109,0 -0.608828,-0.2875 -0.608828,-0.6306 0,-0.3431 0.265719,-0.6305 0.608828,-0.6305 z m 0,2.7832 c 0.343109,0 0.630573,0.2874 0.630573,0.6305 0,0.3431 -0.287464,0.6306 -0.630573,0.6306 -0.343109,0 -0.608828,-0.2875 -0.608828,-0.6306 0,-0.3431 0.265719,-0.6305 0.608828,-0.6305 z m 0,2.7832 c 0.343109,0 0.630573,0.2874 0.630573,0.6305 0,0.3431 -0.287464,0.6306 -0.630573,0.6306 -0.343109,0 -0.608828,-0.2875 -0.608828,-0.6306 0,-0.3431 0.265719,-0.6305 0.608828,-0.6305 z m 0,2.7832 c 0.343109,0 0.630573,0.2875 0.630573,0.6306 0,0.3431 -0.287464,0.6306 -0.630573,0.6306 -0.343109,0 -0.608828,-0.2875 -0.608828,-0.6306 0,-0.3431 0.265719,-0.6306 0.608828,-0.6306 z"
       id="rect3429-0" />
    <path
       inkscape:connector-curvature="0"
       style="color:#000000;font-style:normal;font-variant:normal;font-weight:normal;font-stretch:normal;font-size:medium;line-height:normal;font-family:'A.C.M.E. Secret Agent';-inkscape-font-specification:'A.C.M.E. Secret Agent';text-indent:0;text-align:start;text-decoration:none;text-decoration-line:none;letter-spacing:normal;word-spacing:normal;text-transform:none;writing-mode:lr-tb;direction:ltr;text-anchor:start;display:inline;overflow:visible;visibility:visible;fill:#de220d;fill-opacity:0.58823529;stroke:none;stroke-width:1px;marker:none;enable-background:accumulate"
       d="m 18.890515,1019.1383 v 26.9843 h 0.208741 v -26.9842 z"
       id="path3662" />
    <path
       inkscape:connector-curvature="0"
       style="color:#000000;font-style:normal;font-variant:normal;font-weight:normal;font-stretch:normal;font-size:medium;line-height:normal;font-family:'A.C.M.E. Secret Agent';-inkscape-font-specification:'A.C.M.E. Secret Agent';text-indent:0;text-align:start;text-decoration:none;text-decoration-line:none;letter-spacing:normal;word-spacing:normal;text-transform:none;writing-mode:lr-tb;direction:ltr;text-anchor:start;display:inline;overflow:visible;visibility:visible;fill:#50b4c8;fill-opacity:0.78431373;stroke:none;stroke-width:1px;marker:none;enable-background:accumulate"
       d="m 20.32561,1021.1931 v 0.1522 h 15.481639 v -0.1522 z m 0,2.7832 v 0.1522 h 15.481639 v -0.1522 z m 0,2.7833 v 0.1523 h 15.481639 v -0.1523 z m 0,2.7833 v 0.1522 h 15.481639 v -0.1522 z m 0,2.7832 v 0.1522 h 15.481639 v -0.1522 z m 0,2.7832 v 0.1522 h 15.481639 v -0.1522 z m 0,2.7832 v 0.1522 h 15.481639 v -0.1522 z m 0,2.7832 v 0.1522 h 15.481639 v -0.1522 z m 0,2.7832 v 0.1523 h 15.481639 v -0.1523 z"
       id="path3668" />
    <text
       xml:space="preserve"
       style="font-style:normal;font-weight:normal;font-size:7.74674892px;line-height:1.25;font-family:sans-serif;letter-spacing:0px;word-spacing:0px;fill:#ffffff;fill-opacity:1;stroke:none;stroke-width:0.19366872"
       x="15.08202"
       y="1198.0188"
       id="text884"
       transform="scale(1.182412,0.84572893)"><tspan
         sodipodi:role="line"
         id="tspan882"
         x="15.08202"
         y="1198.0188"
         style="fill:#ffffff;fill-opacity:1;stroke-width:0.19366872">Blog</tspan></text>
  </g>
</svg>
