<?xml version="1.0" encoding="UTF-8" standalone="no"?>
<svg
   xmlns:dc="http://purl.org/dc/elements/1.1/"
   xmlns:cc="http://creativecommons.org/ns#"
   xmlns:rdf="http://www.w3.org/1999/02/22-rdf-syntax-ns#"
   xmlns:svg="http://www.w3.org/2000/svg"
   xmlns="http://www.w3.org/2000/svg"
   xmlns:sodipodi="http://sodipodi.sourceforge.net/DTD/sodipodi-0.dtd"
   xmlns:inkscape="http://www.inkscape.org/namespaces/inkscape"
   width="500"
   height="491"
   viewBox="0 0 500 491"
   version="1.1"
   preserveAspectRatio="xMinYMin meet"
   id="svg2"
   inkscape:version="0.92.3 (2405546, 2018-03-11)"
   sodipodi:docname="raspberrypi.app.svg">
  <metadata
     id="metadata38">
    <rdf:RDF>
      <cc:Work
         rdf:about="">
        <dc:format>image/svg+xml</dc:format>
        <dc:type
           rdf:resource="http://purl.org/dc/dcmitype/StillImage" />
        <dc:title />
      </cc:Work>
    </rdf:RDF>
  </metadata>
  <defs
     id="defs36" />
  <sodipodi:namedview
     pagecolor="#ffffff"
     bordercolor="#666666"
     borderopacity="1"
     objecttolerance="10"
     gridtolerance="10"
     guidetolerance="10"
     inkscape:pageopacity="0"
     inkscape:pageshadow="2"
     inkscape:window-width="1408"
     inkscape:window-height="701"
     id="namedview34"
     showgrid="false"
     inkscape:zoom="0.72171254"
     inkscape:cx="-72.583654"
     inkscape:cy="163.5"
     inkscape:window-x="186"
     inkscape:window-y="244"
     inkscape:window-maximized="0"
     inkscape:current-layer="g4166"
     inkscape:snap-bbox="false"
     inkscape:snap-global="true" />
  <g
     id="g4"
     transform="translate(0,164)">
    <g
       id="g4166"
       transform="matrix(1.3425061,0,0,1.4280713,82.746372,-151.80101)">
      <path
         inkscape:connector-curvature="0"
         style="fill:#ff5555;fill-opacity:0"
         id="path6"
         d="m 69.298131,0.005 c -1.653,0.051 -3.433,0.662 -5.453,2.255 -4.946,-1.907 -9.743,-2.57 -14.032,1.313 -6.623,-0.859 -8.775,0.914 -10.406,2.984 -1.454,-0.03 -10.879,-1.495 -15.202,4.953 -10.862,-1.285 -14.2950001,6.389 -10.405,13.546 -2.219,3.434 -4.5180001,6.827 0.67,13.375 -1.835,3.646 -0.697,7.602 3.626,12.389 -1.141,5.127 1.102,8.743 5.125,11.562 -0.753,7.015 6.433,11.094 8.578,12.547 0.824,4.087 2.541,7.945 10.748,10.077 1.354,6.092 6.286,7.144 11.063,8.422 -15.787,9.177 -29.325,21.25 -29.233,50.875 l -2.313,4.125 c -18.1020001,11.008 -34.388,46.39 -8.92,75.148 1.663,9.002 4.453,15.468 6.937,22.624 3.715,28.836 27.962,42.339 34.358,43.936 9.371,7.138 19.352,13.911 32.859,18.656 12.731999,13.131 26.525999,18.136 40.394999,18.128 0.204,0 28.277,-4.996 41.01,-18.128 13.506,-4.745 23.487,-11.518 32.859,-18.656 6.395,-1.597 30.642,-15.1 34.357,-43.936 2.484,-7.156 5.274,-13.622 6.938,-22.624 25.466,-28.761 9.181,-64.144 -8.921,-75.152 l -2.316,-4.125 c 0.092,-29.622 -13.446,-41.696 -29.233,-50.875 4.776,-1.278 9.709,-2.33 11.062,-8.422 8.207,-2.133 9.925,-5.99 10.748,-10.077 2.146,-1.453 9.331,-5.532 8.579,-12.547 4.022,-2.819 6.265,-6.436 5.124,-11.562 4.324,-4.787 5.461,-8.743 3.626,-12.39 5.189,-6.544 2.887,-9.937 0.671,-13.371 3.888,-7.157 0.457,-14.832 -10.409,-13.546 -4.321,-6.448 -13.744,-4.984 -15.202,-4.954 -1.63,-2.069 -3.782,-3.842 -10.405,-2.983 -4.289,-3.883 -9.085,-3.221 -14.032,-1.313 -5.874,-4.635 -9.761,-0.92 -14.201,0.485 -7.111,-2.324 -8.738,0.859 -12.232,2.156 -7.756,-1.639 -10.113,1.929 -13.831,5.695 l -4.325,-0.086 c -11.698,6.894 -17.51,20.932 -19.57,28.149 -2.061,-7.218 -7.859,-21.256 -19.555,-28.149 l -4.325,0.086 C 100.38713,6.829 98.031131,3.261 90.275131,4.9 c -3.495,-1.297 -5.116,-4.48 -12.233,-2.156 -2.914,-0.922 -5.594,-2.838 -8.749,-2.74 L -11,141" />
      <path
         inkscape:connector-curvature="0"
         style="fill:#00ba00;fill-opacity:1"
         id="path8"
         d="m 46.008,30.334 c 31.036,16.001 49.079,28.945 58.964,39.969 -5.062,20.289 -31.47,21.215 -41.126,20.646 1.977,-0.92 3.627,-2.023 4.212,-3.716 -2.423,-1.722 -11.014,-0.182 -17.012,-3.551 2.304,-0.478 3.382,-0.943 4.459,-2.643 -5.666,-1.807 -11.77,-3.365 -15.36,-6.359 1.937,0.024 3.746,0.434 6.276,-1.321 -5.075,-2.735 -10.491,-4.903 -14.699,-9.084 2.624,-0.064 5.453,-0.026 6.276,-0.991 -4.645,-2.878 -8.565,-6.078 -11.809,-9.579 3.672,0.443 5.223,0.062 6.111,-0.578 -3.512,-3.597 -7.956,-6.634 -10.075,-11.066 2.726,0.94 5.221,1.3 7.019,-0.082 -1.193,-2.692 -6.305,-4.28 -9.249,-10.571 2.871,0.279 5.915,0.626 6.524,0 -1.332,-5.428 -3.618,-8.48 -5.86,-11.642 6.143,-0.091 15.451,0.024 15.03,-0.495 L 31.89,15.39 c 6.001,-1.616 12.141,0.259 16.599,1.651 2.001,-1.579 -0.036,-3.576 -2.478,-5.615 5.1,0.681 9.708,1.853 13.874,3.468 2.225,-2.009 -1.445,-4.019 -3.221,-6.028 7.879,1.494 11.217,3.595 14.534,5.698 2.407,-2.307 0.138,-4.268 -1.486,-6.276 5.941,2.2 9.001,5.041 12.222,7.845 1.092,-1.474 2.775,-2.555 0.743,-6.111 4.218,2.431 7.395,5.296 9.745,8.506 2.61,-1.662 1.555,-3.934 1.569,-6.029 4.384,3.566 7.166,7.361 10.571,11.066 0.686,-0.5 1.286,-2.193 1.817,-4.872 10.457,10.145 25.234,35.7 3.798,45.832 C 91.934,49.479 70.146,38.542 46.001,30.338 l 0.007,-0.004" />
      <path
         inkscape:connector-curvature="0"
         style="fill:#00ba00;fill-opacity:1"
         id="path10"
         d="m 210.686,30.334 c -31.032,16.003 -49.075,28.943 -58.959,39.969 5.062,20.289 31.469,21.215 41.125,20.646 -1.977,-0.92 -3.627,-2.023 -4.211,-3.716 2.423,-1.722 11.014,-0.182 17.011,-3.551 -2.304,-0.478 -3.381,-0.943 -4.459,-2.643 5.667,-1.807 11.771,-3.365 15.36,-6.359 -1.937,0.024 -3.746,0.434 -6.276,-1.321 5.076,-2.735 10.492,-4.903 14.7,-9.084 -2.625,-0.064 -5.454,-0.026 -6.276,-0.991 4.645,-2.878 8.565,-6.078 11.809,-9.579 -3.673,0.443 -5.223,0.062 -6.111,-0.578 3.511,-3.597 7.956,-6.634 10.075,-11.066 -2.727,0.94 -5.222,1.3 -7.02,-0.082 1.193,-2.692 6.306,-4.28 9.249,-10.571 -2.87,0.279 -5.915,0.626 -6.524,0 1.335,-5.43 3.621,-8.482 5.863,-11.644 -6.143,-0.091 -15.451,0.024 -15.03,-0.495 l 3.799,-3.882 c -6.001,-1.615 -12.141,0.26 -16.599,1.652 -2.001,-1.579 0.035,-3.576 2.477,-5.615 -5.099,0.68 -9.708,1.853 -13.873,3.468 -2.226,-2.009 1.445,-4.019 3.221,-6.028 -7.879,1.494 -11.217,3.595 -14.535,5.698 -2.407,-2.307 -0.137,-4.268 1.487,-6.276 -5.941,2.2 -9.001,5.041 -12.222,7.845 -1.093,-1.474 -2.775,-2.555 -0.744,-6.111 -4.217,2.431 -7.394,5.296 -9.744,8.506 -2.61,-1.662 -1.555,-3.935 -1.569,-6.029 -4.384,3.566 -7.166,7.36 -10.571,11.066 -0.686,-0.5 -1.286,-2.193 -1.817,-4.873 -10.457,10.146 -25.234,35.701 -3.798,45.833 18.233,-15.05 40.02,-25.985 64.166,-34.189 l -0.004,0" />
      <path
         inkscape:connector-curvature="0"
         style="fill:#ff5555"
         id="path12"
         d="m 165.933,236.933 c 0.108,18.933 -16.449,34.362 -36.98,34.461 -20.532,0.1 -37.264,-15.167 -37.372,-34.1 -0.001,-0.12 -0.001,-0.24 0,-0.361 -0.108,-18.932 16.448,-34.361 36.98,-34.461 20.532,-0.1 37.263,15.167 37.372,34.1 l 0,0.361" />
      <path
         inkscape:connector-curvature="0"
         style="fill:#ff5555"
         id="path14"
         d="m 107.246,139.004 c 15.404,10.093 18.181,32.969 6.202,51.095 -11.979,18.127 -34.177,24.641 -49.581,14.549 -15.404,-10.093 -18.18,-32.969 -6.202,-51.095 11.979,-18.127 34.177,-24.641 49.581,-14.549" />
      <path
         inkscape:connector-curvature="0"
         style="fill:#ff5555;fill-opacity:1"
         id="path16"
         d="m 148.822,137.177 c -15.403,10.092 -18.18,32.969 -6.202,51.095 11.979,18.127 34.177,24.641 49.581,14.548 15.404,-10.092 18.181,-32.968 6.202,-51.095 -11.978,-18.126 -34.176,-24.64 -49.581,-14.548" />
      <path
         inkscape:connector-curvature="0"
         style="fill:#ff5555"
         id="path18"
         d="m 30.258,155.504 c 16.631,-4.458 5.615,68.803 -7.917,62.792 C 7.456,206.324 2.662,171.263 30.258,155.504" />
      <path
         inkscape:connector-curvature="0"
         style="fill:#ff5555;fill-opacity:1"
         id="path20"
         d="m 222.453,154.591 c -16.633,-4.457 -5.615,68.807 7.917,62.796 14.885,-11.973 19.679,-47.038 -7.917,-62.796" />
      <path
         inkscape:connector-curvature="0"
         style="fill:#ff5555;fill-opacity:1"
         id="path22"
         d="m 165.946,100.034 c 28.701,-4.846 52.583,12.206 51.619,43.328 -0.944,11.932 -62.193,-41.551 -51.619,-43.328" />
      <path
         inkscape:connector-curvature="0"
         style="fill:#ff5555"
         id="path24"
         d="M 86.646,99.121 C 57.943,94.274 34.063,111.33 35.027,142.45 35.971,154.381 97.221,100.898 86.646,99.121" />
      <path
         inkscape:connector-curvature="0"
         style="fill:#ff5555;fill-opacity:1"
         id="path26"
         d="m 127.874,91.863 c -17.13,-0.446 -33.57,12.713 -33.61,20.346 -0.047,9.274 13.544,18.77 33.727,19.011 20.61,0.147 33.762,-7.601 33.828,-17.172 0.076,-10.844 -18.745,-22.353 -33.945,-22.186 l 0,0.001" />
      <path
         inkscape:connector-curvature="0"
         style="fill:#ff5555"
         id="path28"
         d="m 128.92,282.043 c 14.935,-0.652 34.975,4.81 35.015,12.057 0.248,7.036 -18.175,22.934 -36.005,22.627 -18.466,0.797 -36.573,-15.126 -36.336,-20.645 -0.277,-8.092 22.484,-14.41 37.326,-14.039" />
      <path
         inkscape:connector-curvature="0"
         style="fill:#ff5555"
         id="path30"
         d="m 73.756,239.098 c 10.633,12.81 15.481,35.316 6.607,41.951 -8.395,5.065 -28.782,2.979 -43.272,-17.838 -9.773,-17.468 -8.514,-35.243 -1.652,-40.465 10.261,-6.25 26.115,2.193 38.318,16.352 l -0.001,0" />
      <path
         inkscape:connector-curvature="0"
         style="fill:#ff5555;fill-opacity:1"
         id="path32"
         d="m 181.956,235.037 c -11.505,13.475 -17.911,38.053 -9.519,45.969 8.025,6.15 29.567,5.29 45.479,-16.789 11.554,-14.829 7.683,-39.594 1.083,-46.17 -9.804,-7.583 -23.879,2.122 -37.043,16.986 l 0,0.004" />
    </g>
  </g>
</svg>
